<?xml version="1.0" encoding="UTF-8"?>
<svg width="978px" height="252px" viewBox="0 0 978 252" version="1.1" xmlns="http://www.w3.org/2000/svg" xmlns:xlink="http://www.w3.org/1999/xlink">
    <title>首页-免责声明弹窗头图备份 4</title>
    <defs>
        <linearGradient x1="51.7182617%" y1="100%" x2="51.7182617%" y2="28.3247616%" id="linearGradient-1">
            <stop stop-color="#FFFFFF" offset="0%"></stop>
            <stop stop-color="#FFF1E6" offset="100%"></stop>
        </linearGradient>
        <path d="M24,0 L954,0 C967.254834,-2.4348735e-15 978,10.745166 978,24 L978,252 L978,252 L0,252 L0,24 C-1.623249e-15,10.745166 10.745166,2.4348735e-15 24,0 Z" id="path-2"></path>
        <linearGradient x1="86.5840374%" y1="53.6009394%" x2="26.0687844%" y2="48.9808714%" id="linearGradient-4">
            <stop stop-color="#FFDBDB" offset="0%"></stop>
            <stop stop-color="#FFB4B4" offset="100%"></stop>
        </linearGradient>
        <filter x="-43.2%" y="-130.4%" width="186.5%" height="360.8%" filterUnits="objectBoundingBox" id="filter-5">
            <feGaussianBlur stdDeviation="84.3103448" in="SourceGraphic"></feGaussianBlur>
        </filter>
        <linearGradient x1="43.9598014%" y1="5.58641753%" x2="66.8471435%" y2="100%" id="linearGradient-6">
            <stop stop-color="#FFE9D6" offset="0%"></stop>
            <stop stop-color="#FFFFFF" stop-opacity="0.651742788" offset="100%"></stop>
        </linearGradient>
        <linearGradient x1="-7.51918472e-12%" y1="37.2464227%" x2="100%" y2="60.0242201%" id="linearGradient-7">
            <stop stop-color="#FFFFFF" offset="0%"></stop>
            <stop stop-color="#FFFFFF" stop-opacity="0.651742788" offset="100%"></stop>
        </linearGradient>
        <linearGradient x1="51.7050509%" y1="82.6797754%" x2="72.9090075%" y2="76.8628839%" id="linearGradient-8">
            <stop stop-color="#FFF7F0" offset="0%"></stop>
            <stop stop-color="#FFECDD" offset="100%"></stop>
        </linearGradient>
        <filter x="-8.1%" y="0.0%" width="116.1%" height="100.0%" filterUnits="objectBoundingBox" id="filter-9">
            <feGaussianBlur stdDeviation="8.43103448 0" in="SourceGraphic"></feGaussianBlur>
        </filter>
    </defs>
    <g id="页面-1" stroke="none" stroke-width="1" fill="none" fill-rule="evenodd">
        <g id="7.21.已响应-呼救者取消呼救" transform="translate(-96, -918)">
            <g id="首页-免责声明弹窗头图备份-4" transform="translate(96, 918)">
                <g id="bg">
                    <mask id="mask-3" fill="white">
                        <use xlink:href="#path-2"></use>
                    </mask>
                    <use id="蒙版" fill="url(#linearGradient-1)" xlink:href="#path-2"></use>
                    <path d="M795.208419,15.4614928 C968.507383,15.4614928 1047.77614,122.710531 1047.77614,78.8610585 C1047.77614,35.0115864 949.746846,-104.573333 776.447882,-104.573333 C603.148918,-104.573333 462.66235,-69.0263127 462.66235,-25.1768406 C462.66235,18.6726315 621.909454,15.4614928 795.208419,15.4614928 Z" id="椭圆形" fill="url(#linearGradient-4)" opacity="0.511858259" filter="url(#filter-5)" mask="url(#mask-3)"></path>
                    <g id="编组-50" mask="url(#mask-3)">
                        <g transform="translate(120, 22)">
                            <circle id="椭圆形" fill="url(#linearGradient-6)" cx="120" cy="120" r="120"></circle>
                            <path d="M120,66 C125.522847,66 130,70.4771525 130,76 L129.999,109.999 L164,110 C169.522847,110 174,114.477153 174,120 C174,125.522847 169.522847,130 164,130 L129.999,129.999 L130,164 C130,169.522847 125.522847,174 120,174 C114.477153,174 110,169.522847 110,164 L109.999,129.999 L76,130 C70.4771525,130 66,125.522847 66,120 C66,114.477153 70.4771525,110 76,110 L109.999,109.999 L110,76 C110,70.4771525 114.477153,66 120,66 Z" id="形状结合" fill="url(#linearGradient-7)" transform="translate(120, 120) rotate(45) translate(-120, -120)"></path>
                        </g>
                    </g>
                    <ellipse id="椭圆形" fill="url(#linearGradient-8)" filter="url(#filter-9)" mask="url(#mask-3)" cx="-45.5275862" cy="-36.2633333" rx="156.817241" ry="215.05"></ellipse>
                </g>
                <g id="header">
                    <polygon id="矩形" points="0 0 978 0 978 252 1.34336986e-14 252"></polygon>
                    <text id="确认取消呼救吗？" font-family="PingFangSC-Semibold, PingFang SC" font-size="60" font-weight="500" fill="#823F1F">
                        <tspan x="249" y="160">确认取消呼救吗？</tspan>
                    </text>
                </g>
            </g>
        </g>
    </g>
</svg>