<?xml version="1.0" encoding="UTF-8"?>
<svg width="108px" height="108px" viewBox="0 0 108 108" version="1.1" xmlns="http://www.w3.org/2000/svg" xmlns:xlink="http://www.w3.org/1999/xlink">
    <title>icon_120</title>
    <g id="页面-1" stroke="none" stroke-width="1" fill="none" fill-rule="evenodd">
        <g id="7.13.呼救位置图标" transform="translate(-78, -1148)">
            <g id="120" transform="translate(48, 1118)">
                <g id="icon_120" transform="translate(30, 30)">
                    <rect id="矩形" fill-opacity="0" fill="#FFFFFF" x="0" y="0" width="108" height="108"></rect>
                    <path d="M91.3307209,12 C94.4968003,12.0286089 96.9225982,12.853101 98.5626016,14.5155671 C100.203625,16.1790667 101,18.6596275 101,21.9064134 C101,22.7132296 100.931929,23.6978475 100.796233,24.8699542 L100.010471,31.3814789 C99.4872916,35.5856737 98.2191002,38.7386892 96.1666686,40.8147353 C94.0902499,42.9150446 91.2300059,43.9716365 87.6398359,44 L86.0600109,44 C82.8806815,43.9714445 80.4453351,43.1633707 78.8047788,41.530581 C77.1578632,39.8914621 76.3607027,37.4084557 76.3607027,34.1330273 C76.3607027,33.3003379 76.428756,32.3023069 76.5644695,31.1300458 L77.3507153,24.6146898 C78.4077475,16.3720091 82.6746872,12.0568899 89.9564552,12 L91.3307209,12 Z M48.6103575,12.1577628 L52.5401163,12.1577628 C53.1081806,12.1577628 53.5686877,12.6182699 53.5686877,13.1863342 C53.5686877,13.2279552 53.5661615,13.2695379 53.5611228,13.3108529 L49.9478681,42.9381845 C49.8849282,43.4542683 49.4467692,43.8422372 48.9268616,43.8422372 L44.2885935,43.8422372 C43.7205292,43.8422372 43.2600221,43.3817301 43.2600221,42.8136658 C43.2600221,42.7718917 43.262567,42.7301564 43.2676426,42.6886918 L46.0209433,20.196129 L46.0209433,20.196129 L39.5917808,23.3366384 C39.3876118,23.4363706 39.1412511,23.3517079 39.0415188,23.1475388 C39.0064074,23.0756597 38.9930122,22.9951038 39.0029727,22.91573 L39.7350173,17.0821512 C39.7773723,16.7446289 39.9838637,16.4498773 40.2866181,16.2947806 L48.1413911,12.2708946 C48.2865343,12.1965398 48.4472773,12.1577628 48.6103575,12.1577628 Z M65.6515851,12.1577628 C68.9321503,12.1577628 71.4432121,12.9473569 73.1383521,14.574751 C74.8237616,16.1928035 75.6742468,18.2642835 75.6742468,20.7231927 C75.6742468,21.182973 75.6596045,21.5359641 75.6268218,21.7993852 C75.3999432,23.5940605 74.3925381,27.1978852 71.1643467,29.3232872 C67.9361554,31.4486892 65.6515851,31.8046912 63.3328941,33.6934606 C62.0150444,34.7669604 61.1650534,35.8326997 60.7829211,36.8906786 C60.7062325,37.1045743 60.8184671,37.3396589 61.0326871,37.4154305 C61.0772373,37.4311883 61.1241692,37.4391535 61.1714239,37.4389795 L72.3688135,37.4392203 C72.9368778,37.4392325 73.397375,37.8997495 73.3973628,38.4678139 C73.3973619,38.5079721 73.3950092,38.5480958 73.3903168,38.5879789 L72.8790048,42.933853 C72.8180599,43.4518515 72.3790508,43.8422372 71.8574794,43.8422372 L54.2618446,43.8422372 C53.6937803,43.8422372 53.2332731,43.3817301 53.2332731,42.8136658 C53.2332731,42.7673737 53.2363983,42.7211344 53.2426273,42.6752633 L53.8351209,38.3120491 L53.8351209,38.3120491 C54.2853885,35.4287299 55.4168872,33.0197749 57.2284817,31.1140914 C58.8696047,29.3877332 60.7838415,28.0175466 62.9536379,27.0120813 C65.1234343,26.0066159 68.8670257,24.9553204 69.0612228,21.4732637 C69.3624339,18.758017 66.6595651,18.5607548 65.1411436,18.5607548 C62.6864266,18.5607548 60.3637171,18.7530448 58.1726859,19.1369139 L58.1694384,19.1374829 C57.6098968,19.2355147 57.0768282,18.8613871 56.9787964,18.3018455 C56.9612412,18.2016447 56.9586476,18.099394 56.9711004,17.9984322 L57.5217529,13.5339628 C57.579405,13.0665422 57.9471537,12.697989 58.4144472,12.6393156 L58.4163691,12.6390743 L58.4163691,12.6390743 C60.9705856,12.3183664 63.3822169,12.1577628 65.6515851,12.1577628 Z M90.7810146,18.4029921 L89.1927065,18.4027666 C88.0960585,18.4257159 87.227214,18.6300912 86.5773634,18.9985863 C85.9679435,19.3441554 85.4628255,19.9386631 85.0640009,20.8156782 C84.6283466,21.7736819 84.2920733,23.1309444 84.0687028,24.876049 L83.242733,31.3944476 C83.144519,32.1096893 83.0952815,32.8515624 83.0952815,33.6202984 C83.0952815,35.1275094 83.3775706,36.1547243 83.8786068,36.7244769 C84.3527612,37.263661 85.2380044,37.5751358 86.5796881,37.597111 L88.1749741,37.597111 C89.7573916,37.5747235 90.8766333,37.1281727 91.610936,36.2778916 C92.3931483,35.3721337 92.9746479,33.6496187 93.2919999,31.123951 L94.1179697,24.6055524 C94.2161292,23.890707 94.2654212,23.1356358 94.2654212,22.340261 C94.2654212,20.8386245 93.9797868,19.8237976 93.4746036,19.2693647 C92.9855748,18.732661 92.1015011,18.424876 90.7810146,18.4029921 Z" id="形状" fill="#FF7E2F" fill-rule="nonzero"></path>
                    <path d="M15.1828133,27.1511117 C18.6167513,24.0661261 23.9177822,24.3308727 27.0229972,27.7424399 C27.1707517,27.9047714 27.3120078,28.0728262 27.4464368,28.2462129 L34.5358224,37.3901171 C37.2139956,40.8444304 36.7569956,45.7662506 33.4879516,48.6755254 L30.7737088,51.0910562 C30.0764015,51.7111011 29.900056,52.7261135 30.3480686,53.5434286 C32.258731,57.0295813 34.6529847,60.3119309 37.5372871,63.3940891 C40.247556,66.2902755 43.0206619,68.6678857 45.8489588,70.5309117 C46.6613135,71.0644632 47.7389642,70.9490203 48.4189713,70.2534508 L50.0274553,68.6129472 C53.255252,65.31292 58.5649793,65.2424729 61.8825247,68.4530148 C62.016368,68.5651367 62.1076247,68.6415835 62.191461,68.7500109 L62.2093738,68.7744188 L70.4704271,76.7793116 C73.7110041,79.9195585 73.8462211,85.0303394 70.8287126,88.3339027 L70.6180874,88.5563009 C70.5031851,88.6733344 70.384839,88.7869812 70.2632029,88.8970936 L65.0391041,93.6262639 C61.1252616,97.1737367 55.4362674,98.0058334 50.6585844,95.7305911 C41.4205632,91.3314373 32.6633292,84.2813316 24.3720746,74.6183652 C16.0497207,64.9191546 10.1576272,55.1772338 6.72380133,45.3839129 C5.00484157,40.4791588 6.40846864,35.0288842 10.2880444,31.5484817 L15.1828133,27.1511117 Z M21.4485122,32.7504527 C21.1272831,32.397532 20.5789006,32.3701444 20.2236656,32.6892809 L15.3269312,37.0884154 C13.6882192,38.5585199 13.0959354,40.8583542 13.8213464,42.9281893 C16.929716,51.7933041 22.3437439,60.7447966 30.0916141,69.7744806 C37.73728,78.6850514 45.6807163,85.0800005 53.9071764,88.9974481 C55.9231812,89.9575158 58.3228971,89.6065231 59.9753996,88.1087101 L65.2012241,83.3779766 L65.2379363,83.3427222 C65.5723511,83.0021047 65.5655121,82.4566491 65.2226611,82.124413 L56.6366108,73.8041915 L56.6107887,73.7782521 L56.5836388,73.7556694 L56.5587573,73.7346007 L56.5401716,73.7195707 C56.2323357,73.498681 55.8132594,73.5043687 55.510554,73.7346482 L55.4142744,73.8197236 L53.8064513,75.4595513 C50.6119782,78.7271591 45.5290455,79.2716662 41.7000104,76.7567663 C38.3547845,74.553239 35.1335954,71.7914505 32.0329888,68.4781503 C28.726553,64.9449014 25.9625593,61.1556649 23.747575,57.114253 C21.6322299,53.2552024 22.465699,48.4579094 25.7602282,45.528418 L28.4733015,43.1139274 C28.8114785,42.812968 28.8587543,42.3038141 28.5817019,41.9464714 L21.4923163,32.8025672 L21.4485122,32.7504527 Z" id="路径-10" fill="#333333" fill-rule="nonzero"></path>
                </g>
            </g>
        </g>
    </g>
</svg>