<?xml version="1.0" encoding="UTF-8"?>
<svg width="144px" height="144px" viewBox="0 0 144 144" version="1.1" xmlns="http://www.w3.org/2000/svg" xmlns:xlink="http://www.w3.org/1999/xlink">
    <title>SOS</title>
    <defs>
        <filter x="-17.7%" y="-17.7%" width="135.4%" height="135.4%" filterUnits="objectBoundingBox" id="filter-1">
            <feOffset dx="0" dy="0" in="SourceAlpha" result="shadowOffsetOuter1"></feOffset>
            <feGaussianBlur stdDeviation="8.5" in="shadowOffsetOuter1" result="shadowBlurOuter1"></feGaussianBlur>
            <feColorMatrix values="0 0 0 0 0.738620924   0 0 0 0 0.193883973   0 0 0 0 0.0581551383  0 0 0 0.329955201 0" type="matrix" in="shadowBlurOuter1" result="shadowMatrixOuter1"></feColorMatrix>
            <feMerge>
                <feMergeNode in="shadowMatrixOuter1"></feMergeNode>
                <feMergeNode in="SourceGraphic"></feMergeNode>
            </feMerge>
        </filter>
        <linearGradient x1="30.7117718%" y1="-5.75928194e-14%" x2="76.330462%" y2="92.7437245%" id="linearGradient-2">
            <stop stop-color="#FF8758" offset="0%"></stop>
            <stop stop-color="#E01E1E" offset="100%"></stop>
        </linearGradient>
        <circle id="path-3" cx="72" cy="72" r="72"></circle>
        <filter x="-16.0%" y="-16.0%" width="131.9%" height="131.9%" filterUnits="objectBoundingBox" id="filter-5">
            <feGaussianBlur stdDeviation="14" in="SourceAlpha" result="shadowBlurInner1"></feGaussianBlur>
            <feOffset dx="0" dy="17" in="shadowBlurInner1" result="shadowOffsetInner1"></feOffset>
            <feComposite in="shadowOffsetInner1" in2="SourceAlpha" operator="arithmetic" k2="-1" k3="1" result="shadowInnerInner1"></feComposite>
            <feColorMatrix values="0 0 0 0 1   0 0 0 0 0.798208841   0 0 0 0 0.798208841  0 0 0 0.5 0" type="matrix" in="shadowInnerInner1" result="shadowMatrixInner1"></feColorMatrix>
            <feGaussianBlur stdDeviation="14" in="SourceAlpha" result="shadowBlurInner2"></feGaussianBlur>
            <feOffset dx="-18" dy="-13" in="shadowBlurInner2" result="shadowOffsetInner2"></feOffset>
            <feComposite in="shadowOffsetInner2" in2="SourceAlpha" operator="arithmetic" k2="-1" k3="1" result="shadowInnerInner2"></feComposite>
            <feColorMatrix values="0 0 0 0 0.967872509   0 0 0 0 0.246674238   0 0 0 0 0  0 0 0 0.673131556 0" type="matrix" in="shadowInnerInner2" result="shadowMatrixInner2"></feColorMatrix>
            <feMerge>
                <feMergeNode in="shadowMatrixInner1"></feMergeNode>
                <feMergeNode in="shadowMatrixInner2"></feMergeNode>
            </feMerge>
        </filter>
        <filter x="-155.0%" y="-246.7%" width="409.9%" height="593.4%" filterUnits="objectBoundingBox" id="filter-6">
            <feGaussianBlur stdDeviation="68.4972973" in="SourceGraphic"></feGaussianBlur>
        </filter>
        <filter x="-95.5%" y="-206.3%" width="291.1%" height="512.5%" filterUnits="objectBoundingBox" id="filter-7">
            <feGaussianBlur stdDeviation="43.8382703" in="SourceGraphic"></feGaussianBlur>
        </filter>
        <linearGradient x1="54.8656722%" y1="45.3885179%" x2="47.2735956%" y2="58.1926428%" id="linearGradient-8">
            <stop stop-color="#FFF2B9" offset="0%"></stop>
            <stop stop-color="#FFB74E" stop-opacity="0.634751967" offset="100%"></stop>
        </linearGradient>
        <filter x="-73.8%" y="-206.1%" width="247.6%" height="512.1%" filterUnits="objectBoundingBox" id="filter-9">
            <feGaussianBlur stdDeviation="27.3989189" in="SourceGraphic"></feGaussianBlur>
        </filter>
        <path d="M81.8542831,48.5070348 L81.8542831,48.7153425 C79.0394689,46.2839732 75.3627047,44.9910498 71.5864081,45.1046742 C67.7768425,44.9662327 64.0690745,46.3087112 61.2945427,48.8310692 C58.5708289,51.6695428 57.1594178,55.4538844 57.3841136,59.3158947 L57.3841136,84.5442831 C57.1445445,88.3916223 58.5192246,92.1702049 61.1985813,95.0291088 C67.1971864,99.7234215 75.7837068,99.7234215 81.782312,95.0291088 C84.5592362,92.2180925 86.0015511,88.4207792 85.7647121,84.5442831 L85.7647121,59.0844416 C86.0629141,55.1847332 84.6431728,51.3444433 81.8542831,48.5070348 L81.8542831,48.5070348 Z M75.9766444,58.9918604 L75.9766444,84.8451722 C76.0029366,86.093682 75.5978029,87.3151291 74.825107,88.3169688 C73.98542,89.1884667 72.8077237,89.6835756 71.5744129,89.6835756 C70.3411021,89.6835756 69.1634058,89.1884667 68.3237188,88.3169688 C67.5395251,87.2545353 67.166024,85.9605703 67.2681429,84.6600098 L67.2681429,58.9918604 C67.215761,57.7685717 67.6058888,56.565774 68.3716995,55.5894998 C69.1828957,54.7979376 70.2886902,54.3524833 71.4424659,54.3524833 C72.5962415,54.3524833 73.7020361,54.7979376 74.5132322,55.5894998 L74.897078,56.0061153 C75.5027868,56.7105142 75.8784681,57.5723351 75.9766444,58.4826636 C76.0006472,58.651606 76.0006472,58.822918 75.9766444,58.9918604 L75.9766444,58.9918604 Z M45.3895084,70.0091125 C44.2619613,68.8981338 42.1987902,66.4910134 41.0472529,65.3800348 C40.2555709,64.6393823 39.3919178,63.6441306 38.6482167,62.9497689 C38.0026241,62.3069644 37.4388617,61.5921167 36.9688913,60.8203931 C36.3989471,59.9691391 36.0758667,58.9860819 36.0332672,57.9735103 C35.9896034,56.8548833 36.3174053,55.7520411 36.9688913,54.8257374 C37.5173527,54.0650784 38.4078525,53.6011454 39.3679275,53.5758865 C40.6767346,53.3948097 41.9682166,53.9994833 42.6306168,55.1034822 C42.9821685,55.7876793 43.2711495,56.500175 43.4942698,57.2328579 C44.0558811,59.0743845 45.8489895,60.3073342 47.8365253,60.218613 C49.1908983,60.1858423 50.4546624,59.554852 51.2645425,58.5070233 C52.0744226,57.4591946 52.3407096,56.1105938 51.986858,54.8488829 C51.2707465,52.5250408 50.0432923,50.3776524 48.3883037,48.5533371 C46.1566651,46.2321966 42.9824302,44.9716921 39.7037926,45.1046742 C36.1532676,44.9963663 32.7355987,46.411914 30.3715417,48.9699541 C28.0697647,51.6768047 26.8674313,55.0991733 26.9889006,58.5984358 C27.5323995,64.0380974 30.0871448,69.1072947 34.1860093,72.8791407 C35.4335081,74.1058462 37.5926407,76.8601476 38.7921588,78.1099986 C40.0703654,79.3941933 41.2340242,80.7801139 42.2707613,82.2530231 C43.0065023,83.3726008 43.3821485,84.6772964 43.3503276,86.0025761 C43.3503276,89.1966398 42.1508095,90.6316539 39.7757637,90.6316538 C39.0369346,90.6385053 38.3147825,90.4197687 37.7125925,90.0067284 C37.1035144,89.5874621 36.6428594,88.9975821 36.3931226,88.317115 C36.2698149,87.9677618 36.1657118,87.6123712 36.0812479,87.2524271 C35.4187723,84.8939921 32.9000428,83.50023 30.4555079,84.1393723 C28.0109731,84.7785146 26.5663287,87.2085311 27.2288042,89.566966 C27.8805502,91.5116397 28.8702609,93.3352501 30.1556284,94.9598415 C32.334165,97.3886614 35.4239255,98.8825757 38.7446036,99.1126531 C42.0652816,99.3427306 45.3446002,98.2901059 47.8605158,96.1865472 C48.3119066,95.812777 48.7292665,95.4023736 49.1080146,94.9598415 C51.1252774,92.7377575 52.3967274,89.977755 52.7545496,87.0441186 C52.8025457,86.6133121 52.8025457,86.1787834 52.7545496,85.7479769 C52.6882367,83.0022669 52.0859555,80.2932335 50.9792628,77.7628178 C49.5570533,74.8896605 47.6429933,72.2683647 45.3175374,70.0091125 L45.3895084,70.0091125 Z M115.248291,77.5082185 C113.772297,74.7363806 111.853615,72.2057585 109.562576,70.0091125 C108.459019,68.9212792 105.22032,65.6114886 105.22032,65.6114886 C104.404648,64.8245454 103.588975,63.968166 102.821284,63.0886413 C102.182832,62.3731442 101.62025,61.5977628 101.141958,60.7741023 C100.596618,59.937268 100.275129,58.9829126 100.206334,57.9966557 C100.152232,56.8551669 100.480273,55.7271765 101.141958,54.7794467 C101.720857,54.0377888 102.626649,53.6008443 103.588975,53.5990319 C104.874566,53.5316189 106.076188,54.216244 106.635751,55.334936 C106.899141,55.9460383 107.123471,56.5721369 107.307481,57.2097125 C107.83783,59.1595223 109.680566,60.5072335 111.769689,60.4732123 C113.120086,60.4349905 114.379828,59.80858 115.195626,58.7696544 C116.011424,57.7307287 116.295433,56.3911615 115.968002,55.1266275 C115.316289,52.7575757 114.137414,50.5539538 112.51339,48.6690641 C110.263177,46.3598536 107.087783,45.1023627 103.804889,45.2204011 C100.171309,45.0230224 96.6413427,46.4278475 94.2087438,49.0393902 C91.9233354,51.76534 90.7160015,55.1859436 90.8021123,58.6910174 C91.3618875,64.1789744 93.9913788,69.2774383 98.1911439,73.018013 C99.4146524,74.1752825 102.797293,77.8785447 102.797293,77.8785447 C104.093766,79.1470858 105.258822,80.5346709 106.275896,82.0215693 C106.994531,83.1410575 107.376595,84.4311837 107.379453,85.7479769 C107.379453,88.9420406 106.179934,90.3770547 103.780898,90.3770546 C103.041688,90.3637175 102.323379,90.1380865 101.717727,89.7289837 C101.169998,89.3013537 100.77554,88.7183607 100.59018,88.0625157 C100.504218,87.8627989 100.44769,87.6524447 100.422248,87.4375903 C100.089699,85.8864491 98.9054588,84.6344641 97.3347333,84.1734539 C95.7640079,83.7124437 94.0577211,84.1160547 92.8861554,85.2257362 C91.7145896,86.3354176 91.2649029,87.9738974 91.7137461,89.4975298 C92.3630218,91.4993835 93.3786526,93.3728738 94.7125413,95.0292777 C96.8660775,97.4451249 99.9262621,98.9365101 103.219697,99.1752519 C106.513132,99.4139936 109.769951,98.3805293 112.273486,96.3022741 C112.735,95.907045 113.167845,95.4817128 113.568966,95.0292777 C115.548775,92.6098323 116.7051,89.6591574 116.879636,86.5812108 C116.927567,86.165877 116.927567,85.7466936 116.879636,85.3313599 C116.973363,82.6293413 116.389012,79.9454774 115.17632,77.5082185 L115.248291,77.5082185 Z" id="path-10"></path>
        <filter x="-22.8%" y="-28.6%" width="145.6%" height="175.8%" filterUnits="objectBoundingBox" id="filter-11">
            <feOffset dx="0" dy="5" in="SourceAlpha" result="shadowOffsetOuter1"></feOffset>
            <feGaussianBlur stdDeviation="6" in="shadowOffsetOuter1" result="shadowBlurOuter1"></feGaussianBlur>
            <feColorMatrix values="0 0 0 0 1   0 0 0 0 0.250228659   0 0 0 0 0.447338563  0 0 0 1 0" type="matrix" in="shadowBlurOuter1"></feColorMatrix>
        </filter>
    </defs>
    <g id="页面-1" stroke="none" stroke-width="1" fill="none" fill-rule="evenodd">
        <g id="7.13.呼救位置图标" transform="translate(-219, -474)">
            <g id="呼救位置" transform="translate(207, 462)">
                <g id="SOS" transform="translate(12, 12)" filter="url(#filter-1)">
                    <g id="椭圆形-+-椭圆形备份-2-蒙版">
                        <mask id="mask-4" fill="white">
                            <use xlink:href="#path-3"></use>
                        </mask>
                        <g id="蒙版">
                            <use fill="url(#linearGradient-2)" fill-rule="evenodd" xlink:href="#path-3"></use>
                            <use fill="black" fill-opacity="1" filter="url(#filter-5)" xlink:href="#path-3"></use>
                        </g>
                        <path d="M97.5861397,144.303797 L42.9908113,155.126582 L-20.7746228,139.268844 L-35.0136557,119.401513 L-5.995671,71.82239 C9.84432989,94.7458447 23.0080847,110.605552 33.4955935,119.401513 C43.9831022,128.197474 65.3466176,136.498235 97.5861397,144.303797 Z" id="路径-3" fill="#FF0000" opacity="0.291027618" filter="url(#filter-6)" mask="url(#mask-4)"></path>
                        <path d="M93.9293719,148.567367 C136.196046,148.508817 175.870961,118.909378 175.883353,109.953522 C175.895739,100.997665 139.132601,112.382287 96.8659271,112.440789 C54.599253,112.499291 38.2283245,77.3123773 38.2159273,86.2682337 C38.2035472,95.22409 51.6626979,148.62582 93.9293719,148.567367 Z" id="椭圆形" fill="#FFAD4B" filter="url(#filter-7)" mask="url(#mask-4)" transform="translate(107.0496, 116.688) rotate(-39) translate(-107.0496, -116.688)"></path>
                        <path d="M106.862735,28.0062701 C132.877336,31.7520901 159.67896,43.3234506 159.667995,34.3638948 C159.657023,25.404339 132.773076,-2.16716066 107.920603,-2.19765957 C83.0681294,-2.22809716 48.2498021,20.4556454 48.2607681,29.4152012 C48.2717392,38.374757 80.8481344,24.2604502 106.862735,28.0062701 Z" id="椭圆形备份-2" fill="url(#linearGradient-8)" filter="url(#filter-9)" mask="url(#mask-4)" transform="translate(103.9644, 17.7459) rotate(-330) translate(-103.9644, -17.7459)"></path>
                    </g>
                    <g id="形状" fill-rule="nonzero">
                        <use fill="black" fill-opacity="1" filter="url(#filter-11)" xlink:href="#path-10"></use>
                        <use fill="#FFFFFF" xlink:href="#path-10"></use>
                    </g>
                </g>
            </g>
        </g>
    </g>
</svg>