<?xml version="1.0" encoding="UTF-8"?>
<svg width="144px" height="144px" viewBox="0 0 144 144" version="1.1" xmlns="http://www.w3.org/2000/svg" xmlns:xlink="http://www.w3.org/1999/xlink">
    <title>首页-设备图片</title>
    <defs>
        <rect id="path-1" x="0" y="0" width="144" height="144" rx="21.6"></rect>
        <filter x="-36.7%" y="-19.8%" width="173.3%" height="156.9%" filterUnits="objectBoundingBox" id="filter-3">
            <feOffset dx="0" dy="9" in="SourceAlpha" result="shadowOffsetOuter1"></feOffset>
            <feGaussianBlur stdDeviation="9.5" in="shadowOffsetOuter1" result="shadowBlurOuter1"></feGaussianBlur>
            <feColorMatrix values="0 0 0 0 0   0 0 0 0 0   0 0 0 0 0  0 0 0 0.335473121 0" type="matrix" in="shadowBlurOuter1" result="shadowMatrixOuter1"></feColorMatrix>
            <feMerge>
                <feMergeNode in="shadowMatrixOuter1"></feMergeNode>
                <feMergeNode in="SourceGraphic"></feMergeNode>
            </feMerge>
        </filter>
        <linearGradient x1="50%" y1="100%" x2="50%" y2="3.30944232%" id="linearGradient-4">
            <stop stop-color="#FD7300" offset="0%"></stop>
            <stop stop-color="#D86200" offset="2.47057206%"></stop>
            <stop stop-color="#F77304" offset="7.6440077%"></stop>
            <stop stop-color="#FF9A45" offset="75.3092248%"></stop>
            <stop stop-color="#FF881C" offset="80.2093337%"></stop>
            <stop stop-color="#FFA137" offset="84.0415587%"></stop>
            <stop stop-color="#FFA339" offset="100%"></stop>
        </linearGradient>
        <path d="M78,0 C84.627417,-2.99379359e-15 90,5.372583 90,12 L90,109.303633 C90,115.93105 84.627417,121.303633 78,121.303633 L12,121.303633 C5.372583,121.303633 -2.74108918e-15,115.93105 0,109.303633 L0,12 C-8.11624501e-16,5.372583 5.372583,-2.33527693e-15 12,0 L78,0 Z M79.5,8.98545429 L10.5,8.98545429 C8.84314575,8.98545429 7.5,10.3286 7.5,11.9854543 L7.5,22.4563629 C7.5,24.9416442 9.51471863,26.9563629 12,26.9563629 L78,26.9563629 C80.4852814,26.9563629 82.5,24.9416442 82.5,22.4563629 L82.5,11.9854543 C82.5,10.3286 81.1568542,8.98545429 79.5,8.98545429 Z" id="path-5"></path>
        <linearGradient x1="5.27549077%" y1="50%" x2="96.0413382%" y2="50%" id="linearGradient-7">
            <stop stop-color="#D76200" offset="0%"></stop>
            <stop stop-color="#FF811F" offset="28.2353781%"></stop>
            <stop stop-color="#FF7B17" offset="75.2876434%"></stop>
            <stop stop-color="#D96200" offset="100%"></stop>
        </linearGradient>
        <filter x="-11.5%" y="-42.9%" width="123.1%" height="185.9%" filterUnits="objectBoundingBox" id="filter-8">
            <feGaussianBlur stdDeviation="3" in="SourceGraphic"></feGaussianBlur>
        </filter>
        <linearGradient x1="51.2366457%" y1="19.0253191%" x2="50%" y2="89.9044268%" id="linearGradient-9">
            <stop stop-color="#E46800" offset="0%"></stop>
            <stop stop-color="#D75900" offset="100%"></stop>
        </linearGradient>
        <linearGradient x1="51.2366457%" y1="19.0253191%" x2="50%" y2="89.9044268%" id="linearGradient-10">
            <stop stop-color="#E17418" offset="0%"></stop>
            <stop stop-color="#FF841D" offset="100%"></stop>
        </linearGradient>
        <rect id="path-11" x="33" y="26.9563629" width="24" height="5.99030286"></rect>
        <filter x="-10.4%" y="-41.7%" width="120.8%" height="183.5%" filterUnits="objectBoundingBox" id="filter-12">
            <feGaussianBlur stdDeviation="2.5" in="SourceAlpha" result="shadowBlurInner1"></feGaussianBlur>
            <feOffset dx="0" dy="0" in="shadowBlurInner1" result="shadowOffsetInner1"></feOffset>
            <feComposite in="shadowOffsetInner1" in2="SourceAlpha" operator="arithmetic" k2="-1" k3="1" result="shadowInnerInner1"></feComposite>
            <feColorMatrix values="0 0 0 0 0.582116168   0 0 0 0 0.262629155   0 0 0 0 0  0 0 0 1 0" type="matrix" in="shadowInnerInner1"></feColorMatrix>
        </filter>
        <linearGradient x1="84.9135951%" y1="48.6248337%" x2="100%" y2="50.7294236%" id="linearGradient-13">
            <stop stop-color="#FFFFFF" stop-opacity="0" offset="0%"></stop>
            <stop stop-color="#FFFFFF" offset="100%"></stop>
        </linearGradient>
        <filter x="-5.5%" y="-17.7%" width="110.9%" height="135.4%" filterUnits="objectBoundingBox" id="filter-14">
            <feGaussianBlur stdDeviation="1.5" in="SourceGraphic"></feGaussianBlur>
        </filter>
        <linearGradient x1="50%" y1="0%" x2="50%" y2="100%" id="linearGradient-15">
            <stop stop-color="#18222F" offset="0%"></stop>
            <stop stop-color="#3C4E65" stop-opacity="0.922230114" offset="4.68706038%"></stop>
            <stop stop-color="#394B62" offset="25.7600815%"></stop>
            <stop stop-color="#3B4D63" offset="46.653848%"></stop>
            <stop stop-color="#141D29" offset="100%"></stop>
        </linearGradient>
        <rect id="path-16" x="6" y="34.4442414" width="78" height="82.3666643" rx="6"></rect>
        <filter x="-5.1%" y="-4.9%" width="110.3%" height="109.7%" filterUnits="objectBoundingBox" id="filter-17">
            <feGaussianBlur stdDeviation="2.5" in="SourceAlpha" result="shadowBlurInner1"></feGaussianBlur>
            <feOffset dx="1" dy="1" in="shadowBlurInner1" result="shadowOffsetInner1"></feOffset>
            <feComposite in="shadowOffsetInner1" in2="SourceAlpha" operator="arithmetic" k2="-1" k3="1" result="shadowInnerInner1"></feComposite>
            <feColorMatrix values="0 0 0 0 0.100099051   0 0 0 0 0.165508867   0 0 0 0 0.248131793  0 0 0 1 0" type="matrix" in="shadowInnerInner1" result="shadowMatrixInner1"></feColorMatrix>
            <feGaussianBlur stdDeviation="2.5" in="SourceAlpha" result="shadowBlurInner2"></feGaussianBlur>
            <feOffset dx="-3" dy="-1" in="shadowBlurInner2" result="shadowOffsetInner2"></feOffset>
            <feComposite in="shadowOffsetInner2" in2="SourceAlpha" operator="arithmetic" k2="-1" k3="1" result="shadowInnerInner2"></feComposite>
            <feColorMatrix values="0 0 0 0 0.148810965   0 0 0 0 0.240620406   0 0 0 0 0.356912364  0 0 0 1 0" type="matrix" in="shadowInnerInner2" result="shadowMatrixInner2"></feColorMatrix>
            <feMerge>
                <feMergeNode in="shadowMatrixInner1"></feMergeNode>
                <feMergeNode in="shadowMatrixInner2"></feMergeNode>
            </feMerge>
        </filter>
        <filter x="-12.5%" y="-11.8%" width="125.0%" height="123.6%" filterUnits="objectBoundingBox" id="filter-18">
            <feGaussianBlur stdDeviation="3" in="SourceGraphic"></feGaussianBlur>
        </filter>
        <linearGradient x1="50%" y1="0%" x2="50%" y2="106.412167%" id="linearGradient-19">
            <stop stop-color="#394F6B" offset="0%"></stop>
            <stop stop-color="#4D6685" offset="37.0323433%"></stop>
            <stop stop-color="#3B4D63" offset="86.6581586%"></stop>
            <stop stop-color="#24364D" offset="100%"></stop>
        </linearGradient>
        <linearGradient x1="50%" y1="0%" x2="50%" y2="50%" id="linearGradient-20">
            <stop stop-color="#DA6F00" offset="0%"></stop>
            <stop stop-color="#FFA446" offset="100%"></stop>
        </linearGradient>
        <rect id="path-21" x="33" y="29.9515143" width="24" height="5.99030286"></rect>
        <filter x="-8.3%" y="-33.4%" width="116.7%" height="166.8%" filterUnits="objectBoundingBox" id="filter-22">
            <feGaussianBlur stdDeviation="1.5" in="SourceAlpha" result="shadowBlurInner1"></feGaussianBlur>
            <feOffset dx="1" dy="1" in="shadowBlurInner1" result="shadowOffsetInner1"></feOffset>
            <feComposite in="shadowOffsetInner1" in2="SourceAlpha" operator="arithmetic" k2="-1" k3="1" result="shadowInnerInner1"></feComposite>
            <feColorMatrix values="0 0 0 0 1   0 0 0 0 0.7231007   0 0 0 0 0.488395579  0 0 0 1 0" type="matrix" in="shadowInnerInner1"></feColorMatrix>
        </filter>
        <linearGradient x1="47.8919482%" y1="88.4830587%" x2="50.4477373%" y2="-2.91433544e-14%" id="linearGradient-23">
            <stop stop-color="#FF9534" offset="0%"></stop>
            <stop stop-color="#FA8320" offset="100%"></stop>
            <stop stop-color="#FA8320" offset="100%"></stop>
        </linearGradient>
        <linearGradient x1="48.0913511%" y1="84.8190215%" x2="50.4477373%" y2="-2.91433544e-14%" id="linearGradient-24">
            <stop stop-color="#FFA24D" offset="0%"></stop>
            <stop stop-color="#FA8320" offset="100%"></stop>
            <stop stop-color="#FA8320" offset="100%"></stop>
        </linearGradient>
        <linearGradient x1="71.7005493%" y1="81.8737318%" x2="18.5536606%" y2="11.5348802%" id="linearGradient-25">
            <stop stop-color="#FFFFFF" stop-opacity="0.6" offset="0%"></stop>
            <stop stop-color="#FFFFFF" offset="100%"></stop>
        </linearGradient>
    </defs>
    <g id="页面-1" stroke="none" stroke-width="1" fill="none" fill-rule="evenodd">
        <g id="7.4.呼救通知-点击设备图标" transform="translate(-84, -513)">
            <g id="AED设备" transform="translate(48, 465)">
                <g id="首页-设备图片" transform="translate(36, 48)">
                    <rect id="矩形" fill-opacity="0" fill="#FFFFFF" x="0" y="0" width="144" height="143.767269"></rect>
                    <g id="编组-6备份-2">
                        <mask id="mask-2" fill="white">
                            <use xlink:href="#path-1"></use>
                        </mask>
                        <use id="蒙版" fill="#F2F2F2" xlink:href="#path-1"></use>
                        <g id="编组-24" filter="url(#filter-3)" mask="url(#mask-2)">
                            <g transform="translate(27, 11.9806)">
                                <g id="矩形" stroke-width="1" fill="none" fill-rule="evenodd">
                                    <mask id="mask-6" fill="white">
                                        <use xlink:href="#path-5"></use>
                                    </mask>
                                    <use id="蒙版" fill="url(#linearGradient-4)" xlink:href="#path-5"></use>
                                    <rect stroke="#979797" stroke-width="1.5" fill="url(#linearGradient-7)" mask="url(#mask-6)" x="3.75" y="107.077876" width="81" height="17.9684843"></rect>
                                    <rect fill="#B85500" filter="url(#filter-8)" mask="url(#mask-6)" x="6" y="5.99030286" width="78" height="20.96606"></rect>
                                    <polygon id="路径-19" fill="url(#linearGradient-9)" mask="url(#mask-6)" points="90 88.3569672 90 121.303633 83.2451306 120.468992 83.2451306 102.710139"></polygon>
                                    <polygon id="路径-19备份" fill="url(#linearGradient-10)" mask="url(#mask-6)" transform="translate(3.3774, 106.1445) scale(-1, 1) translate(-3.3774, -106.1445)" points="6.75486938 89.6711681 6.75486938 122.617834 -2.37840429e-12 121.783193 -2.37840429e-12 104.02434"></polygon>
                                    <g mask="url(#mask-6)">
                                        <use fill="#FF8D13" fill-rule="evenodd" xlink:href="#path-11"></use>
                                        <use fill="black" fill-opacity="1" filter="url(#filter-12)" xlink:href="#path-11"></use>
                                    </g>
                                    <rect stroke="url(#linearGradient-13)" stroke-width="1.5" filter="url(#filter-14)" mask="url(#mask-6)" x="5.25" y="5.24272714" width="81" height="23.9587872" rx="7.5"></rect>
                                </g>
                                <g id="矩形备份-20" fill="none">
                                    <use fill="url(#linearGradient-15)" fill-rule="evenodd" xlink:href="#path-16"></use>
                                    <use fill="black" fill-opacity="1" filter="url(#filter-17)" xlink:href="#path-16"></use>
                                </g>
                                <path d="M74.3877551,38.9369686 C77.9548465,38.9369686 80.831389,41.7961501 80.9928509,45.3466342 L81,45.6616511 L81,115.31333 L78.0918367,115.31333 L78.0918367,45.6616511 C78.0918367,44.4124654 77.193649,43.4175064 76.0853738,43.3108109 L75.8877551,43.3013321 L14.1122449,43.3013321 C12.9816346,43.3013321 12.0206351,44.2268919 11.917347,45.4439747 L11.9081633,45.6616511 L11.9081633,115.31333 L9,115.31333 L9,45.6616511 C9,42.0723774 11.7746255,39.1106453 15.2993451,38.9443335 L15.6122449,38.9369686 L74.3877551,38.9369686 Z" id="路径" fill-opacity="0.327961101" fill="#FFFFFF" fill-rule="nonzero" filter="url(#filter-18)"></path>
                                <path d="M33,31.44909 L57,31.44909 C57.8284271,31.44909 58.5,32.1206629 58.5,32.94909 L58.5,40.4296957 C58.5,42.08655 57.1568542,43.4296957 55.5,43.4296957 L34.5,43.4296957 C32.8431458,43.4296957 31.5,42.08655 31.5,40.4296957 L31.5,32.94909 C31.5,32.1206629 32.1715729,31.44909 33,31.44909 Z" id="矩形" fill="url(#linearGradient-19)" fill-rule="evenodd"></path>
                                <g id="矩形备份-21" fill="none">
                                    <use fill="url(#linearGradient-20)" fill-rule="evenodd" xlink:href="#path-21"></use>
                                    <use fill="black" fill-opacity="1" filter="url(#filter-22)" xlink:href="#path-21"></use>
                                </g>
                                <path d="M82.1706821,120.468992 C82.1706821,118.030268 82.1706821,116.311714 82.1706821,115.31333 C82.1706821,108.535084 81.8686434,104.29627 82.6947928,102.376555 C83.924189,99.5198203 84.359258,94.8466242 84,88.3569672 L90,88.3569672 C89.4818504,93.2558236 88.3381159,97.3297562 86.5687965,100.578765 C85.9016583,101.803834 84,104.161463 84,106.854372 C84,109.412435 84,113.697873 84,119.710686 L82.1706821,120.468992 Z" id="路径-6" fill="url(#linearGradient-23)" fill-rule="evenodd"></path>
                                <path d="M0.0538812834,120.468992 C0.0538812834,118.030268 0.0538812834,116.311714 0.0538812834,115.31333 C0.0538812834,108.535084 -0.248157417,104.29627 0.577992009,102.376555 C1.80738816,99.5198203 2.24245721,94.8466242 1.88319919,88.3569672 L7.88319919,88.3569672 C7.36504963,93.2558236 6.22131512,97.3297562 4.45199567,100.578765 C3.78485753,101.803834 1.88319919,104.161463 1.88319919,106.854372 C1.88319919,109.412435 1.88319919,113.697873 1.88319919,119.710686 L0.0538812834,120.468992 Z" id="路径-6备份" fill="url(#linearGradient-24)" fill-rule="evenodd" transform="translate(3.9416, 104.413) scale(-1, 1) translate(-3.9416, -104.413)"></path>
                                <path d="M36.2543783,59.9030286 C40.0688153,59.9030286 43.3817165,61.8468149 45.0002063,64.6758818 C46.4568659,62.1293642 49.286551,60.3001253 52.6198912,59.9601405 L47.720898,69.3979424 L55.503893,71.6209476 L49.753,76.9180286 L47.5643769,75.507431 L47.8995169,80.0001582 L52.3963571,78.622725 L50.482,77.3880286 L58.3676215,70.5786477 L50.9138995,68.3602203 L55.8759228,60.1418137 C60.3767748,61.1877955 63,65.5001767 63,69.687666 C63,80.5877799 47.653093,90.0727332 45.7076653,91.2309716 L45.5971418,91.296362 C45.5672857,91.3139017 45.5445234,91.327158 45.5291812,91.3360526 C45.3655786,91.431213 45.1832019,91.4785873 45,91.4785873 C44.8167981,91.4785873 44.6346277,91.431213 44.4708188,91.3360526 C44.4554766,91.327158 44.4327143,91.3139017 44.4028582,91.296362 L44.2923347,91.2309716 C42.346907,90.0727332 27,80.5877799 27,69.687666 C27,64.8777373 30.4612369,59.9030286 36.2543783,59.9030286 Z" id="形状结合" fill="url(#linearGradient-25)" fill-rule="evenodd"></path>
                            </g>
                        </g>
                    </g>
                </g>
            </g>
        </g>
    </g>
</svg>