<?xml version="1.0" encoding="UTF-8"?>
<svg width="72px" height="72px" viewBox="0 0 72 72" version="1.1" xmlns="http://www.w3.org/2000/svg" xmlns:xlink="http://www.w3.org/1999/xlink">
    <title>delate_wihte_icon</title>
    <g id="页面-1" stroke="none" stroke-width="1" fill="none" fill-rule="evenodd">
        <g id="0.0地图图标标注" transform="translate(-1716, -2503)" fill="#FFFFFF">
            <g id="删除图片" transform="translate(1716, 2503)">
                <rect id="矩形" fill-opacity="0" x="0" y="0" width="72" height="72"></rect>
                <path d="M63.2857143,17.6785714 C64.9425685,17.6785714 66.2857143,19.0217172 66.2857143,20.6785714 C66.2857143,22.3354257 64.9425685,23.6785714 63.2857143,23.6785714 L58.3809034,23.6787144 C58.4122212,23.8524976 58.4285714,24.0314823 58.4285714,24.2142857 L58.4285714,53.4971429 C58.4285714,58.9426705 54.0140991,63.3571429 48.5685714,63.3571429 L21.4314286,63.3571429 C15.9859009,63.3571429 11.5714286,58.9426705 11.5714286,53.4971429 L11.5714286,24.2142857 C11.5714286,24.0314823 11.5877788,23.8524976 11.6190966,23.6787144 L6.71428571,23.6785714 C5.05743146,23.6785714 3.71428571,22.3354257 3.71428571,20.6785714 C3.71428571,19.0217172 5.05743146,17.6785714 6.71428571,17.6785714 L63.2857143,17.6785714 Z M52.4762394,23.6787144 L17.5237606,23.6787144 C17.5550784,23.8524976 17.5714286,24.0314823 17.5714286,24.2142857 L17.5714286,53.4971429 C17.5714286,55.628962 19.2996094,57.3571429 21.4314286,57.3571429 L48.5685714,57.3571429 C50.7003906,57.3571429 52.4285714,55.628962 52.4285714,53.4971429 L52.4285714,24.2142857 C52.4285714,24.0314823 52.4449216,23.8524976 52.4762394,23.6787144 Z M42.0714286,31.4285714 C43.7282828,31.4285714 45.0714286,32.7717172 45.0714286,34.4285714 L45.0714286,45.4285714 C45.0714286,47.0854257 43.7282828,48.4285714 42.0714286,48.4285714 C40.4145743,48.4285714 39.0714286,47.0854257 39.0714286,45.4285714 L39.0714286,34.4285714 C39.0714286,32.7717172 40.4145743,31.4285714 42.0714286,31.4285714 Z M27.9285714,31.4285714 C29.5854257,31.4285714 30.9285714,32.7717172 30.9285714,34.4285714 L30.9285714,45.4285714 C30.9285714,47.0854257 29.5854257,48.4285714 27.9285714,48.4285714 C26.2717172,48.4285714 24.9285714,47.0854257 24.9285714,45.4285714 L24.9285714,34.4285714 C24.9285714,32.7717172 26.2717172,31.4285714 27.9285714,31.4285714 Z M45.6071429,14.25 C47.2639971,14.25 48.6071429,12.9068542 48.6071429,11.25 C48.6071429,9.59314575 47.2639971,8.25 45.6071429,8.25 L34.8787925,8.25 C33.5892505,8.25 32.3156122,7.96529498 31.1488105,7.41621183 L26.8488197,5.39268675 C25.349667,4.68720312 23.5624561,5.33059904 22.8569725,6.82975175 C22.1514888,8.32890446 22.7948848,10.1161153 24.2940375,10.821599 L28.5940283,12.845124 C30.5600092,13.7702915 32.7060026,14.25 34.8787925,14.25 L45.6071429,14.25 Z" id="形状结合" fill-rule="nonzero"></path>
            </g>
        </g>
    </g>
</svg>