<?xml version="1.0" encoding="UTF-8"?>
<svg width="906px" height="134px" viewBox="0 0 906 134" version="1.1" xmlns="http://www.w3.org/2000/svg" xmlns:xlink="http://www.w3.org/1999/xlink">
    <title>患者呼救标题展开_bg_img</title>
    <g id="页面-1" stroke="none" stroke-width="1" fill="none" fill-rule="evenodd">
        <g id="0.0地图图标标注" transform="translate(-2284, -1031)">
            <g id="患者呼救标题展开_bg_img" transform="translate(2284, 1031)">
                <path d="M882,0 C895.254834,0 906,10.745166 906,24 L906,134 C906,120.745166 895.254834,110 882,110 L24,110 C10.745166,110 0,120.745166 0,134 L0,24 C0,10.745166 10.745166,0 24,0 L882,0 Z" id="路径" fill-opacity="0.9" fill="#24223B"></path>
                <path d="M882,0 C895.254834,0 906,10.745166 906,24 L906,134 C906,120.745166 895.254834,110 882,110 L24,110 C10.745166,110 0,120.745166 0,134 L0,24 C0,10.745166 10.745166,0 24,0 L882,0 Z" id="路径" fill="#FFFFFF" opacity="0.100000001"></path>
            </g>
        </g>
    </g>
</svg>