<?xml version="1.0" encoding="UTF-8"?>
<svg width="48px" height="48.08px" viewBox="0 0 48 48.08" version="1.1" xmlns="http://www.w3.org/2000/svg" xmlns:xlink="http://www.w3.org/1999/xlink">
    <title>距离</title>
    <g id="页面-1" stroke="none" stroke-width="1" fill="none" fill-rule="evenodd">
        <g id="0.0地图图标标注" transform="translate(-742, -1487.08)">
            <g id="附近呼救信息" transform="translate(222, 1031)">
                <g id="呼救信息-2" transform="translate(0, 108)">
                    <g id="距离" transform="translate(0, 300)">
                        <g transform="translate(520, 44.12)">
                            <g transform="translate(0, 3.96)">
                                <rect id="矩形" x="0" y="0" width="48" height="48.08"></rect>
                                <path d="M39.8951532,10.6924038 L29.9165941,40.6779741 C29.5617779,41.7441967 28.4112365,42.3204261 27.346788,41.9650186 C26.8027201,41.7833604 26.360646,41.3798295 26.1296763,40.8540233 L20.6680518,28.4205524 C20.4633895,27.9546356 20.0918379,27.5824648 19.6266963,27.3774614 L7.21391339,21.9067342 C6.18690497,21.4540973 5.72067426,20.2532202 6.17255797,19.2245001 C6.40352774,18.6986939 6.84560177,18.295163 7.38966971,18.1135048 L37.3253472,8.11831472 C38.3897957,7.76290718 39.5403371,8.33913665 39.8951532,9.40535927 C40.0341606,9.82307642 40.0341606,10.2746867 39.8951532,10.6924038 Z" id="三角形" fill="#FF7400"></path>
                            </g>
                        </g>
                    </g>
                </g>
            </g>
        </g>
    </g>
</svg>