<?xml version="1.0" encoding="UTF-8"?>
<svg width="48px" height="48px" viewBox="0 0 48 48" version="1.1" xmlns="http://www.w3.org/2000/svg" xmlns:xlink="http://www.w3.org/1999/xlink">
    <title>delate_picture_icon</title>
    <g id="页面-1" stroke="none" stroke-width="1" fill="none" fill-rule="evenodd">
        <g id="0.0地图图标标注" transform="translate(-2722, -2515)">
            <g id="delate_picture_icon" transform="translate(2722, 2515)">
                <g transform="translate(-0, -0)">
                    <path d="M0,0 L24,0 C37.254834,-2.4348735e-15 48,10.745166 48,24 L48,48 L48,48 L24,48 C10.745166,48 1.623249e-15,37.254834 0,24 L0,0 L0,0 Z" id="矩形" fill-opacity="0.795154065" fill="#091F40" transform="translate(24, 24) scale(-1, -1) rotate(-180) translate(-24, -24)"></path>
                    <path d="M13.9237284,13.9237284 C14.802408,13.0450487 16.2270292,13.0450487 17.1057089,13.9237284 L23.9997186,20.8177186 L30.8942911,13.9237284 C31.7311289,13.0868906 33.0631517,13.0470412 33.94715,13.8041801 L34.0762716,13.9237284 C34.9549513,14.802408 34.9549513,16.2270292 34.0762716,17.1057089 L27.1807186,23.9997186 L34.0762716,30.8942911 C34.9131094,31.7311289 34.9529588,33.0631517 34.1958199,33.94715 L34.0762716,34.0762716 C33.197592,34.9549513 31.7729708,34.9549513 30.8942911,34.0762716 L23.9997186,27.1807186 L17.1057089,34.0762716 C16.2688711,34.9131094 14.9368483,34.9529588 14.05285,34.1958199 L13.9237284,34.0762716 C13.0450487,33.197592 13.0450487,31.7729708 13.9237284,30.8942911 L20.8177186,23.9997186 L13.9237284,17.1057089 C13.0868906,16.2688711 13.0470412,14.9368483 13.8041801,14.05285 Z" id="形状结合" fill="#FFFFFF" fill-rule="nonzero"></path>
                </g>
            </g>
        </g>
    </g>
</svg>