<?xml version="1.0" encoding="UTF-8"?>
<svg width="48px" height="49px" viewBox="0 0 48 49" version="1.1" xmlns="http://www.w3.org/2000/svg" xmlns:xlink="http://www.w3.org/1999/xlink">
    <title>距离备份 2</title>
    <g id="页面-1" stroke="none" stroke-width="1" fill="none" fill-rule="evenodd">
        <g id="7.24.已响应-呼救时间已到上限" transform="translate(-698, -1405)">
            <g id="已响应卡片" transform="translate(0, 1334)">
                <g id="距离" transform="translate(698, 71)">
                    <rect id="矩形" x="0" y="0" width="48" height="49"></rect>
                    <path d="M39.8951532,10.8970006 L29.9165941,41.456338 C29.5617779,42.5429625 28.4112365,43.130218 27.346788,42.7680098 C26.8027201,42.5828756 26.360646,42.1716232 26.1296763,41.6357559 L20.6680518,28.9643733 C20.4633895,28.4895413 20.0918379,28.110249 19.6266963,27.9013229 L7.21391339,22.3259146 C6.18690497,21.8646166 5.72067426,20.640761 6.17255797,19.5923566 C6.40352774,19.0564892 6.84560177,18.6452369 7.38966971,18.4601027 L37.3253472,8.27365685 C38.3897957,7.91144867 39.5403371,8.49870416 39.8951532,9.5853287 C40.0341606,10.0110388 40.0341606,10.4712905 39.8951532,10.8970006 Z" id="三角形" fill="#FF7400"></path>
                </g>
            </g>
        </g>
    </g>
</svg>