<?xml version="1.0" encoding="UTF-8"?>
<svg width="124px" height="124px" viewBox="0 0 124 124" version="1.1" xmlns="http://www.w3.org/2000/svg" xmlns:xlink="http://www.w3.org/1999/xlink">
    <title>编组 26</title>
    <defs>
        <rect id="path-1" x="0" y="0" width="124" height="124" rx="62"></rect>
        <filter x="-32.7%" y="-27.8%" width="165.3%" height="165.3%" filterUnits="objectBoundingBox" id="filter-2">
            <feOffset dx="0" dy="6" in="SourceAlpha" result="shadowOffsetOuter1"></feOffset>
            <feGaussianBlur stdDeviation="12.5" in="shadowOffsetOuter1" result="shadowBlurOuter1"></feGaussianBlur>
            <feColorMatrix values="0 0 0 0 0.501960784   0 0 0 0 0.501960784   0 0 0 0 0.501960784  0 0 0 0.3 0" type="matrix" in="shadowBlurOuter1"></feColorMatrix>
        </filter>
    </defs>
    <g id="页面-1" stroke="none" stroke-width="1" fill="none" fill-rule="evenodd">
        <g id="5.13.搜索位置未选" transform="translate(-998, -279)">
            <g id="icon/指南针" transform="translate(998, 279)">
                <g id="矩形">
                    <use fill="black" fill-opacity="1" filter="url(#filter-2)" xlink:href="#path-1"></use>
                    <use fill="#FFFFFF" fill-rule="evenodd" xlink:href="#path-1"></use>
                </g>
                <path d="M62.5274311,108.400019 L70.7947026,117.848329 C71.0495856,118.139624 71.0200679,118.582389 70.7287731,118.837272 C70.6010159,118.949059 70.4370264,119.010676 70.2672667,119.010676 L53.7327237,119.010676 C53.3456604,119.010676 53.0318836,118.696899 53.0318836,118.309836 C53.0318836,118.140076 53.0935003,117.976086 53.2052878,117.848329 L61.4725593,108.400019 C61.7274423,108.108724 62.1702068,108.079207 62.4615016,108.334089 L62.5274311,108.400019 L62.5274311,108.400019 Z" id="三角形" fill="#777777" transform="translate(62, 113.5857) rotate(-180) translate(-62, -113.5857)"></path>
                <path d="M62.5274311,5.22866755 L70.7947026,14.6769779 C71.0495856,14.9682727 71.0200679,15.4110372 70.7287731,15.6659201 C70.6010159,15.7777077 70.4370264,15.8393243 70.2672667,15.8393243 L53.7327237,15.8393243 C53.3456604,15.8393243 53.0318836,15.5255475 53.0318836,15.1384843 C53.0318836,14.9687246 53.0935003,14.804735 53.2052878,14.6769779 L61.4725593,5.22866755 C61.7274423,4.93737276 62.1702068,4.90785512 62.4615016,5.16273806 L62.5274311,5.22866755 L62.5274311,5.22866755 Z" id="三角形备份" fill="#777777" transform="translate(62, 10.4143) scale(1, -1) rotate(-180) translate(-62, -10.4143)"></path>
                <path d="M114.319475,56.8143432 L122.586747,66.2626536 C122.841629,66.5539484 122.812112,66.9967129 122.520817,67.2515958 C122.39306,67.3633834 122.22907,67.425 122.059311,67.425 L105.524768,67.425 C105.137704,67.425 104.823928,67.1112232 104.823928,66.72416 C104.823928,66.5544003 104.885544,66.3904107 104.997332,66.2626536 L113.264603,56.8143432 C113.519486,56.5230485 113.962251,56.4935308 114.253546,56.7484138 L114.319475,56.8143432 L114.319475,56.8143432 Z" id="三角形备份-2" fill="#777777" transform="translate(113.792, 62) scale(1, -1) rotate(90) translate(-113.792, -62)"></path>
                <path d="M10.7353872,56.8143432 L19.0026587,66.2626536 C19.2575416,66.5539484 19.228024,66.9967129 18.9367292,67.2515958 C18.808972,67.3633834 18.6449825,67.425 18.4752228,67.425 L1.94067975,67.425 C1.55361649,67.425 1.23983971,67.1112232 1.23983971,66.72416 C1.23983971,66.5544003 1.30145634,66.3904107 1.41324387,66.2626536 L9.6805154,56.8143432 C9.93539834,56.5230485 10.3781629,56.4935308 10.6694577,56.7484138 L10.7353872,56.8143432 L10.7353872,56.8143432 Z" id="三角形备份-3" fill="#777777" transform="translate(10.208, 62) scale(-1, -1) rotate(90) translate(-10.208, -62)"></path>
                <g id="编组-25" transform="translate(49.2847, 31.4833)" fill-rule="nonzero">
                    <path d="M0,30.511974 L12.6596965,61.033489 L25.4306204,30.511974 L12.6596965,0 L0,30.511974 Z M16.65613,34.4405156 C14.4497094,36.6068195 10.8696837,36.6068195 8.66326304,34.4405156 C6.45684239,32.2742117 6.45684239,28.7592774 8.66326304,26.5929735 C10.8696837,24.4266695 14.4497094,24.4266695 16.65613,26.5929735 C18.8625507,28.7592774 18.8625507,32.2742117 16.65613,34.4405156 Z" id="形状" fill="#CDD3D5"></path>
                    <path d="M12.6596965,0 L25.4306204,30.5161527 L18.3109437,30.5164365 C18.3097832,29.0974286 17.7581787,27.678775 16.65613,26.5966154 C14.4497094,24.4300148 10.8696837,24.4300148 8.66326304,26.5966154 C7.5612144,27.678775 7.00960984,29.0974286 7.00844938,30.5164365 L0,30.5161527 L12.6596965,0 Z" id="形状备份" fill="#F9302B"></path>
                </g>
                <circle id="椭圆形" stroke="#E4E4E4" stroke-width="4.65" cx="62" cy="62" r="37.975"></circle>
            </g>
        </g>
    </g>
</svg>