<?xml version="1.0" encoding="UTF-8"?>
<svg width="978px" height="252px" viewBox="0 0 978 252" version="1.1" xmlns="http://www.w3.org/2000/svg" xmlns:xlink="http://www.w3.org/1999/xlink">
    <title>首页-免责声明弹窗头图备份 2</title>
    <defs>
        <linearGradient x1="51.7182617%" y1="100%" x2="51.7182617%" y2="28.3247616%" id="linearGradient-1">
            <stop stop-color="#FFFFFF" offset="0%"></stop>
            <stop stop-color="#FFF1E6" offset="100%"></stop>
        </linearGradient>
        <path d="M24,0 L954,0 C967.254834,-2.4348735e-15 978,10.745166 978,24 L978,252 L978,252 L0,252 L0,24 C-1.623249e-15,10.745166 10.745166,2.4348735e-15 24,0 Z" id="path-2"></path>
        <linearGradient x1="86.5840374%" y1="53.6009394%" x2="26.0687844%" y2="48.9808714%" id="linearGradient-4">
            <stop stop-color="#FFDBDB" offset="0%"></stop>
            <stop stop-color="#FFB4B4" offset="100%"></stop>
        </linearGradient>
        <filter x="-43.2%" y="-130.4%" width="186.5%" height="360.8%" filterUnits="objectBoundingBox" id="filter-5">
            <feGaussianBlur stdDeviation="84.3103448" in="SourceGraphic"></feGaussianBlur>
        </filter>
        <linearGradient x1="22.2220185%" y1="-2.30197805e-13%" x2="57.8783443%" y2="100%" id="linearGradient-6">
            <stop stop-color="#FFE9D6" offset="0%"></stop>
            <stop stop-color="#FFFFFF" stop-opacity="0.651742788" offset="100%"></stop>
        </linearGradient>
        <linearGradient x1="20.8943382%" y1="1.81295906%" x2="91.7916982%" y2="76.1885634%" id="linearGradient-7">
            <stop stop-color="#FFFFFF" offset="0%"></stop>
            <stop stop-color="#FFFFFF" stop-opacity="0.651742788" offset="100%"></stop>
        </linearGradient>
        <linearGradient x1="51.7050509%" y1="82.6797754%" x2="72.9090075%" y2="76.8628839%" id="linearGradient-8">
            <stop stop-color="#FFF7F0" offset="0%"></stop>
            <stop stop-color="#FFECDD" offset="100%"></stop>
        </linearGradient>
        <filter x="-8.1%" y="0.0%" width="116.1%" height="100.0%" filterUnits="objectBoundingBox" id="filter-9">
            <feGaussianBlur stdDeviation="8.43103448 0" in="SourceGraphic"></feGaussianBlur>
        </filter>
    </defs>
    <g id="页面-1" stroke="none" stroke-width="1" fill="none" fill-rule="evenodd">
        <g id="0.2弹窗header对于背景插画" transform="translate(-1602, -387)">
            <g id="首页-免责声明弹窗头图备份-2" transform="translate(1602, 387)">
                <g id="bg">
                    <mask id="mask-3" fill="white">
                        <use xlink:href="#path-2"></use>
                    </mask>
                    <use id="蒙版" fill="url(#linearGradient-1)" xlink:href="#path-2"></use>
                    <path d="M795.208419,15.4614928 C968.507383,15.4614928 1047.77614,122.710531 1047.77614,78.8610585 C1047.77614,35.0115864 949.746846,-104.573333 776.447882,-104.573333 C603.148918,-104.573333 462.66235,-69.0263127 462.66235,-25.1768406 C462.66235,18.6726315 621.909454,15.4614928 795.208419,15.4614928 Z" id="椭圆形" fill="url(#linearGradient-4)" opacity="0.511858259" filter="url(#filter-5)" mask="url(#mask-3)"></path>
                    <g id="编组-50" mask="url(#mask-3)">
                        <g transform="translate(120, 22)">
                            <circle id="椭圆形" fill="url(#linearGradient-6)" cx="120" cy="120" r="120"></circle>
                            <path d="M134.861414,70.4226236 L134.861414,70.7536735 C130.354459,66.8896577 124.467389,64.8348993 118.420952,65.0154751 C112.321246,64.7954592 106.384534,66.9289722 101.942078,70.9375902 C97.5809893,75.4485901 95.321101,81.4627959 95.6808739,87.6004356 L95.6808739,127.694258 C95.2972865,133.808582 97.4983627,139.813635 101.788429,144.357104 C111.393127,151.817467 125.141479,151.817467 134.746177,144.357104 C139.192464,139.88974 141.501834,133.854919 141.122618,127.694258 L141.122618,87.2326023 C141.600085,81.0350516 139.326859,74.9319308 134.861414,70.4226236 L134.861414,70.4226236 Z M125.450402,87.085469 L125.450402,128.172441 C125.4925,130.156616 124.843818,132.097782 123.606612,133.68994 C122.262143,135.074954 120.376468,135.861798 118.401746,135.861798 C116.427024,135.861798 114.541349,135.074954 113.19688,133.68994 C111.941264,132.001484 111.343231,129.94507 111.506739,127.878175 L111.506739,87.085469 C111.422868,85.1413766 112.047523,83.2298492 113.273705,81.6783205 C114.572556,80.4203426 116.343104,79.7124113 118.190478,79.7124113 C120.037852,79.7124113 121.808401,80.4203426 123.107252,81.6783205 L123.721848,82.3404203 C124.691682,83.4598752 125.293206,84.8295106 125.450402,86.2762359 C125.488834,86.544725 125.488834,86.8169799 125.450402,87.085469 L125.450402,87.085469 Z M76.4756489,104.594465 C74.6702711,102.828859 71.3668139,99.0033809 69.5230238,97.2377754 C68.2554181,96.0607051 66.8725755,94.4790169 65.6817944,93.3755134 C64.6481005,92.3539464 63.7454294,91.2178858 62.9929339,89.9914362 C62.0803647,88.638594 61.5630628,87.0762857 61.4948543,85.467072 C61.4249419,83.6893116 61.9498036,81.9366368 62.9929339,80.4645231 C63.8711056,79.2556576 65.296934,78.5183594 66.8341632,78.4782171 C68.9297666,78.1904435 70.9976298,79.1514118 72.0582352,80.9059246 C72.6211242,81.9932743 73.0838276,83.125597 73.4410778,84.2900018 C74.3403047,87.2166193 77.2113496,89.1760653 80.3937029,89.0350665 C82.5622643,88.9829862 84.5857469,87.9801947 85.8824906,86.3149493 C87.1792344,84.6497039 87.6056012,82.5064611 87.0390298,80.5013067 C85.8924241,76.808177 83.9270795,73.3954734 81.2771858,70.4962088 C77.7039859,66.8073726 72.6215431,64.8041354 67.3719354,65.0154751 C61.6869937,64.8433485 56.2147753,67.0929856 52.429553,71.1583108 C48.7440506,75.4601309 46.8189283,80.8990768 47.0134195,86.4602252 C47.8836455,95.1051225 51.9741894,103.161265 58.5371077,109.155612 C60.5345469,111.105135 63.9916535,115.482366 65.9122681,117.468672 C67.9588754,119.509558 69.8220737,121.712111 71.4820508,124.052909 C72.6600863,125.83218 73.2615542,127.905647 73.210604,130.011827 C73.210604,135.087943 71.2899892,137.368517 67.4871723,137.368517 C66.3041921,137.379406 65.1479146,137.031782 64.1837149,136.375364 C63.2084863,135.709052 62.4709061,134.771594 62.0710387,133.690172 C61.8736041,133.134968 61.7069188,132.570169 61.571679,131.998134 C60.5109527,128.250028 56.4780757,126.035013 52.563996,127.05076 C48.6499162,128.066507 46.3368162,131.928372 47.3975424,135.676478 C48.4410888,138.767021 50.0257694,141.665165 52.0838423,144.247022 C55.5720176,148.106986 60.5192038,150.481166 65.8361248,150.846813 C71.1530459,151.21246 76.4037439,149.539592 80.4321154,146.196544 C81.1548622,145.602536 81.8231202,144.950309 82.4295546,144.247022 C85.6595055,140.715609 87.6952943,136.329318 88.2682232,131.667083 C88.3450724,130.98243 88.3450724,130.291862 88.2682232,129.60721 C88.1620461,125.243633 87.1977004,120.938344 85.4257135,116.91692 C83.1485353,112.3508 80.0838281,108.184946 76.3604122,104.594465 L76.4756489,104.594465 Z M188.330405,116.512302 C185.967109,112.107202 182.895001,108.08545 179.226691,104.594465 C177.459726,102.865643 172.274066,97.6056098 172.274066,97.6056098 C170.968048,96.3549726 169.66203,94.9939851 168.432837,93.5962141 C167.410576,92.4591216 166.509795,91.2268588 165.743976,89.9178692 C164.870801,88.5879433 164.356047,87.071249 164.245897,85.5038556 C164.15927,83.6897623 164.684514,81.8971211 165.743976,80.3909563 C166.670883,79.2122881 168.121197,78.5178809 169.66203,78.5150005 C171.720461,78.4078654 173.644443,79.4958953 174.540392,81.273759 C174.962119,82.2449438 175.321307,83.2399613 175.615936,84.2532182 C176.465107,87.3519231 179.415612,89.4937522 182.760622,89.4396845 C184.922818,89.3789411 186.93986,88.383428 188.24608,86.7323316 C189.5523,85.0812352 190.007041,82.9523489 189.482774,80.942708 C188.439279,77.1777295 186.551717,73.6756578 183.951404,70.6801261 C180.348462,67.0102494 175.264165,65.0118017 170.007741,65.1993923 C164.189817,64.8857114 158.537792,67.1183077 154.642823,71.2686612 C150.98353,75.6008343 149.050401,81.0369752 149.188277,86.607359 C150.084564,95.3290089 154.294788,103.431663 161.019264,109.376313 C162.978291,111.215486 168.394424,117.100837 168.394424,117.100837 C170.470278,119.116846 172.335714,121.322044 173.964207,123.685074 C175.114854,125.464204 175.726598,127.514516 175.731173,129.60721 C175.731173,134.683325 173.810558,136.963899 169.969328,136.963899 C168.785739,136.942703 167.635614,136.584123 166.665871,135.933963 C165.788872,135.254358 165.157283,134.327846 164.860493,133.285554 C164.722854,132.968157 164.632345,132.633855 164.591607,132.292401 C164.059145,129.827274 162.162993,127.837577 159.648018,127.104923 C157.133043,126.37227 154.401013,127.013703 152.525154,128.777247 C150.649295,130.54079 149.929277,133.144719 150.647945,135.566128 C151.687536,138.747543 153.313718,141.724958 155.449481,144.357372 C158.897627,148.19672 163.797458,150.56688 169.070758,150.946297 C174.344059,151.325713 179.558732,149.683296 183.567281,146.380462 C184.306236,145.75235 184.999287,145.076397 185.641544,144.357372 C188.811525,140.512306 190.662981,135.822992 190.942441,130.931414 C191.019186,130.271351 191.019186,129.60517 190.942441,128.945107 C191.092513,124.650967 190.156875,120.385678 188.215168,116.512302 L188.330405,116.512302 Z" id="形状" fill="url(#linearGradient-7)" opacity="0.800000012"></path>
                        </g>
                    </g>
                    <ellipse id="椭圆形" fill="url(#linearGradient-8)" filter="url(#filter-9)" mask="url(#mask-3)" cx="-45.5275862" cy="-36.2633333" rx="156.817241" ry="215.05"></ellipse>
                </g>
                <g id="header">
                    <polygon id="矩形" points="0 0 978 0 978 252 1.34336986e-14 252"></polygon>
                    <text id="呼救位置" font-family="PingFangSC-Semibold, PingFang SC" font-size="60" font-weight="500" fill="#823F1F">
                        <tspan x="369" y="160">呼救位置</tspan>
                    </text>
                </g>
            </g>
        </g>
    </g>
</svg>