<?xml version="1.0" encoding="UTF-8"?>
<svg width="978px" height="252px" viewBox="0 0 978 252" version="1.1" xmlns="http://www.w3.org/2000/svg" xmlns:xlink="http://www.w3.org/1999/xlink">
    <title>响应位置_bg_icon</title>
    <defs>
        <linearGradient x1="51.7182617%" y1="100%" x2="51.7182617%" y2="28.3247616%" id="linearGradient-1">
            <stop stop-color="#FFFFFF" offset="0%"></stop>
            <stop stop-color="#FFF1E6" offset="100%"></stop>
        </linearGradient>
        <path d="M24,0 L954,0 C967.254834,-2.4348735e-15 978,10.745166 978,24 L978,252 L978,252 L0,252 L0,24 C-1.623249e-15,10.745166 10.745166,2.4348735e-15 24,0 Z" id="path-2"></path>
        <linearGradient x1="86.5840374%" y1="53.6009394%" x2="26.0687844%" y2="48.9808714%" id="linearGradient-4">
            <stop stop-color="#FFDBDB" offset="0%"></stop>
            <stop stop-color="#FFB4B4" offset="100%"></stop>
        </linearGradient>
        <filter x="-43.2%" y="-130.4%" width="186.5%" height="360.8%" filterUnits="objectBoundingBox" id="filter-5">
            <feGaussianBlur stdDeviation="84.3103448" in="SourceGraphic"></feGaussianBlur>
        </filter>
        <linearGradient x1="22.2220185%" y1="-2.30197805e-13%" x2="57.8783443%" y2="100%" id="linearGradient-6">
            <stop stop-color="#FFE9D6" offset="0%"></stop>
            <stop stop-color="#FFFFFF" stop-opacity="0.651742788" offset="100%"></stop>
        </linearGradient>
        <linearGradient x1="-23.1261713%" y1="-41.8193844%" x2="78.0325829%" y2="97.6155885%" id="linearGradient-7">
            <stop stop-color="#FFFFFF" offset="0%"></stop>
            <stop stop-color="#FFFFFF" stop-opacity="0.609538899" offset="100%"></stop>
        </linearGradient>
        <linearGradient x1="51.7050509%" y1="82.6797754%" x2="72.9090075%" y2="76.8628839%" id="linearGradient-8">
            <stop stop-color="#FFF7F0" offset="0%"></stop>
            <stop stop-color="#FFECDD" offset="100%"></stop>
        </linearGradient>
        <filter x="-8.1%" y="0.0%" width="116.1%" height="100.0%" filterUnits="objectBoundingBox" id="filter-9">
            <feGaussianBlur stdDeviation="8.43103448 0" in="SourceGraphic"></feGaussianBlur>
        </filter>
    </defs>
    <g id="页面-1" stroke="none" stroke-width="1" fill="none" fill-rule="evenodd">
        <g id="0.2弹窗header对于背景插画" transform="translate(-1602, -1556)">
            <g id="bg" transform="translate(1602, 1556)">
                <mask id="mask-3" fill="white">
                    <use xlink:href="#path-2"></use>
                </mask>
                <use id="蒙版" fill="url(#linearGradient-1)" xlink:href="#path-2"></use>
                <path d="M795.208419,15.4614928 C968.507383,15.4614928 1047.77614,122.710531 1047.77614,78.8610585 C1047.77614,35.0115864 949.746846,-104.573333 776.447882,-104.573333 C603.148918,-104.573333 462.66235,-69.0263127 462.66235,-25.1768406 C462.66235,18.6726315 621.909454,15.4614928 795.208419,15.4614928 Z" id="椭圆形" fill="url(#linearGradient-4)" opacity="0.511858259" filter="url(#filter-5)" mask="url(#mask-3)"></path>
                <g id="编组-50" mask="url(#mask-3)">
                    <g transform="translate(120, 22)">
                        <circle id="椭圆形" fill="url(#linearGradient-6)" cx="120" cy="120" r="120"></circle>
                        <path d="M185.47116,88.4602388 C187.977146,89.098116 189.491856,91.6479346 188.85436,94.155418 L178.350106,135.472117 C177.718137,137.957859 176.378261,140.206445 174.493282,141.944657 L152.5538,162.176801 C151.819135,162.854293 151.432001,163.82883 151.501495,164.825774 L152.312429,176.459175 C152.439644,178.282991 151.065159,179.864676 149.242432,179.991967 L149.01209,180 L126.092464,180 C124.265303,180 122.784096,178.517908 122.784096,176.689655 L122.784096,151.41596 C122.784096,146.185864 124.846023,141.166894 128.520424,137.447143 C131.681731,134.253156 134.732173,130.939108 137.671752,127.505001 C141.56719,122.954229 145.255792,118.291669 148.737544,113.51731 L150.828003,110.601513 L151.282403,109.948907 C155.196764,104.447792 158.515557,102.987069 161.238783,105.56674 C163.995871,108.178488 164.417831,112.417455 162.504664,118.283641 C162.430801,118.536474 162.320276,118.77646 162.192111,119.006705 L156.220253,128.760935 C156.088528,128.97609 156.090474,129.247457 156.225273,129.460698 C156.420618,129.76972 156.82934,129.861779 157.138178,129.666316 L161.372115,126.986672 C163.932755,125.366051 165.860065,122.915295 166.832056,120.043844 L175.274439,95.1033869 C176.553954,91.3234464 179.953068,88.6635134 183.92776,88.3318412 C184.445783,88.2886142 184.967384,88.332007 185.47116,88.4602388 Z M54.7611678,88.3162851 L55.0722397,88.3318412 C59.0469317,88.6635134 62.4460456,91.3234464 63.7255612,95.1033869 L72.1679441,120.043844 C73.1399347,122.915295 75.0672451,125.366051 77.6278851,126.986672 L81.8618223,129.666316 C82.1706601,129.861779 82.5793816,129.76972 82.7747273,129.460698 C82.9095256,129.247457 82.9114723,128.97609 82.7797473,128.760935 L76.8078893,119.006705 C76.6797236,118.77646 76.5691994,118.536474 76.4953358,118.283641 C74.5821688,112.417455 75.0041293,108.178488 77.7612173,105.56674 C80.4844426,102.987069 83.8032359,104.447792 87.7175971,109.948907 L88.1719971,110.601513 L90.2624564,113.51731 C93.7442078,118.291669 97.4328103,122.954229 101.328248,127.505001 C104.267827,130.939108 107.318269,134.253156 110.479576,137.447143 C114.153977,141.166894 116.215904,146.185864 116.215904,151.41596 L116.215904,176.689655 C116.215904,178.517908 114.734697,180 112.907536,180 L89.9879103,180 L89.7575679,179.991967 C87.9348407,179.864676 86.5603561,178.282991 86.6875707,176.459175 L87.4985047,164.825774 C87.5679991,163.82883 87.1808645,162.854293 86.4462003,162.176801 L64.5067181,141.944657 C62.6217386,140.206445 61.2818631,137.957859 60.6498942,135.472117 L50.1456399,94.155418 C49.5081436,91.6479346 51.0228538,89.098116 53.5288397,88.4602388 C54.0326158,88.332007 54.5542168,88.2886142 55.0722397,88.3318412 Z M151.642058,66.0598597 C159.717046,74.1396726 159.717046,87.2396377 151.642058,95.3194506 L124.154467,122.823466 C121.570471,125.409006 117.380986,125.409006 114.796989,122.823466 L87.3093983,95.3194506 C79.2344103,87.2396377 79.2344103,74.1396726 87.3093983,66.0598597 C95.3843862,57.9800468 108.476529,57.9800468 116.551516,66.0598597 L119.475728,68.9858188 L122.39994,66.0598597 C130.474928,57.9800468 143.56707,57.9800468 151.642058,66.0598597 Z" id="形状结合" fill="url(#linearGradient-7)" opacity="0.800000012"></path>
                    </g>
                </g>
                <ellipse id="椭圆形" fill="url(#linearGradient-8)" filter="url(#filter-9)" mask="url(#mask-3)" cx="-45.5275862" cy="-36.2633333" rx="156.817241" ry="215.05"></ellipse>
            </g>
        </g>
    </g>
</svg>