<?xml version="1.0" encoding="UTF-8"?>
<svg width="978px" height="560px" viewBox="0 0 978 560" version="1.1" xmlns="http://www.w3.org/2000/svg" xmlns:xlink="http://www.w3.org/1999/xlink">
    <title>无急救人员_img</title>
    <defs>
        <linearGradient x1="50%" y1="0%" x2="50%" y2="100%" id="linearGradient-1">
            <stop stop-color="#FFF9F5" offset="0%"></stop>
            <stop stop-color="#FFFFFF" offset="100%"></stop>
        </linearGradient>
        <radialGradient cx="47.7953337%" cy="42.9645068%" fx="47.7953337%" fy="42.9645068%" r="97.9466685%" gradientTransform="translate(0.478, 0.4296), scale(0.5726, 1), rotate(1.4439), scale(1, 0.4578), translate(-0.478, -0.4296)" id="radialGradient-2">
            <stop stop-color="#FEEFE3" offset="0%"></stop>
            <stop stop-color="#FFFFFF" offset="100%"></stop>
        </radialGradient>
        <filter x="-6.9%" y="-48.6%" width="113.8%" height="197.3%" filterUnits="objectBoundingBox" id="filter-3">
            <feGaussianBlur stdDeviation="12" in="SourceGraphic"></feGaussianBlur>
        </filter>
        <linearGradient x1="67.9504142%" y1="65.7661998%" x2="-2.37473287%" y2="33.8476388%" id="linearGradient-4">
            <stop stop-color="#FFD8B9" offset="0%"></stop>
            <stop stop-color="#F9C498" offset="100%"></stop>
        </linearGradient>
        <linearGradient x1="50%" y1="31.1236051%" x2="65.656159%" y2="67.8731044%" id="linearGradient-5">
            <stop stop-color="#FFFFFF" stop-opacity="0.16682146" offset="0%"></stop>
            <stop stop-color="#FFC0A8" offset="100%"></stop>
        </linearGradient>
        <linearGradient x1="41.9613689%" y1="24.9693314%" x2="64.3738289%" y2="68.8763949%" id="linearGradient-6">
            <stop stop-color="#FFFAF6" offset="0%"></stop>
            <stop stop-color="#FFE2CB" offset="37.4617433%"></stop>
            <stop stop-color="#FFDABB" offset="100%"></stop>
        </linearGradient>
        <linearGradient x1="26.2543518%" y1="26.1527066%" x2="54.3416803%" y2="67.7011031%" id="linearGradient-7">
            <stop stop-color="#FFFFFF" stop-opacity="0.0934768357" offset="0%"></stop>
            <stop stop-color="#EDB292" stop-opacity="0.351617133" offset="100%"></stop>
        </linearGradient>
        <path d="M117.068577,46.107066 L485.91985,94.1686375 C491.598759,94.8780693 495.62788,100.061356 494.919143,105.745833 C494.794747,106.743558 494.526086,107.717877 494.12159,108.638215 L405.236829,312.703368 C395.698617,334.801014 372.223864,347.424337 348.551198,343.185521 L18.3185081,285.131982 C12.7081901,284.000984 9.0760864,278.531608 10.2059774,272.915791 C10.3443507,272.228044 10.552073,271.556123 10.8259537,270.91035 L102.639664,54.4262133 C105.052234,48.7377046 110.942265,45.3417429 117.068577,46.107066 Z" id="path-8"></path>
        <filter x="-13.3%" y="-22.7%" width="130.3%" height="149.3%" filterUnits="objectBoundingBox" id="filter-9">
            <feOffset dx="9" dy="6" in="SourceAlpha" result="shadowOffsetOuter1"></feOffset>
            <feGaussianBlur stdDeviation="23" in="shadowOffsetOuter1" result="shadowBlurOuter1"></feGaussianBlur>
            <feComposite in="shadowBlurOuter1" in2="SourceAlpha" operator="out" result="shadowBlurOuter1"></feComposite>
            <feColorMatrix values="0 0 0 0 0.988394475   0 0 0 0 0.41373899   0 0 0 0 0  0 0 0 0.276141827 0" type="matrix" in="shadowBlurOuter1"></feColorMatrix>
        </filter>
        <linearGradient x1="35.1422631%" y1="26.8703484%" x2="39.025104%" y2="68.8763949%" id="linearGradient-10">
            <stop stop-color="#FFF4EB" offset="0%"></stop>
            <stop stop-color="#FFE8D5" offset="100%"></stop>
        </linearGradient>
        <linearGradient x1="30.8814659%" y1="28.8296816%" x2="40.1284493%" y2="52.6277256%" id="linearGradient-11">
            <stop stop-color="#FFFFFF" offset="0%"></stop>
            <stop stop-color="#FFFFFF" stop-opacity="0.09" offset="100%"></stop>
        </linearGradient>
        <path d="M107.068577,0.107065959 L475.91985,48.1686375 C481.598759,48.8780693 485.62788,54.0613561 484.919143,59.7458325 C484.794747,60.7435578 484.526086,61.7178773 484.12159,62.6382154 L395.236829,266.703368 C385.698617,288.801014 362.223864,301.424337 338.551198,297.185521 L8.3185081,239.131982 C2.70819009,238.000984 -0.923913602,232.531608 0.205977436,226.915791 C0.344350714,226.228044 0.552073031,225.556123 0.825953694,224.91035 L92.6396638,8.42621333 C95.0522336,2.73770456 100.942265,-0.658257116 107.068577,0.107065959 Z" id="path-12"></path>
        <filter x="-12.2%" y="-15.4%" width="124.3%" height="139.6%" filterUnits="objectBoundingBox" id="filter-14">
            <feOffset dx="0" dy="13" in="SourceAlpha" result="shadowOffsetOuter1"></feOffset>
            <feGaussianBlur stdDeviation="17.5" in="shadowOffsetOuter1" result="shadowBlurOuter1"></feGaussianBlur>
            <feComposite in="shadowBlurOuter1" in2="SourceAlpha" operator="out" result="shadowBlurOuter1"></feComposite>
            <feColorMatrix values="0 0 0 0 1   0 0 0 0 0.602137976   0 0 0 0 0.454782774  0 0 0 0.0824136801 0" type="matrix" in="shadowBlurOuter1"></feColorMatrix>
        </filter>
        <linearGradient x1="43.8035697%" y1="24.3002147%" x2="50%" y2="76.5730882%" id="linearGradient-15">
            <stop stop-color="#FFFFFF" offset="0%"></stop>
            <stop stop-color="#FFFFFF" stop-opacity="0.356889205" offset="100%"></stop>
        </linearGradient>
        <linearGradient x1="12.6665006%" y1="17.3329932%" x2="76.9027088%" y2="93.2559869%" id="linearGradient-16">
            <stop stop-color="#FFFFFF" stop-opacity="0.160729895" offset="0%"></stop>
            <stop stop-color="#FFE1D0" stop-opacity="0.402835446" offset="100%"></stop>
        </linearGradient>
        <linearGradient x1="23.2185305%" y1="10.9401342%" x2="83.7196937%" y2="89.754551%" id="linearGradient-17">
            <stop stop-color="#FFFFFF" offset="0%"></stop>
            <stop stop-color="#FFE6D0" offset="100%"></stop>
        </linearGradient>
        <filter x="-24.4%" y="0.0%" width="148.8%" height="100.0%" filterUnits="objectBoundingBox" id="filter-18">
            <feGaussianBlur stdDeviation="13.4896552 0" in="SourceGraphic"></feGaussianBlur>
        </filter>
        <linearGradient x1="63.8231006%" y1="100%" x2="25.340898%" y2="-2.84217094e-12%" id="linearGradient-19">
            <stop stop-color="#FF7400" offset="0%"></stop>
            <stop stop-color="#FFC55C" offset="100%"></stop>
        </linearGradient>
        <linearGradient x1="46.0744644%" y1="-14.2353426%" x2="59.9421515%" y2="100%" id="linearGradient-20">
            <stop stop-color="#FFF4EB" offset="0%"></stop>
            <stop stop-color="#FFE4CD" offset="66.7901692%"></stop>
            <stop stop-color="#FFD0AA" offset="100%"></stop>
        </linearGradient>
        <linearGradient x1="50%" y1="-2.10657897%" x2="50%" y2="102.654195%" id="linearGradient-21">
            <stop stop-color="#FFFFFF" stop-opacity="0.883905157" offset="0%"></stop>
            <stop stop-color="#FFCBAB" offset="100%"></stop>
        </linearGradient>
        <linearGradient x1="40.8617989%" y1="18.215851%" x2="81.6333641%" y2="116.527418%" id="linearGradient-22">
            <stop stop-color="#FFFFFF" offset="0%"></stop>
            <stop stop-color="#FFFFFF" stop-opacity="0.651742788" offset="100%"></stop>
        </linearGradient>
        <linearGradient x1="50%" y1="8.96680633%" x2="50%" y2="81.6139859%" id="linearGradient-23">
            <stop stop-color="#FFFFFF" stop-opacity="0.9" offset="0%"></stop>
            <stop stop-color="#FFFFFF" stop-opacity="0.800099322" offset="99.9006782%"></stop>
            <stop stop-color="#FFFFFF" stop-opacity="0.8" offset="100%"></stop>
        </linearGradient>
        <path d="M34.1693208,5.74445945 L37,8.51812983 L39.8306792,5.74445945 C47.647384,-1.91481982 60.3207666,-1.91481982 68.1374714,5.74445945 C75.9541762,13.4037387 75.9541762,25.821884 68.1374714,33.4811633 L41.5290867,57.161773 C39.0277412,59.6127423 34.9722588,59.6127423 32.4709133,57.161773 L5.86252861,33.4811633 C-1.9541762,25.821884 -1.9541762,13.4037387 5.86252861,5.74445945 C13.6792334,-1.91481982 26.352616,-1.91481982 34.1693208,5.74445945 Z" id="path-24"></path>
        <linearGradient x1="60.5188724%" y1="23.8890511%" x2="22.3444573%" y2="63.8982971%" id="linearGradient-26">
            <stop stop-color="#FFD2A8" stop-opacity="0.111177885" offset="0%"></stop>
            <stop stop-color="#FFC8A5" stop-opacity="0.41796875" offset="100%"></stop>
        </linearGradient>
        <linearGradient x1="8.86454948%" y1="38.4930655%" x2="-8.36688658%" y2="42.8186801%" id="linearGradient-27">
            <stop stop-color="#FFAF61" stop-opacity="0" offset="0%"></stop>
            <stop stop-color="#FFA458" offset="100%"></stop>
        </linearGradient>
        <path d="M26.4825983,12.0209062 C24.0288326,10.3280185 21.3820335,9.22533721 18.542201,8.7128622 C13.857564,7.86747451 10.2218499,10.0830084 7.63505879,15.3594639 C11.1030837,14.6640161 15.2574625,17.2397156 20.0981954,23.0865624 C22.7436984,26.2819156 25.6261086,30.3321145 28.7454259,35.2371591 L28.7430228,35.2386867 C32.5354886,41.2045416 40.4461706,42.9664215 46.4120255,39.1739557 C47.2071019,38.6685294 47.9439467,38.076868 48.6091692,37.409724 C56.3571724,29.6341546 61.2432802,25.0011707 63.2679634,23.5112419 C71.0755775,17.7657561 77.6054956,16.0673001 77.6054956,16.0673001 C77.6054956,16.0673001 64.4926157,-2.02514154 64.4926157,-2.02514154 C64.4926157,-2.02514154 51.8373588,-3.3673682 44.8105134,1.5827158 C41.5040989,3.91193012 38.2414272,7.0024151 35.0224981,10.8541707 L35.0251626,10.8563975 C32.9056332,13.3926829 29.2033872,13.8977274 26.4819658,12.0218238 Z" id="path-28"></path>
        <linearGradient x1="32.7398707%" y1="4.80070892%" x2="50%" y2="43.712779%" id="linearGradient-29">
            <stop stop-color="#FFFFFF" offset="0%"></stop>
            <stop stop-color="#FFFFFF" stop-opacity="0" offset="100%"></stop>
        </linearGradient>
        <linearGradient x1="40.9047041%" y1="20.2129632%" x2="58.392736%" y2="48.2062658%" id="linearGradient-30">
            <stop stop-color="#FFFFFF" offset="0%"></stop>
            <stop stop-color="#FFFFFF" stop-opacity="0" offset="100%"></stop>
        </linearGradient>
        <linearGradient x1="38.7552203%" y1="21.3857451%" x2="51.8016052%" y2="46.1354755%" id="linearGradient-31">
            <stop stop-color="#FFFFFF" offset="0%"></stop>
            <stop stop-color="#FFFFFF" stop-opacity="0" offset="100%"></stop>
        </linearGradient>
        <linearGradient x1="63.753191%" y1="98.9318484%" x2="32.2274228%" y2="10.797587%" id="linearGradient-32">
            <stop stop-color="#FF7000" offset="0%"></stop>
            <stop stop-color="#FFB84D" offset="100%"></stop>
        </linearGradient>
        <linearGradient x1="50%" y1="-5.13538977%" x2="50%" y2="92.2961279%" id="linearGradient-33">
            <stop stop-color="#FFFFFF" offset="0%"></stop>
            <stop stop-color="#FFFFFF" stop-opacity="0.498579545" offset="100%"></stop>
        </linearGradient>
        <linearGradient x1="100%" y1="50%" x2="2.94809947e-13%" y2="48.2941168%" id="linearGradient-34">
            <stop stop-color="#FFFFFF" offset="0%"></stop>
            <stop stop-color="#FFFFFF" stop-opacity="0.213833042" offset="100%"></stop>
        </linearGradient>
        <linearGradient x1="32.8132701%" y1="-3.37403716e-13%" x2="57.8887152%" y2="95.1567624%" id="linearGradient-35">
            <stop stop-color="#FFFFFF" stop-opacity="0.9" offset="0%"></stop>
            <stop stop-color="#FFFBF7" stop-opacity="0.9" offset="100%"></stop>
        </linearGradient>
        <linearGradient x1="18.8101971%" y1="15.3984125%" x2="64.2293043%" y2="96.3664681%" id="linearGradient-36">
            <stop stop-color="#FFFFFF" offset="0%"></stop>
            <stop stop-color="#FFD8BB" offset="100%"></stop>
        </linearGradient>
        <filter x="-17.9%" y="-17.9%" width="135.8%" height="135.8%" filterUnits="objectBoundingBox" id="filter-37">
            <feOffset dx="0" dy="0" in="SourceAlpha" result="shadowOffsetOuter1"></feOffset>
            <feGaussianBlur stdDeviation="5.5" in="shadowOffsetOuter1" result="shadowBlurOuter1"></feGaussianBlur>
            <feColorMatrix values="0 0 0 0 0.738620924   0 0 0 0 0.193883973   0 0 0 0 0.0581551383  0 0 0 0.329955201 0" type="matrix" in="shadowBlurOuter1" result="shadowMatrixOuter1"></feColorMatrix>
            <feMerge>
                <feMergeNode in="shadowMatrixOuter1"></feMergeNode>
                <feMergeNode in="SourceGraphic"></feMergeNode>
            </feMerge>
        </filter>
        <linearGradient x1="30.7317331%" y1="-5.75928194e-14%" x2="76.3032127%" y2="92.7437245%" id="linearGradient-38">
            <stop stop-color="#FF8758" offset="0%"></stop>
            <stop stop-color="#E01E1E" offset="100%"></stop>
        </linearGradient>
        <ellipse id="path-39" cx="46.0968845" cy="46.1207559" rx="46.0968845" ry="46.1207559"></ellipse>
        <filter x="-15.7%" y="-15.7%" width="131.5%" height="131.4%" filterUnits="objectBoundingBox" id="filter-41">
            <feGaussianBlur stdDeviation="8.5" in="SourceAlpha" result="shadowBlurInner1"></feGaussianBlur>
            <feOffset dx="0" dy="11" in="shadowBlurInner1" result="shadowOffsetInner1"></feOffset>
            <feComposite in="shadowOffsetInner1" in2="SourceAlpha" operator="arithmetic" k2="-1" k3="1" result="shadowInnerInner1"></feComposite>
            <feColorMatrix values="0 0 0 0 1   0 0 0 0 0.798208841   0 0 0 0 0.798208841  0 0 0 0.5 0" type="matrix" in="shadowInnerInner1" result="shadowMatrixInner1"></feColorMatrix>
            <feGaussianBlur stdDeviation="8.5" in="SourceAlpha" result="shadowBlurInner2"></feGaussianBlur>
            <feOffset dx="-12" dy="-9" in="shadowBlurInner2" result="shadowOffsetInner2"></feOffset>
            <feComposite in="shadowOffsetInner2" in2="SourceAlpha" operator="arithmetic" k2="-1" k3="1" result="shadowInnerInner2"></feComposite>
            <feColorMatrix values="0 0 0 0 0.967872509   0 0 0 0 0.246674238   0 0 0 0 0  0 0 0 0.673131556 0" type="matrix" in="shadowInnerInner2" result="shadowMatrixInner2"></feColorMatrix>
            <feMerge>
                <feMergeNode in="shadowMatrixInner1"></feMergeNode>
                <feMergeNode in="shadowMatrixInner2"></feMergeNode>
            </feMerge>
        </filter>
        <filter x="-154.8%" y="-247.0%" width="409.6%" height="594.0%" filterUnits="objectBoundingBox" id="filter-42">
            <feGaussianBlur stdDeviation="43.8382703" in="SourceGraphic"></feGaussianBlur>
        </filter>
        <filter x="-95.5%" y="-206.1%" width="291.0%" height="512.3%" filterUnits="objectBoundingBox" id="filter-43">
            <feGaussianBlur stdDeviation="28.056493" in="SourceGraphic"></feGaussianBlur>
        </filter>
        <linearGradient x1="54.8656722%" y1="45.4095037%" x2="47.2735956%" y2="58.1553601%" id="linearGradient-44">
            <stop stop-color="#FFF2B9" offset="0%"></stop>
            <stop stop-color="#FFB74E" stop-opacity="0.634751967" offset="100%"></stop>
        </linearGradient>
        <filter x="-73.7%" y="-206.4%" width="247.5%" height="512.9%" filterUnits="objectBoundingBox" id="filter-45">
            <feGaussianBlur stdDeviation="17.5353081" in="SourceGraphic"></feGaussianBlur>
        </filter>
        <path d="M52.4437749,31.0065452 L52.4437749,31.1396991 C50.6403325,29.5855254 48.2846415,28.7590661 45.8651805,28.8316968 C43.4244041,28.7432026 41.0488491,29.6013383 39.2712156,31.2136736 C37.5261409,33.0280756 36.6218544,35.447093 36.7658163,37.9157576 L36.7658163,54.0421848 C36.6123251,56.5014712 37.4930782,58.9168073 39.2097334,60.7442688 C43.0530203,63.7449556 48.5543762,63.7449556 52.3976632,60.7442688 C54.1768295,58.947418 55.1009161,56.5201089 54.9491741,54.0421848 L54.9491741,37.7678087 C55.1402311,35.2750468 54.2306075,32.8202664 52.4437749,31.0065452 L52.4437749,31.0065452 Z M48.6779907,37.7086291 L48.6779907,54.2345183 C48.6948361,55.0325876 48.4352682,55.813358 47.9402044,56.4537514 C47.4022197,57.0108281 46.6476735,57.3273104 45.8574952,57.3273104 C45.067317,57.3273104 44.3127708,57.0108281 43.774786,56.4537514 C43.2723556,55.7746253 43.0330546,54.9475003 43.0984819,54.1161592 L43.0984819,37.7086291 C43.064921,36.9266816 43.3148746,36.1578323 43.8055271,35.5337807 C44.3252578,35.0278003 45.0337368,34.7430581 45.7729572,34.7430581 C46.5121775,34.7430581 47.2206565,35.0278003 47.7403873,35.5337807 L47.986316,35.8000887 C48.3743917,36.2503527 48.6150895,36.8012437 48.6779907,37.3831416 C48.6933692,37.4911325 48.6933692,37.6006382 48.6779907,37.7086291 L48.6779907,37.7086291 Z M29.0809114,44.7510494 C28.3584957,44.0408924 27.0366286,42.5022189 26.2988423,41.7920619 C25.7916143,41.3186239 25.2382745,40.6824417 24.7617876,40.2385935 C24.3481585,39.8277016 23.9869578,39.3707584 23.6858493,38.8774593 C23.3206879,38.3333228 23.1136913,37.7049354 23.0863979,37.0576819 C23.0584227,36.342636 23.2684443,35.63768 23.6858493,35.0455704 C24.0372467,34.5593439 24.607787,34.2627898 25.222904,34.2466439 C26.0614525,34.1308964 26.8889009,34.5174144 27.3132985,35.2231097 C27.5385366,35.6604605 27.7236858,36.1159003 27.8666382,36.584244 C28.2264608,37.76138 29.3752995,38.549503 30.6487073,38.4927909 C31.5164497,38.4718433 32.3261393,38.0685032 32.8450269,37.3987128 C33.3639144,36.7289224 33.5345236,35.8668731 33.307812,35.0603654 C32.8490017,33.5749249 32.0625758,32.2022767 31.0022299,31.0361424 C29.5724263,29.5524289 27.5387042,28.7466923 25.4380917,28.8316968 C23.1632818,28.7624645 20.9735924,29.6673073 19.4589487,31.3024513 C17.9842076,33.0327176 17.2138765,35.2203554 17.2917015,37.4571453 C17.6399194,40.9342721 19.2767365,44.1745917 21.9028657,46.5856216 C22.7021342,47.3697533 24.0854835,49.1303509 24.8540108,49.9292775 C25.6729537,50.7501573 26.4185062,51.6360619 27.0827403,52.5775712 C27.5541271,53.2932249 27.7948025,54.1272092 27.7744149,54.9743512 C27.7744149,57.0160525 27.0058875,57.9333387 25.4842034,57.9333386 C25.0108379,57.9377182 24.5481574,57.7978979 24.1623362,57.5338753 C23.7721019,57.265873 23.4769617,56.8888114 23.3169561,56.4538449 C23.2379533,56.2305322 23.1712548,56.0033603 23.117139,55.7732777 C22.6926931,54.2657248 21.0789511,53.3748077 19.5127456,53.7833587 C17.94654,54.1919096 17.020961,55.7452186 17.4454069,57.2527715 C17.8629785,58.4958409 18.4970829,59.6615246 19.3206137,60.6999919 C20.7163951,62.252536 22.6959947,63.2074722 24.8235424,63.3545417 C26.9510901,63.5016112 29.0521389,62.8287551 30.6640779,61.4841236 C30.9532825,61.2452031 31.2206837,60.9828661 31.4633464,60.6999919 C32.7558001,59.2795969 33.570414,57.515355 33.7996696,55.6401233 C33.8304205,55.3647442 33.8304205,55.0869859 33.7996696,54.8116068 C33.7571831,53.056501 33.3713035,51.3248395 32.662249,49.7073534 C31.751044,47.8707811 30.524712,46.195203 29.0347998,44.7510494 L29.0809114,44.7510494 Z M73.8392081,49.5446091 C72.8935432,47.7728019 71.66425,46.155184 70.1963883,44.7510494 C69.4893431,44.0556873 67.4143192,41.9400113 67.4143192,41.9400113 C66.8917206,41.4369834 66.369122,40.8895707 65.8772644,40.3273631 C65.4682104,39.8700049 65.107766,39.3743676 64.8013261,38.8478693 C64.451928,38.3129502 64.2459512,37.7029096 64.2018748,37.0724769 C64.1672116,36.3428173 64.3773861,35.6217861 64.8013261,35.0159806 C65.1722246,34.5418999 65.7525627,34.2625973 66.369122,34.2614388 C67.1927959,34.2183472 67.9626709,34.6559716 68.3211815,35.3710591 C68.4899343,35.7616864 68.633662,36.1618996 68.7515568,36.569449 C69.0913497,37.8158016 70.2719843,38.6772821 71.6104787,38.6555352 C72.4756737,38.6311032 73.2827861,38.2306906 73.8054656,37.5665911 C74.328145,36.9024917 74.5101082,36.0462169 74.3003245,35.2379047 C73.8827737,33.7235653 73.1274724,32.3149716 72.0869657,31.1101171 C70.6452612,29.6340294 68.610797,28.8302192 66.5074569,28.9056714 C64.1794345,28.7795036 61.9177962,29.6774923 60.3592379,31.3468361 C58.8949841,33.0893109 58.1214492,35.2758205 58.1766201,37.516325 C58.5352663,41.0243231 60.2199729,44.2833505 62.9107488,46.6743913 C63.6946467,47.4141382 65.8618939,49.7813281 65.8618939,49.7813281 C66.6925397,50.5922018 67.4389876,51.4791705 68.0906233,52.4296219 C68.5510506,53.1452184 68.7958379,53.9698896 68.7976685,54.8116068 C68.7976685,56.8533082 68.0291411,57.7705943 66.4920863,57.7705943 C66.0184769,57.762069 65.5582585,57.6178417 65.1702193,57.3563361 C64.8192912,57.0829875 64.566563,56.7103281 64.4478035,56.2911006 C64.3927277,56.1634381 64.3565108,56.028976 64.3402097,55.8916373 C64.1271469,54.9001207 63.368408,54.09983 62.3620493,53.8051442 C61.3556906,53.5104584 60.2624782,53.7684537 59.5118598,54.4777814 C58.7612414,55.1871092 58.4731285,56.2344542 58.7607009,57.2083867 C59.1766898,58.4880066 59.8274012,59.6855743 60.6820194,60.7443767 C62.0617831,62.2886285 64.0224334,63.241948 66.1325266,63.3945559 C68.2426199,63.5471638 70.3292532,62.8865553 71.9332602,61.5580983 C72.2289507,61.3054609 72.5062726,61.0335812 72.7632698,60.7443767 C74.0317268,59.1978249 74.7725804,57.3117019 74.8844053,55.3442245 C74.9151147,55.0787359 74.9151147,54.8107866 74.8844053,54.545298 C74.9444562,52.8181204 74.5700639,51.1025477 73.7930965,49.5446091 L73.8392081,49.5446091 Z" id="path-46"></path>
        <filter x="-23.4%" y="-30.4%" width="146.9%" height="178.1%" filterUnits="objectBoundingBox" id="filter-47">
            <feOffset dx="0" dy="3" in="SourceAlpha" result="shadowOffsetOuter1"></feOffset>
            <feGaussianBlur stdDeviation="4" in="shadowOffsetOuter1" result="shadowBlurOuter1"></feGaussianBlur>
            <feColorMatrix values="0 0 0 0 1   0 0 0 0 0.250228659   0 0 0 0 0.447338563  0 0 0 1 0" type="matrix" in="shadowBlurOuter1"></feColorMatrix>
        </filter>
    </defs>
    <g id="页面-1" stroke="none" stroke-width="1" fill="none" fill-rule="evenodd">
        <g id="0.2弹窗header对于背景插画" transform="translate(-386, -1549)">
            <g id="无急救人员_img" transform="translate(386, 1549)">
                <path d="M24,0 L954,0 C967.254834,-2.4348735e-15 978,10.745166 978,24 L978,560 L978,560 L0,560 L0,24 C-1.623249e-15,10.745166 10.745166,-2.24341222e-14 24,0 Z" id="蒙版备份-4" fill="url(#linearGradient-1)"></path>
                <path d="M24,0 L954,0 C967.254834,-2.4348735e-15 978,10.745166 978,24 L978,560 L978,560 L0,560 L0,24 C-1.623249e-15,10.745166 10.745166,-2.24341222e-14 24,0 Z" id="蒙版备份-6" fill="url(#radialGradient-2)" opacity="0.62125651"></path>
                <ellipse id="椭圆形备份-2" fill="#FFF6F0" filter="url(#filter-3)" cx="475" cy="491" rx="260" ry="37"></ellipse>
                <g id="编组-2" transform="translate(235, 90)">
                    <path d="M121.893024,75.5949544 C124.273938,74.222212 127.090017,73.6056881 129.956941,73.9638234 L498.812748,122.025974 C501.41542,122.35111 503.639983,123.701513 505.132715,125.621847 C506.625706,127.542514 507.38665,130.033303 507.061781,132.638937 C506.947739,133.553617 506.701442,134.446841 506.32947,135.293191 L417.443571,339.360967 C412.753949,350.225647 404.6383,358.761272 394.785237,364.059662 C384.932418,369.357921 373.342279,371.419085 361.700791,369.33457 L31.4789265,311.282934 C28.9123025,310.76262 26.7982771,309.251368 25.4544139,307.227722 C24.1085285,305.201031 23.5350826,302.660396 24.0530034,300.086211 C24.1798588,299.45571 24.3702899,298.839719 24.6213734,298.247698 L116.435083,81.7635611 C117.565981,79.0970588 119.511875,76.9678318 121.893024,75.5949544 Z" id="路径-7备份-9" stroke="url(#linearGradient-5)" stroke-width="1.728" fill="url(#linearGradient-4)"></path>
                    <g id="路径-7备份-8">
                        <use fill="black" fill-opacity="1" filter="url(#filter-9)" xlink:href="#path-8"></use>
                        <path stroke="url(#linearGradient-7)" stroke-width="1.92" d="M108.940974,48.6781212 C111.304228,47.3155618 114.099416,46.7036085 116.944537,47.0590187 L485.800848,95.1212332 C488.37721,95.4430826 490.579279,96.7798436 492.056921,98.6807645 C493.534849,100.582054 494.28811,103.047715 493.966519,105.62706 C493.853628,106.532513 493.609815,107.416725 493.241456,108.254855 L404.355431,312.322922 C399.67464,323.167143 391.57428,331.686698 381.739771,336.975111 C371.905532,342.263379 360.337251,344.320658 348.717413,342.24002 L18.4967801,284.188601 C15.9566468,283.673313 13.8644526,282.177485 12.5343861,280.174614 C11.2020778,278.168368 10.6344216,275.653362 11.1471174,273.105146 C11.2726931,272.481006 11.4612029,271.871229 11.7097534,271.285181 L103.523463,54.8010442 C104.645985,52.1542921 106.577461,50.0408308 108.940974,48.6781212 Z" stroke-linejoin="square" fill="url(#linearGradient-6)" fill-rule="evenodd"></path>
                    </g>
                    <g id="形状结合" transform="translate(0, 27)">
                        <mask id="mask-13" fill="white">
                            <use xlink:href="#path-12"></use>
                        </mask>
                        <g id="蒙版">
                            <use fill="black" fill-opacity="1" filter="url(#filter-14)" xlink:href="#path-12"></use>
                            <path stroke="url(#linearGradient-11)" stroke-width="1.728" d="M98.8930237,2.59495436 C101.273938,1.222212 104.090017,0.605688135 106.956941,0.963823442 L475.812748,49.0259736 C478.41542,49.3511097 480.639983,50.7015126 482.132715,52.6218473 C483.625706,54.5425136 484.38665,57.0333027 484.061781,59.6389372 C483.947739,60.5536173 483.701442,61.4468406 483.32947,62.2931912 L394.443571,266.360967 C389.753949,277.225647 381.6383,285.761272 371.785237,291.059662 C361.932418,296.357921 350.342279,298.419085 338.700791,296.33457 L8.47892651,238.282934 C5.91230253,237.76262 3.79827713,236.251368 2.45441389,234.227722 C1.10852849,232.201031 0.535082626,229.660396 1.05300344,227.086211 C1.17985885,226.45571 1.3702899,225.839719 1.6213734,225.247698 L93.4350835,8.76356107 C94.5659814,6.09705881 96.5118747,3.96783182 98.8930237,2.59495436 Z" stroke-linejoin="square" fill="url(#linearGradient-10)" fill-rule="evenodd"></path>
                        </g>
                        <path d="M159.951801,2.00436657 L171.026686,6.85685552 L148.295886,58.4884513 C147.911351,59.3618999 148.307693,60.3816977 149.181142,60.7662333 C149.338768,60.8356282 149.505883,60.8810686 149.676946,60.9010479 L224.128297,69.5963666 L248.726651,9.94358536 L259.912211,14.5346772 L236.605297,71.0533666 L374.242556,87.1292026 C375.190461,87.2399132 375.869141,88.0980905 375.75843,89.0459952 C375.741122,89.1941861 375.704695,89.3395115 375.650057,89.4783454 L326.475297,214.428367 L425.716267,231.079156 L423.724374,243.015021 L321.924297,225.992367 L290.15337,306.724279 L278.905268,302.288929 L309.732297,223.953367 L182.339297,202.652367 L154.127162,271.07095 L142.783045,266.866918 L170.105297,200.606367 L121.650087,192.505058 C121.237152,192.436011 120.817374,192.417242 120.399925,192.44916 L72.0308518,196.147436 C71.5711174,196.182587 71.1090193,196.171649 70.6514628,196.114786 L7.72729656,188.294815 L9.41731177,176.310409 L76.2702862,184.530813 C76.7202364,184.58614 77.1745382,184.597066 77.6266279,184.563434 L126.077471,180.959092 C126.492376,180.928227 126.909487,180.947421 127.319803,181.016261 L174.892297,188.997367 L219.335297,81.2203666 L132.051107,71.026222 C131.103203,70.9155118 130.424522,70.0573348 130.535233,69.10943 C130.555176,68.9386778 130.600487,68.7718574 130.669671,68.61448 L159.951801,2.00436657 Z M231.812297,82.6773666 L187.124297,191.049367 L314.286297,212.383367 L358.642347,99.6756135 C358.991834,98.7875601 358.55524,97.7843351 357.667187,97.4348478 C357.528355,97.3802114 357.383031,97.343785 357.234843,97.3264773 L231.812297,82.6773666 Z" fill="url(#linearGradient-15)" opacity="0.5" mask="url(#mask-13)"></path>
                    </g>
                    <g id="编组-3" transform="translate(269, 150)">
                        <g id="pic_conduct">
                            <circle id="椭圆形备份-7" stroke="url(#linearGradient-17)" stroke-width="1.34896552" fill="url(#linearGradient-16)" cx="110.5" cy="110.5" r="109.825517"></circle>
                            <circle id="椭圆形备份-8" fill="#FFE5CF" filter="url(#filter-18)" cx="111.17378" cy="111.17378" r="82.875"></circle>
                            <g id="编组-6" transform="translate(48.5122, 48.5122)" fill="url(#linearGradient-19)" fill-rule="nonzero">
                                <circle id="蒙版" cx="62.6615854" cy="62.6615854" r="62.6615854"></circle>
                            </g>
                        </g>
                        <ellipse id="椭圆形" fill="#FFFFFF" cx="82.3142052" cy="110.260071" rx="8.79083745" ry="8.78884626"></ellipse>
                        <ellipse id="椭圆形备份-5" fill="#FFFFFF" cx="110.285052" cy="110.260071" rx="8.79083745" ry="8.78884626"></ellipse>
                        <ellipse id="椭圆形备份-6" fill="#FFFFFF" cx="138.255898" cy="110.260071" rx="8.79083745" ry="8.78884626"></ellipse>
                    </g>
                    <g id="编组-45备份-3" transform="translate(286, 0)">
                        <path d="M84.0628571,75.0080183 C90.3071429,67.1683849 94,57.2691867 94,46.5063001 C94,20.8613975 72.9171429,0 47,0 C21.0828571,0 0,20.8613975 0,46.5063001 C0,57.1036038 3.58010482,66.8635897 9.58666949,74.644731 L9.87,75.0080183 L9.93714286,75.0080183 L15.5771429,81.6517755 L44.4485714,111.870561 C45.12,112.601375 45.9928571,113 47,113 C47.9441964,113 48.7703683,112.649646 49.4231916,112.00368 L49.5514286,111.870561 L78.4228571,81.6517755 L84.13,75.0080183 L84.0628571,75.0080183 Z" id="蒙版备份" stroke="url(#linearGradient-21)" fill="url(#linearGradient-20)"></path>
                        <g id="xiang应人" transform="translate(10, 22)">
                            <path d="M34.1693208,5.74445945 L37,8.51812983 L39.8306792,5.74445945 C47.647384,-1.91481982 60.3207666,-1.91481982 68.1374714,5.74445945 C75.9541762,13.4037387 75.9541762,25.821884 68.1374714,33.4811633 L41.5290867,57.161773 C39.0277412,59.6127423 34.9722588,59.6127423 32.4709133,57.161773 L5.86252861,33.4811633 C-1.9541762,25.821884 -1.9541762,13.4037387 5.86252861,5.74445945 C13.6792334,-1.91481982 26.352616,-1.91481982 34.1693208,5.74445945 Z" id="bg" fill="url(#linearGradient-22)" opacity="0.665527344"></path>
                            <g id="蒙版">
                                <mask id="mask-25" fill="white">
                                    <use xlink:href="#path-24"></use>
                                </mask>
                                <use fill="url(#linearGradient-23)" xlink:href="#path-24"></use>
                                <g id="路径-34" mask="url(#mask-25)">
                                    <use fill="url(#linearGradient-26)" xlink:href="#path-28"></use>
                                    <use fill="url(#linearGradient-27)" xlink:href="#path-28"></use>
                                </g>
                                <path d="M51.7503483,24.3085392 C51.7503483,24.3085392 56.8817804,17.980357 63.0577065,14.9582427 C67.1749906,12.9434998 70.393749,12.281247 72.7139819,12.9714843 C75.842565,14.8613798 76.2712377,16.2775302 74,17.2199356 C62.3425494,22.0569653 55.7139952,30.3334182 55.7139952,30.3334182 C55.7139952,30.3334182 51.7503483,24.3085392 51.7503483,24.3085392 Z" id="路径-5" fill="url(#linearGradient-29)" mask="url(#mask-25)"></path>
                                <path d="M45.5593408,20.8288716 C45.5593408,20.8288716 51.0082545,12.133765 59.282599,8.21230679 C64.7988287,5.59800132 69.201256,5.77552056 72.4898809,8.74486452 C73.8473109,11.5626111 74.1975455,12.9714843 73.5405847,12.9714843 C69.6981947,12.9714843 66.7048682,14.0269765 64.4171208,15.0677087 C54.8153595,19.4357008 53.2884898,23.7591661 53.2884898,23.7591661 C53.2884898,23.7591661 45.5593408,20.8288716 45.5593408,20.8288716 Z" id="路径-5备份" fill="url(#linearGradient-30)" mask="url(#mask-25)"></path>
                                <path d="M39.6633253,15.0677087 C39.6633253,15.0677087 46.6139209,5.09667028 54.1973581,2.45656159 C59.2529829,0.696489141 63.5537974,1.51045575 67.0998016,4.89846143 C62.5721733,6.14402537 59.2524619,7.61008047 57.1406674,9.29662671 C49.4778077,15.4164303 45.3750448,19.2192299 45.3750448,19.2192299 C45.3750448,19.2192299 39.6633253,15.0677087 39.6633253,15.0677087 Z" id="路径-5备份-2" fill="url(#linearGradient-31)" mask="url(#mask-25)"></path>
                            </g>
                            <g id="+" transform="translate(25.7391, 19.1351)">
                                <path d="M11.2782609,0 C13.0455721,-3.24649801e-16 14.4782609,1.4326888 14.4782609,3.2 L14.478,7.972 L19.3325499,7.97297297 C21.0938905,7.97297297 22.5217391,9.40082161 22.5217391,11.1621622 C22.5217391,12.9235027 21.0938905,14.3513514 19.3325499,14.3513514 L14.478,14.351 L14.4782609,19.1243243 C14.4782609,20.8916355 13.0455721,22.3243243 11.2782609,22.3243243 L11.2434783,22.3243243 C9.47616706,22.3243243 8.04347826,20.8916355 8.04347826,19.1243243 L8.043,14.351 L3.18918919,14.3513514 C1.42784864,14.3513514 2.15702007e-16,12.9235027 0,11.1621622 C-2.15702007e-16,9.40082161 1.42784864,7.97297297 3.18918919,7.97297297 L8.043,7.972 L8.04347826,3.2 C8.04347826,1.4326888 9.47616706,7.6873901e-16 11.2434783,0 L11.2782609,0 Z" id="形状结合" fill="url(#linearGradient-32)" fill-rule="nonzero"></path>
                                <rect id="矩形备份-12" fill="url(#linearGradient-33)" opacity="0.200000003" x="8.04347826" y="0" width="6.43478261" height="14.3513514" rx="3.2"></rect>
                                <rect id="矩形" fill="url(#linearGradient-34)" opacity="0.200000003" x="8.04347826" y="7.97297297" width="14.4782609" height="6.37837838" rx="3.18918919"></rect>
                            </g>
                        </g>
                    </g>
                    <g id="编组-45备份" transform="translate(10, 82)">
                        <path d="M56.5030842,0.5 C71.9441995,0.5 85.9451956,6.7514746 96.0859228,16.8453696 C106.22581,26.9384279 112.506168,40.8734984 112.506168,56.2421397 C112.506168,69.1324891 108.112759,80.9892916 100.682301,90.3818364 L59.216241,133.721737 C58.3856714,134.555133 57.509866,134.940569 56.5030842,134.940569 C55.437576,134.940569 54.5149985,134.514927 53.7970505,133.729031 L12.3072361,90.3644544 L11.9049884,89.9450195 C4.75859996,80.6226839 0.5,68.9333498 0.5,56.2421397 C0.5,40.8734984 6.78035891,26.9384279 16.9202456,16.8453696 C27.0609729,6.7514746 41.061969,0.5 56.5030842,0.5 Z" id="蒙版备份" stroke="url(#linearGradient-36)" fill="url(#linearGradient-35)" opacity="0.900000036"></path>
                        <g id="SOS" filter="url(#filter-37)" transform="translate(10.4062, 8.6476)">
                            <g id="椭圆形-+-椭圆形备份-2-蒙版">
                                <mask id="mask-40" fill="white">
                                    <use xlink:href="#path-39"></use>
                                </mask>
                                <g id="蒙版">
                                    <use fill="url(#linearGradient-38)" fill-rule="evenodd" xlink:href="#path-39"></use>
                                    <use fill="black" fill-opacity="1" filter="url(#filter-41)" xlink:href="#path-39"></use>
                                </g>
                                <path d="M62.5231246,92.2415117 L27.544074,99.1596251 L-13.3102338,89.0230816 L-22.4331361,76.323536 L-3.84140704,45.9101281 C6.30723037,60.5632014 14.7412056,70.701004 21.4605186,76.323536 C28.1798315,81.946068 41.8673669,87.2520599 62.5231246,92.2415117 Z" id="路径-3" fill="#FF0000" opacity="0.291027618" filter="url(#filter-42)" mask="url(#mask-40)"></path>
                                <path d="M60.1954709,94.9910298 C87.2507879,94.9841779 112.62572,76.0750618 112.62717,70.3450839 C112.628621,64.6151059 89.1043722,71.8724278 62.0490552,71.8792786 C34.9937383,71.8861294 24.4890714,49.3615801 24.4876207,55.0915581 C24.4861699,60.821536 33.140154,94.9978796 60.1954709,94.9910298 Z" id="椭圆形" fill="#FFAD4B" filter="url(#filter-43)" mask="url(#mask-40)" transform="translate(68.5574, 74.5746) rotate(-39) translate(-68.5574, -74.5746)"></path>
                                <path d="M68.4688898,17.9018399 C85.1243405,20.2809552 102.278731,27.664683 102.277446,21.9342718 C102.276162,16.2038606 85.0793068,-1.41330043 69.1656178,-1.41686904 C53.2519289,-1.42043635 30.9422855,13.1101003 30.94357,18.8405115 C30.9448545,24.5709227 51.8134392,15.5227245 68.4688898,17.9018399 Z" id="椭圆形备份-2" fill="url(#linearGradient-44)" filter="url(#filter-45)" mask="url(#mask-40)" transform="translate(66.6105, 11.3238) rotate(-330) translate(-66.6105, -11.3238)"></path>
                            </g>
                            <g id="形状" fill-rule="nonzero">
                                <use fill="black" fill-opacity="1" filter="url(#filter-47)" xlink:href="#path-46"></use>
                                <use fill="#FFFFFF" xlink:href="#path-46"></use>
                            </g>
                        </g>
                    </g>
                </g>
            </g>
        </g>
    </g>
</svg>