<?xml version="1.0" encoding="UTF-8"?>
<svg width="978px" height="252px" viewBox="0 0 978 252" version="1.1" xmlns="http://www.w3.org/2000/svg" xmlns:xlink="http://www.w3.org/1999/xlink">
    <title>标题</title>
    <defs>
        <linearGradient x1="51.7182617%" y1="100%" x2="51.7182617%" y2="28.3247616%" id="linearGradient-1">
            <stop stop-color="#FFFFFF" offset="0%"></stop>
            <stop stop-color="#FFF1E6" offset="100%"></stop>
        </linearGradient>
        <path d="M24,0 L954,0 C967.254834,-2.4348735e-15 978,10.745166 978,24 L978,252 L978,252 L0,252 L0,24 C-1.623249e-15,10.745166 10.745166,2.4348735e-15 24,0 Z" id="path-2"></path>
        <linearGradient x1="86.5840374%" y1="53.6009394%" x2="26.0687844%" y2="48.9808714%" id="linearGradient-4">
            <stop stop-color="#FFDBDB" offset="0%"></stop>
            <stop stop-color="#FFB4B4" offset="100%"></stop>
        </linearGradient>
        <filter x="-43.2%" y="-130.4%" width="186.5%" height="360.8%" filterUnits="objectBoundingBox" id="filter-5">
            <feGaussianBlur stdDeviation="84.3103448" in="SourceGraphic"></feGaussianBlur>
        </filter>
        <linearGradient x1="43.9598014%" y1="5.58641753%" x2="66.8471435%" y2="100%" id="linearGradient-6">
            <stop stop-color="#FFE9D6" offset="0%"></stop>
            <stop stop-color="#FFFFFF" stop-opacity="0.651742788" offset="100%"></stop>
        </linearGradient>
        <linearGradient x1="29.3038656%" y1="17.9074423%" x2="46.3781989%" y2="74.3157132%" id="linearGradient-7">
            <stop stop-color="#FFFFFF" offset="0%"></stop>
            <stop stop-color="#FFFFFF" stop-opacity="0.651742788" offset="100%"></stop>
        </linearGradient>
        <linearGradient x1="51.7050509%" y1="82.6797754%" x2="72.9090075%" y2="76.8628839%" id="linearGradient-8">
            <stop stop-color="#FFF7F0" offset="0%"></stop>
            <stop stop-color="#FFECDD" offset="100%"></stop>
        </linearGradient>
        <filter x="-8.1%" y="0.0%" width="116.1%" height="100.0%" filterUnits="objectBoundingBox" id="filter-9">
            <feGaussianBlur stdDeviation="8.43103448 0" in="SourceGraphic"></feGaussianBlur>
        </filter>
    </defs>
    <g id="页面-1" stroke="none" stroke-width="1" fill="none" fill-rule="evenodd">
        <g id="7.19.其他志愿者收到通知" transform="translate(-96, -666)">
            <g id="标题" transform="translate(96, 666)">
                <g id="bg">
                    <mask id="mask-3" fill="white">
                        <use xlink:href="#path-2"></use>
                    </mask>
                    <use id="蒙版" fill="url(#linearGradient-1)" xlink:href="#path-2"></use>
                    <path d="M795.208419,15.4614928 C968.507383,15.4614928 1047.77614,122.710531 1047.77614,78.8610585 C1047.77614,35.0115864 949.746846,-104.573333 776.447882,-104.573333 C603.148918,-104.573333 462.66235,-69.0263127 462.66235,-25.1768406 C462.66235,18.6726315 621.909454,15.4614928 795.208419,15.4614928 Z" id="椭圆形" fill="url(#linearGradient-4)" opacity="0.511858259" filter="url(#filter-5)" mask="url(#mask-3)"></path>
                    <g id="编组-50" mask="url(#mask-3)">
                        <g transform="translate(120, 22)">
                            <circle id="椭圆形" fill="url(#linearGradient-6)" cx="120" cy="120" r="120"></circle>
                            <path d="M158.275498,86.5736025 C161.883722,83.1315912 167.721162,83.1437081 171.313785,86.6006665 C174.906408,90.0576248 174.893761,95.6503448 171.285537,99.0923562 L114.327737,153.426398 C110.72504,156.863137 104.898477,156.85709 101.303559,153.41288 C100.52527,152.667219 99.7875171,151.960394 99.0868451,151.289096 L96.7186464,149.020178 C96.2253247,148.547538 95.7530816,148.095092 95.3001483,147.661147 L94.6350097,147.023893 C94.3094604,146.711991 93.9942755,146.41002 93.6887086,146.117263 L92.8001159,145.265922 C92.5130389,144.99088 92.2348337,144.724338 91.9647542,144.465581 L91.4352081,143.958235 C91.2621567,143.792438 91.0924956,143.629889 90.9260036,143.470377 L90.1974355,142.772353 C90.0399536,142.621473 89.8853092,142.473311 89.7332812,142.327657 L89.2848253,141.898001 C89.2113172,141.827575 89.1384078,141.757722 89.0660697,141.688416 L88.4297023,141.078727 C88.3605426,141.012467 88.2918711,140.946674 88.2236603,140.881323 L87.8197017,140.494299 C87.4873074,140.17584 87.1650471,139.867089 86.849466,139.564738 L86.4737536,139.204777 C86.3494374,139.085672 86.2259688,138.967379 86.1031266,138.849687 L85.1901018,137.974939 C85.0690101,137.858923 84.947992,137.742979 84.8268266,137.626893 L82.1848449,135.095669 C82.1178132,135.031448 82.0503578,134.96682 81.982451,134.90176 L81.358355,134.303828 C81.2874909,134.235935 81.2160924,134.167529 81.144132,134.098586 L80.7054047,133.678251 C80.556767,133.535845 80.4056603,133.391073 80.2518634,133.243723 L79.2950322,132.327005 C79.1295905,132.168499 78.9610165,132.006992 78.7890891,131.842272 L77.4333018,130.543323 C77.2432254,130.361215 77.0492427,130.175364 76.8511328,129.98556 C76.7528226,129.891371 76.6570995,129.799661 76.5638521,129.710322 L75.3368934,128.534801 C74.1252097,127.373914 73.4680218,126.744277 72.8179886,126.121495 L72.4715139,125.789545 C72.4324225,125.752093 72.3930217,125.714344 72.3532,125.676191 L72.1083282,125.441585 C71.730771,125.079856 71.3010754,124.668174 70.7380262,124.128729 C70.6167344,124.012523 70.5041063,123.904616 70.3993993,123.804299 L69.7510141,123.183095 C69.5417858,122.982638 69.3871387,122.834475 69.2670227,122.719394 L69.1102407,122.569185 C69.0800415,122.540252 69.0525652,122.513927 69.0270692,122.4895 L68.8002968,122.272235 C68.7692004,122.242442 68.7367115,122.211315 68.7003239,122.176453 C65.099892,118.72696 65.099892,113.134227 68.7003239,109.684734 C72.3007559,106.235241 78.1382094,106.235241 81.7386413,109.684734 C81.7750288,109.719596 81.8075177,109.750723 81.8386142,109.780516 L81.8996933,109.839034 C81.9401651,109.877809 81.9811321,109.917059 82.0285349,109.962474 L82.1052086,110.035934 C82.1190396,110.049185 82.1334585,110.062999 82.1485581,110.077466 L82.3053401,110.227675 C82.4454754,110.361936 82.6326114,110.541226 82.8985869,110.796052 L83.1466163,111.033683 C83.19142,111.076608 83.2380183,111.121253 83.2865041,111.167706 L83.6008108,111.468836 L83.7763435,111.63701 C84.2142707,112.056579 84.5715272,112.398858 84.8863253,112.700459 L85.3915174,113.184472 C85.5109824,113.298929 85.6266597,113.409757 85.7415571,113.519837 L86.0869178,113.85072 C86.1644816,113.925032 86.2430357,114.000293 86.3234713,114.077356 L86.571314,114.314809 C86.9967637,114.722423 87.491533,115.19645 88.1670288,115.843627 L89.6021695,117.218603 L89.8894501,117.493841 C90.0875601,117.683645 90.2815427,117.869496 90.4716192,118.051604 L91.8274064,119.350553 C92.5151162,120.009432 93.1491712,120.616906 93.7437221,121.186532 L94.1824494,121.606867 C94.2544098,121.67581 94.3258082,121.744216 94.3966723,121.812109 L95.0207684,122.410041 C95.0886752,122.475101 95.1561306,122.539729 95.2231622,122.60395 L95.6204876,122.984619 C95.8168287,123.172729 96.0098532,123.357661 96.2003074,123.540131 L97.1346136,124.435269 C97.6251715,124.905261 98.1062956,125.366216 98.5921367,125.831689 L99.141444,126.357968 C99.6942337,126.887584 100.259709,127.429353 100.858019,128.00258 L101.261978,128.389604 C101.330188,128.454955 101.39886,128.520748 101.46802,128.587008 L102.104387,129.196697 C102.176725,129.266003 102.249635,129.335856 102.323143,129.406282 L102.771599,129.835938 C102.923627,129.981592 103.078271,130.129754 103.235753,130.280634 L103.964321,130.978658 C104.547043,131.536951 105.168587,132.132438 105.838433,132.774203 L106.727026,133.625544 C107.032593,133.918301 107.347778,134.220272 107.673327,134.532174 L107.835963,134.687561 L158.275498,86.5736025 Z" id="路径" fill="url(#linearGradient-7)"></path>
                        </g>
                    </g>
                    <ellipse id="椭圆形" fill="url(#linearGradient-8)" filter="url(#filter-9)" mask="url(#mask-3)" cx="-45.5275862" cy="-36.2633333" rx="156.817241" ry="215.05"></ellipse>
                </g>
                <g id="header">
                    <polygon id="矩形" points="0 0 978 0 978 252 1.34336986e-14 252"></polygon>
                    <text id="患者得到救助，无需前往现场" font-family="PingFangSC-Semibold, PingFang SC" font-size="60" font-weight="500" fill="#823F1F">
                        <tspan x="99" y="160">患者得到救助，无需前往现场</tspan>
                    </text>
                </g>
            </g>
        </g>
    </g>
</svg>