<?xml version="1.0" encoding="UTF-8"?>
<svg width="120px" height="120px" viewBox="0 0 120 120" version="1.1" xmlns="http://www.w3.org/2000/svg" xmlns:xlink="http://www.w3.org/1999/xlink">
    <title>SOS_M_icon</title>
    <defs>
        <filter x="-17.5%" y="-17.5%" width="135.0%" height="135.0%" filterUnits="objectBoundingBox" id="filter-1">
            <feOffset dx="0" dy="0" in="SourceAlpha" result="shadowOffsetOuter1"></feOffset>
            <feGaussianBlur stdDeviation="7" in="shadowOffsetOuter1" result="shadowBlurOuter1"></feGaussianBlur>
            <feColorMatrix values="0 0 0 0 0.738620924   0 0 0 0 0.193883973   0 0 0 0 0.0581551383  0 0 0 0.329955201 0" type="matrix" in="shadowBlurOuter1" result="shadowMatrixOuter1"></feColorMatrix>
            <feMerge>
                <feMergeNode in="shadowMatrixOuter1"></feMergeNode>
                <feMergeNode in="SourceGraphic"></feMergeNode>
            </feMerge>
        </filter>
        <linearGradient x1="30.7117718%" y1="-5.75928194e-14%" x2="76.330462%" y2="92.7437245%" id="linearGradient-2">
            <stop stop-color="#FF8758" offset="0%"></stop>
            <stop stop-color="#E01E1E" offset="100%"></stop>
        </linearGradient>
        <circle id="path-3" cx="60" cy="60" r="60"></circle>
        <filter x="-15.8%" y="-15.8%" width="131.7%" height="131.7%" filterUnits="objectBoundingBox" id="filter-5">
            <feGaussianBlur stdDeviation="11.5" in="SourceAlpha" result="shadowBlurInner1"></feGaussianBlur>
            <feOffset dx="0" dy="14" in="shadowBlurInner1" result="shadowOffsetInner1"></feOffset>
            <feComposite in="shadowOffsetInner1" in2="SourceAlpha" operator="arithmetic" k2="-1" k3="1" result="shadowInnerInner1"></feComposite>
            <feColorMatrix values="0 0 0 0 1   0 0 0 0 0.798208841   0 0 0 0 0.798208841  0 0 0 0.5 0" type="matrix" in="shadowInnerInner1" result="shadowMatrixInner1"></feColorMatrix>
            <feGaussianBlur stdDeviation="11.5" in="SourceAlpha" result="shadowBlurInner2"></feGaussianBlur>
            <feOffset dx="-15" dy="-11" in="shadowBlurInner2" result="shadowOffsetInner2"></feOffset>
            <feComposite in="shadowOffsetInner2" in2="SourceAlpha" operator="arithmetic" k2="-1" k3="1" result="shadowInnerInner2"></feComposite>
            <feColorMatrix values="0 0 0 0 0.967872509   0 0 0 0 0.246674238   0 0 0 0 0  0 0 0 0.673131556 0" type="matrix" in="shadowInnerInner2" result="shadowMatrixInner2"></feColorMatrix>
            <feMerge>
                <feMergeNode in="shadowMatrixInner1"></feMergeNode>
                <feMergeNode in="shadowMatrixInner2"></feMergeNode>
            </feMerge>
        </filter>
        <filter x="-154.9%" y="-247.2%" width="409.7%" height="594.4%" filterUnits="objectBoundingBox" id="filter-6">
            <feGaussianBlur stdDeviation="57.0810811" in="SourceGraphic"></feGaussianBlur>
        </filter>
        <filter x="-95.5%" y="-206.2%" width="291.1%" height="512.5%" filterUnits="objectBoundingBox" id="filter-7">
            <feGaussianBlur stdDeviation="36.5318919" in="SourceGraphic"></feGaussianBlur>
        </filter>
        <linearGradient x1="54.8656722%" y1="45.4141925%" x2="47.2735956%" y2="58.14703%" id="linearGradient-8">
            <stop stop-color="#FFF2B9" offset="0%"></stop>
            <stop stop-color="#FFB74E" stop-opacity="0.634751967" offset="100%"></stop>
        </linearGradient>
        <filter x="-73.8%" y="-206.7%" width="247.6%" height="513.3%" filterUnits="objectBoundingBox" id="filter-9">
            <feGaussianBlur stdDeviation="22.8324324" in="SourceGraphic"></feGaussianBlur>
        </filter>
        <path d="M68.2611531,40.3374289 L68.2611531,40.5106533 C65.9137809,38.4887777 62.8475985,37.4136098 59.6984125,37.5080975 C56.5214824,37.3929725 53.4294448,38.5093493 51.1156656,40.6068891 C48.8442653,42.967304 47.6672401,46.1142828 47.8546218,49.3258493 L47.8546218,70.305246 C47.6548367,73.5046122 48.8012306,76.646802 51.03564,79.0242063 C56.0380869,82.9278979 63.1986869,82.9278979 68.2011338,79.0242063 C70.5169081,76.6866243 71.7197051,73.5288585 71.5221967,70.305246 L71.5221967,49.1333778 C71.7708778,45.8904623 70.5869059,42.6969581 68.2611531,40.3374289 L68.2611531,40.3374289 Z M63.3595843,49.0563892 L63.3595843,70.555459 C63.3815103,71.5936935 63.0436551,72.6094232 62.399277,73.442532 C61.6990326,74.1672512 60.7169104,74.5789734 59.6884093,74.5789734 C58.6599082,74.5789734 57.6777861,74.1672512 56.9775417,73.442532 C56.3235751,72.5590346 56.0120994,71.4830006 56.09726,70.4014818 L56.09726,49.0563892 C56.0535769,48.0391281 56.3789181,47.0389068 57.0175545,46.2270577 C57.6940394,45.5688112 58.6162001,45.1983808 59.5783741,45.1983808 C60.540548,45.1983808 61.4627088,45.5688112 62.1391937,46.2270577 L62.4592961,46.5735064 C62.9644179,47.1592697 63.2777117,47.8759418 63.3595843,48.6329518 C63.3796011,48.7734408 63.3796011,48.9159002 63.3595843,49.0563892 L63.3595843,49.0563892 Z M37.8519005,58.218104 C36.9115995,57.2942376 35.1910489,55.2925269 34.2307415,54.3686605 C33.5705302,53.7527495 32.8502997,52.9251192 32.2301013,52.3477026 C31.691719,51.8131599 31.2215778,51.2187076 30.829653,50.5769585 C30.3543566,49.8690736 30.0849285,49.0515839 30.0494033,48.2095507 C30.0129906,47.279324 30.286356,46.3622237 30.829653,45.591929 C31.2870342,44.9593809 32.0296531,44.5735841 32.8302933,44.5525793 C33.9217534,44.4019996 34.9987655,44.9048335 35.5511642,45.8228957 C35.8443355,46.3918596 36.0853269,46.9843561 36.2713947,47.5936397 C36.739742,49.1250145 38.2350779,50.1503095 39.8925536,50.0765308 C41.0220126,50.0492794 42.0759098,49.5245611 42.7512972,48.6532089 C43.4266846,47.7818566 43.6487506,46.6603885 43.3536613,45.6111763 C42.7564709,43.6787182 41.7328539,41.8929951 40.352701,40.3759329 C38.4916593,38.4457214 35.8445537,37.3975124 33.110383,37.5080975 C30.1494759,37.4180309 27.2993621,38.5951706 25.3278922,40.7223828 C23.4083597,42.9733428 22.4056918,45.8193125 22.5069893,48.7292256 C22.9602321,53.2527337 25.0907236,57.4681714 28.5089103,60.6047591 C29.5492432,61.6248616 31.3498195,63.9152806 32.3501396,64.9546304 C33.4160809,66.0225397 34.3864967,67.1750421 35.2510681,68.3998824 C35.8646283,69.3308996 36.1778928,70.415857 36.1513562,71.5179317 C36.1513562,74.1740479 35.151036,75.3673754 33.1704022,75.3673753 C32.5542667,75.3730729 31.9520389,75.191176 31.4498515,74.8477004 C30.94192,74.4990475 30.5577636,74.0085157 30.3494993,73.4426535 C30.2466688,73.1521388 30.1598535,72.8566034 30.0894161,72.5572815 C29.5369546,70.5960566 27.4364978,69.4370334 25.3979146,69.9685306 C23.3593314,70.5000279 22.1545918,72.5207785 22.7070534,74.4820033 C23.2505671,76.099153 24.0759216,77.615629 25.1478345,78.9666051 C26.9645925,80.9863605 29.541252,82.2286682 32.3104817,82.4199958 C35.0797114,82.6113233 37.81445,81.7359828 39.9125601,79.9867077 C40.2889907,79.6758882 40.6370417,79.3346054 40.952893,78.9666051 C42.6351591,77.1187668 43.6954658,74.8236068 43.9938663,72.3840565 C44.0338919,72.0258069 44.0338919,71.664462 43.9938663,71.3062123 C43.9385657,69.0229378 43.4363023,66.7701626 42.5133924,64.6659221 C41.3273621,62.2766651 39.7311605,60.0968507 37.7918813,58.218104 L37.8519005,58.218104 Z M96.109586,64.4542027 C94.8787025,62.1492007 93.2786466,60.0447887 91.3680684,58.218104 C90.4477738,57.3134848 87.7469095,54.5611326 87.7469095,54.5611326 C87.0666918,53.9067272 86.386474,53.1945802 85.7462691,52.4631859 C85.2138417,51.8681936 84.744685,51.2234028 84.3458209,50.538464 C83.8910421,49.8425702 83.6229414,49.0489484 83.5655712,48.2287979 C83.5204534,47.2795598 83.7940179,46.3415468 84.3458209,45.5534346 C84.8285847,44.9366876 85.5839566,44.5733337 86.386474,44.5718265 C87.4585733,44.5157673 88.4606475,45.0850871 88.9272872,46.0153678 C89.1469369,46.5235476 89.3340138,47.0441981 89.4874665,47.5743925 C89.929743,49.1958133 91.4664646,50.3165416 93.2086575,50.2882502 C94.3348008,50.2564658 95.3853436,49.735556 96.0656665,48.8716073 C96.7459894,48.0076586 96.9828338,46.8937027 96.709778,45.8421429 C96.1662912,43.8720893 95.1831862,42.0396037 93.828856,40.4721691 C91.9523242,38.5518782 89.3042526,37.5061753 86.5665317,37.6043335 C83.5363628,37.4401976 80.5925999,38.6084206 78.5639704,40.7801245 C76.6580883,43.0469669 75.6512504,45.8914689 75.7230612,48.8062145 C76.1898773,53.3698839 78.3827022,57.6096592 81.8850333,60.7202424 C82.9053599,61.6826034 85.7262627,64.7621582 85.7262627,64.7621582 C86.8074367,65.8170503 87.7790179,66.9709368 88.6271912,68.2074102 C89.2264862,69.1383531 89.545103,70.2111948 89.5474857,71.3062123 C89.5474857,73.9623285 88.5471655,75.155656 86.5465252,75.1556559 C85.9300722,75.1445651 85.3310489,74.9569351 84.8259746,74.6167339 C84.3692043,74.2611257 84.0402517,73.776321 83.8856736,73.2309341 C83.8139865,73.0648538 83.7668465,72.8899277 83.7456288,72.7112593 C83.4683049,71.4213629 82.4807255,70.3802386 81.1708426,69.9968722 C79.8609597,69.6135058 78.4380274,69.9491403 77.4610176,70.871928 C76.4840079,71.7947157 76.1089984,73.157241 76.4833045,74.4242617 C77.0247582,76.088961 77.8717283,77.6469161 78.9841049,79.0243467 C80.7800141,81.0333144 83.3320092,82.2735189 86.07852,82.4720516 C88.8250309,82.6705842 91.5410062,81.811177 93.628792,80.0829437 C94.0136646,79.7542796 94.3746286,79.4005823 94.7091378,79.0243467 C96.3601695,77.0123869 97.3244694,74.5586678 97.4700213,71.9991121 C97.5099929,71.6537293 97.5099929,71.3051452 97.4700213,70.9597624 C97.548184,68.7128207 97.0608725,66.480976 96.0495667,64.4542027 L96.109586,64.4542027 Z" id="path-10"></path>
        <filter x="-22.7%" y="-28.9%" width="145.3%" height="175.6%" filterUnits="objectBoundingBox" id="filter-11">
            <feOffset dx="0" dy="4" in="SourceAlpha" result="shadowOffsetOuter1"></feOffset>
            <feGaussianBlur stdDeviation="5" in="shadowOffsetOuter1" result="shadowBlurOuter1"></feGaussianBlur>
            <feColorMatrix values="0 0 0 0 1   0 0 0 0 0.250228659   0 0 0 0 0.447338563  0 0 0 1 0" type="matrix" in="shadowBlurOuter1"></feColorMatrix>
        </filter>
    </defs>
    <g id="页面-1" stroke="none" stroke-width="1" fill="none" fill-rule="evenodd">
        <g id="0.1已呼救已响应界面标注" transform="translate(-234, -3610)">
            <g id="呼救时间" transform="translate(222, 3598)">
                <g id="SOS" transform="translate(12, 12)" filter="url(#filter-1)">
                    <g id="椭圆形-+-椭圆形备份-2-蒙版">
                        <mask id="mask-4" fill="white">
                            <use xlink:href="#path-3"></use>
                        </mask>
                        <g id="蒙版">
                            <use fill="url(#linearGradient-2)" fill-rule="evenodd" xlink:href="#path-3"></use>
                            <use fill="black" fill-opacity="1" filter="url(#filter-5)" xlink:href="#path-3"></use>
                        </g>
                        <path d="M81.3804992,120 L35.851543,129 L-17.3246855,115.813039 L-29.1991136,99.2917847 L-5,59.7259875 C8.20953142,78.7886498 19.1872475,91.9772489 27.9331483,99.2917847 C36.6790491,106.606321 54.4948328,113.509059 81.3804992,120 Z" id="路径-3" fill="#FF0000" opacity="0.291027618" filter="url(#filter-6)" mask="url(#mask-4)"></path>
                        <path d="M78.3552451,123.583997 C113.563398,123.583997 146.578571,98.9878251 146.578571,91.531981 C146.578571,84.0761369 115.967926,93.5116098 80.7597727,93.5116098 C45.5516199,93.5116098 31.8740596,64.1992158 31.8740596,71.6550599 C31.8740596,79.110904 43.1470923,123.583997 78.3552451,123.583997 Z" id="椭圆形" fill="#FFAD4B" filter="url(#filter-7)" mask="url(#mask-4)" transform="translate(89.2263, 97.0123) rotate(-39) translate(-89.2263, -97.0123)"></path>
                        <path d="M89.1202098,23.289014 C110.795552,26.3796251 133.118773,35.9815974 133.118773,28.5257533 C133.118773,21.0699091 110.743272,-1.84678243 90.0325937,-1.84678243 C69.3219156,-1.84678243 40.2830596,17.0654234 40.2830596,24.5212675 C40.2830596,31.9771116 67.4448678,20.198403 89.1202098,23.289014 Z" id="椭圆形备份-2" fill="url(#linearGradient-8)" filter="url(#filter-9)" mask="url(#mask-4)" transform="translate(86.7009, 14.7258) rotate(-330) translate(-86.7009, -14.7258)"></path>
                    </g>
                    <g id="形状" fill-rule="nonzero">
                        <use fill="black" fill-opacity="1" filter="url(#filter-11)" xlink:href="#path-10"></use>
                        <use fill="#FFFFFF" xlink:href="#path-10"></use>
                    </g>
                </g>
            </g>
        </g>
    </g>
</svg>