<?xml version="1.0" encoding="UTF-8"?>
<svg width="48px" height="48px" viewBox="0 0 48 48" version="1.1" xmlns="http://www.w3.org/2000/svg" xmlns:xlink="http://www.w3.org/1999/xlink">
    <title>前往现场_icon</title>
    <g id="页面-1" stroke="none" stroke-width="1" fill="none" fill-rule="evenodd">
        <g id="0.1已呼救已响应界面标注" transform="translate(-267, -4506)">
            <g id="按钮" transform="translate(222, 4476)">
                <g id="前往现场" transform="translate(45, 30)">
                    <rect id="矩形" fill-opacity="0" fill="#D8D8D8" x="0" y="0" width="48" height="48"></rect>
                    <path d="M43.8773443,5.63495265 C44.0408852,6.12556691 44.0408852,6.65598903 43.8773443,7.14660329 L32.1376588,42.3650474 C31.7202208,43.6173397 30.3666191,44.2941288 29.114305,43.876698 C28.4742139,43.663338 27.9541178,43.1893857 27.6823839,42.5718195 L21.2568316,27.9685454 C21.0160482,27.4213201 20.5789211,26.9842005 20.0316862,26.7434214 L5.42815824,20.3179808 C4.21989202,19.7863529 3.67137577,18.3759071 4.20301291,17.1676619 C4.47474677,16.5500956 4.99484292,16.0761433 5.63493397,15.8627834 L40.8539905,4.12330201 C42.1063046,3.70587122 43.4599062,4.38266026 43.8773443,5.63495265 Z M38.8136585,9.06142857 L10.8136585,18.4380219 L21.7339724,23.2648074 C23.0481033,23.8456459 24.1055743,24.8644249 24.729695,26.1335105 L24.8415961,26.3743516 L29.5222338,37.0614286 L38.8136585,9.06142857 Z" id="三角形" fill="#333333" fill-rule="nonzero"></path>
                </g>
            </g>
        </g>
    </g>
</svg>