<?xml version="1.0" encoding="UTF-8"?>
<svg width="120px" height="132px" viewBox="0 0 120 132" version="1.1" xmlns="http://www.w3.org/2000/svg" xmlns:xlink="http://www.w3.org/1999/xlink">
    <title>响应位置S_icon</title>
    <defs>
        <path d="M60,0 C93.137085,-6.08718376e-15 120,26.862915 120,60 C120,87.5530335 101.427799,110.768297 76.119132,117.810056 L62.8284271,130.850344 C61.26633,132.383219 58.73367,132.383219 57.1715729,130.850344 L43.8818659,117.810333 C18.5726892,110.768907 3.37431778e-15,87.5533956 0,60 C-4.05812251e-15,26.862915 26.862915,6.08718376e-15 60,0 Z" id="path-1"></path>
        <filter x="-25.0%" y="-13.6%" width="150.0%" height="145.5%" filterUnits="objectBoundingBox" id="filter-2">
            <feOffset dx="0" dy="12" in="SourceAlpha" result="shadowOffsetOuter1"></feOffset>
            <feGaussianBlur stdDeviation="8" in="shadowOffsetOuter1" result="shadowBlurOuter1"></feGaussianBlur>
            <feColorMatrix values="0 0 0 0 0.2   0 0 0 0 0.2   0 0 0 0 0.2  0 0 0 0.2 0" type="matrix" in="shadowBlurOuter1"></feColorMatrix>
        </filter>
        <filter x="-17.2%" y="-17.2%" width="134.4%" height="134.4%" filterUnits="objectBoundingBox" id="filter-3">
            <feOffset dx="0" dy="0" in="SourceAlpha" result="shadowOffsetOuter1"></feOffset>
            <feGaussianBlur stdDeviation="5.5" in="shadowOffsetOuter1" result="shadowBlurOuter1"></feGaussianBlur>
            <feColorMatrix values="0 0 0 0 0.108193761   0 0 0 0 0.738620924   0 0 0 0 0.0581551383  0 0 0 0.329955201 0" type="matrix" in="shadowBlurOuter1" result="shadowMatrixOuter1"></feColorMatrix>
            <feMerge>
                <feMergeNode in="shadowMatrixOuter1"></feMergeNode>
                <feMergeNode in="SourceGraphic"></feMergeNode>
            </feMerge>
        </filter>
        <linearGradient x1="30.7117718%" y1="-5.75928194e-14%" x2="76.330462%" y2="92.7437245%" id="linearGradient-4">
            <stop stop-color="#9EFF00" offset="0%"></stop>
            <stop stop-color="#0E9100" offset="100%"></stop>
        </linearGradient>
        <circle id="path-5" cx="48" cy="48" r="48"></circle>
        <filter x="-15.6%" y="-15.6%" width="131.2%" height="131.2%" filterUnits="objectBoundingBox" id="filter-7">
            <feGaussianBlur stdDeviation="9" in="SourceAlpha" result="shadowBlurInner1"></feGaussianBlur>
            <feOffset dx="0" dy="11" in="shadowBlurInner1" result="shadowOffsetInner1"></feOffset>
            <feComposite in="shadowOffsetInner1" in2="SourceAlpha" operator="arithmetic" k2="-1" k3="1" result="shadowInnerInner1"></feComposite>
            <feColorMatrix values="0 0 0 0 0.798208841   0 0 0 0 1   0 0 0 0 0.828085046  0 0 0 0.668433129 0" type="matrix" in="shadowInnerInner1" result="shadowMatrixInner1"></feColorMatrix>
            <feGaussianBlur stdDeviation="9" in="SourceAlpha" result="shadowBlurInner2"></feGaussianBlur>
            <feOffset dx="-12" dy="-9" in="shadowBlurInner2" result="shadowOffsetInner2"></feOffset>
            <feComposite in="shadowOffsetInner2" in2="SourceAlpha" operator="arithmetic" k2="-1" k3="1" result="shadowInnerInner2"></feComposite>
            <feColorMatrix values="0 0 0 0 0.00290099947   0 0 0 0 0.623952672   0 0 0 0 0.045788309  0 0 0 0.739319274 0" type="matrix" in="shadowInnerInner2" result="shadowMatrixInner2"></feColorMatrix>
            <feMerge>
                <feMergeNode in="shadowMatrixInner1"></feMergeNode>
                <feMergeNode in="shadowMatrixInner2"></feMergeNode>
            </feMerge>
        </filter>
        <filter x="-154.9%" y="-247.2%" width="409.7%" height="594.4%" filterUnits="objectBoundingBox" id="filter-8">
            <feGaussianBlur stdDeviation="45.6648649" in="SourceGraphic"></feGaussianBlur>
        </filter>
        <filter x="-95.5%" y="-206.2%" width="291.1%" height="512.5%" filterUnits="objectBoundingBox" id="filter-9">
            <feGaussianBlur stdDeviation="29.2255135" in="SourceGraphic"></feGaussianBlur>
        </filter>
        <linearGradient x1="36.1740657%" y1="151.332721%" x2="36.1740657%" y2="14.0247516%" id="linearGradient-10">
            <stop stop-color="#F9FC0F" offset="0%"></stop>
            <stop stop-color="#06F5E1" stop-opacity="0.634751967" offset="100%"></stop>
        </linearGradient>
        <filter x="-73.8%" y="-206.7%" width="247.6%" height="513.3%" filterUnits="objectBoundingBox" id="filter-11">
            <feGaussianBlur stdDeviation="18.2659459" in="SourceGraphic"></feGaussianBlur>
        </filter>
        <radialGradient cx="33.3757178%" cy="25.3533589%" fx="33.3757178%" fy="25.3533589%" r="70.1722217%" gradientTransform="translate(0.3338, 0.2535), scale(0.8026, 1), rotate(51.5043), translate(-0.3338, -0.2535)" id="radialGradient-12">
            <stop stop-color="#FFFFFF" stop-opacity="0.957823427" offset="0%"></stop>
            <stop stop-color="#FFFFFF" stop-opacity="0.875355114" offset="99.9006782%"></stop>
            <stop stop-color="#FFFFFF" stop-opacity="0.848311844" offset="100%"></stop>
        </radialGradient>
        <linearGradient x1="50%" y1="8.96680633%" x2="50%" y2="81.6139859%" id="linearGradient-13">
            <stop stop-color="#FFFFFF" stop-opacity="0.9" offset="0%"></stop>
            <stop stop-color="#FFFFFF" stop-opacity="0.800099322" offset="99.9006782%"></stop>
            <stop stop-color="#FFFFFF" stop-opacity="0.8" offset="100%"></stop>
        </linearGradient>
        <path d="M35.0928159,5.93918689 L38,8.80688 L40.9071841,5.93918689 C48.9351512,-1.97972896 61.9510576,-1.97972896 69.9790247,5.93918689 C78.0069918,13.8581027 78.0069918,26.6972021 69.9790247,34.616118 L42.6514945,59.0994602 C40.082545,61.6335133 35.917455,61.6335133 33.3485055,59.0994602 L6.02097533,34.616118 C-2.00699178,26.6972021 -2.00699178,13.8581027 6.02097533,5.93918689 C14.0489424,-1.97972896 27.0648488,-1.97972896 35.0928159,5.93918689 Z" id="path-14"></path>
        <linearGradient x1="22.1967735%" y1="59.451289%" x2="82.7282448%" y2="22.651232%" id="linearGradient-16">
            <stop stop-color="#74E41A" stop-opacity="0.111177885" offset="1.53518357%"></stop>
            <stop stop-color="#A2F75D" stop-opacity="0.41796875" offset="100%"></stop>
        </linearGradient>
        <linearGradient x1="7.9286291%" y1="38.5517298%" x2="-5.42304494%" y2="42.4857333%" id="linearGradient-17">
            <stop stop-color="#A8FF60" stop-opacity="0" offset="0%"></stop>
            <stop stop-color="#78E530" offset="100%"></stop>
        </linearGradient>
        <path d="M27.1617927,12.4030608 C24.6519812,10.6671156 21.9458308,9.53549983 19.0433416,9.00821347 C14.2320928,8.13416856 10.4981162,10.4248053 7.84141173,15.8801237 C11.403167,15.1611014 15.6698264,17.8241127 20.6413898,23.8691578 C23.3414003,27.1521662 26.2816869,31.3079776 29.4622496,36.3365918 L29.4606288,36.3376165 C33.3614752,42.5077013 41.5255781,44.3472826 47.6956629,40.4464362 C48.5393946,39.9130128 49.3199831,39.2857261 50.0224982,38.5765743 C57.9223613,30.5985983 62.9072211,25.8422103 64.9779084,24.3082332 C72.9965391,18.3679852 79.7029415,16.6119544 79.7029415,16.6119544 C79.7029415,16.6119544 66.2356593,-2.0937904 66.2356593,-2.0937904 C66.2356593,-2.0937904 53.2383685,-3.48151627 46.0216083,1.63636718 C42.6352282,4.03787401 39.2935246,7.2221073 35.9964977,11.189067 L35.9996955,11.1917251 C33.8119164,13.8237022 29.9766694,14.3498922 27.1608684,12.4043986 Z" id="path-18"></path>
        <linearGradient x1="32.7398707%" y1="4.19387806%" x2="50%" y2="43.6283688%" id="linearGradient-19">
            <stop stop-color="#FFFFFF" offset="0%"></stop>
            <stop stop-color="#FFFFFF" stop-opacity="0" offset="100%"></stop>
        </linearGradient>
        <linearGradient x1="40.9047041%" y1="19.8130522%" x2="58.392736%" y2="48.1821837%" id="linearGradient-20">
            <stop stop-color="#FFFFFF" offset="0%"></stop>
            <stop stop-color="#FFFFFF" stop-opacity="0" offset="100%"></stop>
        </linearGradient>
        <linearGradient x1="38.7552203%" y1="21.0015795%" x2="51.8016052%" y2="46.0835917%" id="linearGradient-21">
            <stop stop-color="#FFFFFF" offset="0%"></stop>
            <stop stop-color="#FFFFFF" stop-opacity="0" offset="100%"></stop>
        </linearGradient>
        <linearGradient x1="18.0921742%" y1="2.15930854%" x2="61.7061917%" y2="93.4782156%" id="linearGradient-22">
            <stop stop-color="#9EFF00" offset="0%"></stop>
            <stop stop-color="#12BA00" offset="100%"></stop>
        </linearGradient>
        <path d="M11.5652174,0 C13.3901583,1.08853003e-16 14.8695652,1.47940691 14.8695652,3.30434783 L14.869,8.243 L19.8331375,8.24324324 C21.6541845,8.24324324 23.1304348,9.71949353 23.1304348,11.5405405 C23.1304348,13.3615876 21.6541845,14.8378378 19.8331375,14.8378378 L14.869,14.837 L14.8695652,19.7767333 C14.8695652,21.6016742 13.3901583,23.0810811 11.5652174,23.0810811 C9.74027648,23.0810811 8.26086957,21.6016742 8.26086957,19.7767333 L8.26,14.837 L3.2972973,14.8378378 C1.47625028,14.8378378 2.2301394e-16,13.3615876 0,11.5405405 C-2.2301394e-16,9.71949353 1.47625028,8.24324324 3.2972973,8.24324324 L8.26,8.243 L8.26086957,3.30434783 C8.26086957,1.47940691 9.74027648,7.79325417e-16 11.5652174,0 Z" id="path-23"></path>
        <filter x="-23.8%" y="-15.2%" width="147.6%" height="147.7%" filterUnits="objectBoundingBox" id="filter-24">
            <feOffset dx="0" dy="2" in="SourceAlpha" result="shadowOffsetOuter1"></feOffset>
            <feGaussianBlur stdDeviation="1.5" in="shadowOffsetOuter1" result="shadowBlurOuter1"></feGaussianBlur>
            <feColorMatrix values="0 0 0 0 0.188327278   0 0 0 0 0.879387455   0 0 0 0 0.0302792136  0 0 0 0.5 0" type="matrix" in="shadowBlurOuter1"></feColorMatrix>
        </filter>
        <linearGradient x1="50%" y1="-11.4807201%" x2="50%" y2="87.4117544%" id="linearGradient-25">
            <stop stop-color="#FFFFFF" offset="0%"></stop>
            <stop stop-color="#FFFFFF" stop-opacity="0.498579545" offset="100%"></stop>
        </linearGradient>
        <linearGradient x1="100%" y1="50%" x2="8.87528906%" y2="50%" id="linearGradient-26">
            <stop stop-color="#FFFFFF" offset="0%"></stop>
            <stop stop-color="#FFFFFF" stop-opacity="0.213833042" offset="100%"></stop>
        </linearGradient>
    </defs>
    <g id="页面-1" stroke="none" stroke-width="1" fill="none" fill-rule="evenodd">
        <g id="0.1已呼救已响应界面标注" transform="translate(-258, -4133)">
            <g id="响应人" transform="translate(258, 4133)">
                <g id="形状结合">
                    <use fill="black" fill-opacity="1" filter="url(#filter-2)" xlink:href="#path-1"></use>
                    <use fill="#FFFFFF" fill-rule="evenodd" xlink:href="#path-1"></use>
                </g>
                <g filter="url(#filter-3)" transform="translate(12, 12)">
                    <g id="椭圆形-+-椭圆形备份-2-蒙版">
                        <mask id="mask-6" fill="white">
                            <use xlink:href="#path-5"></use>
                        </mask>
                        <g id="蒙版">
                            <use fill="url(#linearGradient-4)" fill-rule="evenodd" xlink:href="#path-5"></use>
                            <use fill="black" fill-opacity="1" filter="url(#filter-7)" xlink:href="#path-5"></use>
                        </g>
                        <path d="M65.1043994,96 L28.6812344,103.2 L-13.8597484,92.6504312 L-23.3592909,79.4334277 L-4,47.78079 C6.56762514,63.0309198 15.349798,73.5817991 22.3465187,79.4334277 C29.3432393,85.2850564 43.5958662,90.8072472 65.1043994,96 Z" id="路径-3" fill="#00FF30" opacity="0.291027618" filter="url(#filter-8)" mask="url(#mask-6)"></path>
                        <path d="M62.6841961,98.8671979 C90.8507183,98.8671979 117.262857,79.1902601 117.262857,73.2255848 C117.262857,67.2609095 92.7743404,74.8092878 64.6078182,74.8092878 C36.441296,74.8092878 25.4992477,51.3593726 25.4992477,57.3240479 C25.4992477,63.2887232 34.5176738,98.8671979 62.6841961,98.8671979 Z" id="椭圆形" fill="#05A959" filter="url(#filter-9)" mask="url(#mask-6)" transform="translate(71.3811, 77.6099) rotate(-39) translate(-71.3811, -77.6099)"></path>
                        <path d="M71.2961679,18.6312112 C88.6364415,21.1037 106.495018,28.7852779 106.495018,22.8206026 C106.495018,16.8559273 88.5946174,-1.47742595 72.0260749,-1.47742595 C55.4575325,-1.47742595 32.2264477,13.6523387 32.2264477,19.617014 C32.2264477,25.5816893 53.9558942,16.1587224 71.2961679,18.6312112 Z" id="椭圆形备份-2" fill="url(#linearGradient-10)" filter="url(#filter-11)" mask="url(#mask-6)" transform="translate(69.3607, 11.7807) rotate(-330) translate(-69.3607, -11.7807)"></path>
                    </g>
                    <g id="xiang应人" transform="translate(10, 20)">
                        <path d="M35.0928159,5.93918689 L38,8.80688 L40.9071841,5.93918689 C48.9351512,-1.97972896 61.9510576,-1.97972896 69.9790247,5.93918689 C78.0069918,13.8581027 78.0069918,26.6972021 69.9790247,34.616118 L42.6514945,59.0994602 C40.082545,61.6335133 35.917455,61.6335133 33.3485055,59.0994602 L6.02097533,34.616118 C-2.00699178,26.6972021 -2.00699178,13.8581027 6.02097533,5.93918689 C14.0489424,-1.97972896 27.0648488,-1.97972896 35.0928159,5.93918689 Z" id="bg" fill="url(#radialGradient-12)"></path>
                        <g id="蒙版">
                            <mask id="mask-15" fill="white">
                                <use xlink:href="#path-14"></use>
                            </mask>
                            <use fill="url(#linearGradient-13)" xlink:href="#path-14"></use>
                            <g id="路径-34" mask="url(#mask-15)">
                                <use fill="url(#linearGradient-16)" xlink:href="#path-18"></use>
                                <use fill="url(#linearGradient-17)" xlink:href="#path-18"></use>
                            </g>
                            <path d="M53.1490064,25.1325575 C53.1490064,25.1325575 58.4191259,18.5898606 64.7619689,15.4653018 C68.9905309,13.3822625 72.2962828,12.6975605 74.6792246,13.4111957 C77.8923641,15.3651554 78.3326226,16.8293109 76,17.8036622 C64.0274831,22.804659 57.2197788,31.3616697 57.2197788,31.3616697 C57.2197788,31.3616697 53.1490064,25.1325575 53.1490064,25.1325575 Z" id="路径-5" fill="url(#linearGradient-19)" mask="url(#mask-15)"></path>
                            <path d="M46.7906744,21.534935 C46.7906744,21.534935 52.386856,12.5450791 60.8848314,8.49069007 C66.5501484,5.78776408 71.0715602,5.97130092 74.4490669,9.04130061 C75.8431842,11.954564 76.2028846,13.4111957 75.5281681,13.4111957 C71.5819297,13.4111957 68.5077025,14.5024672 66.1581241,15.5784785 C56.2968557,20.0945382 54.7287193,24.5645615 54.7287193,24.5645615 C54.7287193,24.5645615 46.7906744,21.534935 46.7906744,21.534935 Z" id="路径-5备份" fill="url(#linearGradient-20)" mask="url(#mask-15)"></path>
                            <path d="M40.735307,15.5784785 C40.735307,15.5784785 47.8737566,5.26943876 55.6621515,2.53983487 C60.8544148,0.720098943 65.2714676,1.56165764 68.9133098,5.06451097 C64.2633131,6.35229742 60.8538798,7.8680493 58.6850098,9.6117666 C50.8150457,15.9390211 46.6013974,19.8707293 46.6013974,19.8707293 C46.6013974,19.8707293 40.735307,15.5784785 40.735307,15.5784785 Z" id="路径-5备份-2" fill="url(#linearGradient-21)" mask="url(#mask-15)"></path>
                        </g>
                        <g id="+" transform="translate(26.4348, 19.7838)">
                            <g id="形状结合">
                                <use fill="black" fill-opacity="1" filter="url(#filter-24)" xlink:href="#path-23"></use>
                                <use fill="url(#linearGradient-22)" fill-rule="evenodd" xlink:href="#path-23"></use>
                            </g>
                            <rect id="矩形备份-12" fill="url(#linearGradient-25)" opacity="0.400000006" x="8.26086957" y="0" width="6.60869565" height="14.8378378" rx="3.30434783"></rect>
                            <rect id="矩形" fill="url(#linearGradient-26)" opacity="0.300000012" x="8.26086957" y="8.24324324" width="14.8695652" height="6.59459459" rx="3.2972973"></rect>
                        </g>
                    </g>
                </g>
            </g>
        </g>
    </g>
</svg>