<?xml version="1.0" encoding="UTF-8"?>
<svg width="48px" height="48px" viewBox="0 0 48 48" version="1.1" xmlns="http://www.w3.org/2000/svg" xmlns:xlink="http://www.w3.org/1999/xlink">
    <title>取消呼救_icon</title>
    <g id="页面-1" stroke="none" stroke-width="1" fill="none" fill-rule="evenodd">
        <g id="0.1已呼救已响应界面标注" transform="translate(-633, -2475)">
            <g id="按钮" transform="translate(222, 2445)">
                <g id="取消呼救" transform="translate(366, 0)">
                    <g id="取消呼救_icon" transform="translate(45, 30)">
                        <rect id="矩形" fill-opacity="0" fill="#D8D8D8" x="0" y="0" width="48" height="48"></rect>
                        <path d="M25.3207,5.14283072 C25.3207,3.60960142 27.1795574,2.84747308 28.255873,3.93941483 L40.3067374,16.1652357 C40.9663765,16.8344516 40.9643408,17.9099667 40.302173,18.5766806 L28.2511879,30.7104033 C27.1729552,31.7960387 25.3205793,31.032469 25.3205793,29.5023743 L25.3201661,23.8964307 L25.102354,23.9059756 C23.1068069,24.0010843 21.5777506,24.2794679 20.1238509,24.9061951 L19.9062808,25.0028374 C17.2524274,26.2166194 15.8033929,28.4242793 15.8033929,32.2389314 C15.8033929,36.6108891 18.7351502,40.3276093 22.720183,41.1808131 C24.8783031,41.6428711 24.3057583,44.8642904 22.120591,44.5544132 C13.5952515,43.3454404 7.20016606,35.8050253 7.20016606,26.8193248 C7.20016606,19.3587236 10.6123224,14.4475651 16.3137452,11.8191911 C18.3617101,10.8750728 20.5898933,10.2814666 22.9078701,9.96124203 C23.7491487,9.8450208 24.5007955,9.77372447 25.2283523,9.73292228 L25.3201661,9.72751642 L25.3207,5.14283072 Z M28.7487375,9.32294499 L28.7492715,11.4003808 C28.7492715,12.3471547 27.9817596,13.1146665 27.0349858,13.1146665 C25.8348336,13.1146665 24.7382282,13.169515 23.3770654,13.3575574 C21.3709657,13.6346967 19.4616654,14.1433498 17.749142,14.9328285 C13.2196869,17.0209217 10.6287375,20.750107 10.6287375,26.8193248 C10.6287375,29.4186214 11.2833111,31.8635365 12.434417,33.9778078 L12.5096518,34.1135736 L12.4903564,33.9776826 C12.4250225,33.4896253 12.3868068,32.9933617 12.3772213,32.4907548 L12.3748215,32.2389314 C12.3748215,27.0691867 14.6182411,23.6512504 18.4802435,21.8849022 C21.0160819,20.7250962 23.4464833,20.4368336 27.034865,20.4368336 C27.9816388,20.4368336 28.7491507,21.2043455 28.7491507,22.1511193 L28.7487375,25.3432878 L36.6742232,17.3636307 L28.7487375,9.32294499 Z" id="形状" fill="#333333" fill-rule="nonzero" transform="translate(24.0002, 24.0002) scale(-1, 1) translate(-24.0002, -24.0002)"></path>
                    </g>
                </g>
            </g>
        </g>
    </g>
</svg>