<?xml version="1.0" encoding="UTF-8"?>
<svg width="48px" height="48px" viewBox="0 0 48 48" version="1.1" xmlns="http://www.w3.org/2000/svg" xmlns:xlink="http://www.w3.org/1999/xlink">
    <title>联系现场_icon</title>
    <g id="页面-1" stroke="none" stroke-width="1" fill="none" fill-rule="evenodd">
        <g id="0.1已呼救已响应界面标注" transform="translate(-633, -4506)">
            <g id="按钮" transform="translate(222, 4476)">
                <g id="联系现场" transform="translate(366, 0)">
                    <g id="联系现场" transform="translate(45, 30)">
                        <rect id="矩形" fill-opacity="0" fill="#D8D8D8" x="0" y="0" width="48" height="48"></rect>
                        <path d="M9.48227663,4.25481516 C11.5323889,2.45524024 14.6971834,2.60967577 16.5510431,4.59975658 C16.6392547,4.69444998 16.7235868,4.79248195 16.8038428,4.89362419 L21.0363119,10.2275683 C22.6352212,12.2425844 22.3623854,15.1136462 20.4107174,16.8107231 L18.7902739,18.2197828 C18.3739711,18.5814757 18.2686901,19.1735662 18.5361604,19.6503333 C19.6768543,21.6839224 21.1062595,23.5986264 22.8282311,25.396552 C24.4463021,27.085994 26.1018877,28.4729333 27.7904232,29.5596985 C28.275411,29.8709369 28.9187846,29.8035952 29.324759,29.3978463 L30.2850479,28.4408859 C32.2120907,26.51587 35.3820772,26.4747759 37.3627013,28.347592 C37.4426077,28.4129964 37.4970894,28.4575904 37.5471409,28.5208397 L37.5578351,28.5350776 L42.4898072,33.2045985 C44.42448,35.0364091 44.5052066,38.017698 42.703709,39.9447766 L42.5779626,40.0745088 C42.5093642,40.1427784 42.4387098,40.2090724 42.3660913,40.2733046 L39.2472263,43.0319873 C36.910604,45.1013464 33.5141895,45.5867362 30.6618414,44.2595115 C25.1466049,41.6933384 19.9184055,37.5807767 14.9684027,31.9440464 C9.99983328,26.2861735 6.48216548,20.6033864 4.4321202,14.8906159 C3.40587556,12.0295093 4.24386187,8.85018244 6.56002652,6.81994766 L9.48227663,4.25481516 Z M13.2229924,7.52109743 C13.0312138,7.315227 12.7038212,7.29925091 12.4917407,7.48541384 L9.56831713,10.0515756 C8.58998163,10.9091366 8.23637932,12.2507066 8.66946056,13.4581104 C10.5252036,18.6294274 13.7574591,23.8511313 18.3830532,29.118447 C22.9476298,34.31628 27.6899799,38.0466669 32.6012993,40.3318447 C33.8048843,40.8918842 35.2375505,40.6871385 36.2241192,39.8134142 L39.3440144,37.0538197 L39.3659321,37.0332546 C39.5655827,36.8345611 39.5614998,36.5163787 39.3568126,36.3225742 L34.2308124,31.4691117 L34.2153963,31.4539804 L34.1991873,31.4408072 L34.1843327,31.4285171 L34.1732368,31.4197496 C33.9894541,31.2908972 33.7392593,31.2942151 33.5585397,31.4285448 L33.5010594,31.4781721 L32.541165,32.4347382 C30.6340168,34.3408428 27.5994301,34.6584719 25.313439,33.191447 C23.3162893,31.9060561 21.3931913,30.2950128 19.5420829,28.3622543 C17.5680913,26.3011925 15.9179459,24.0908045 14.5955672,21.7333143 C13.3326746,19.4822014 13.830268,16.6837805 15.7971511,14.9749105 L17.4168964,13.5664577 C17.6187931,13.390898 17.6470175,13.0938916 17.4816131,12.8854416 L13.2491441,7.55149753 L13.2229924,7.52109743 Z" id="路径-10" fill="#333333" fill-rule="nonzero" opacity="0.900000036"></path>
                    </g>
                </g>
            </g>
        </g>
    </g>
</svg>