<?xml version="1.0" encoding="UTF-8"?>
<svg width="96px" height="96px" viewBox="0 0 96 96" version="1.1" xmlns="http://www.w3.org/2000/svg" xmlns:xlink="http://www.w3.org/1999/xlink">
    <title>SOS_S_icon</title>
    <defs>
        <filter x="-17.2%" y="-17.2%" width="134.4%" height="134.4%" filterUnits="objectBoundingBox" id="filter-1">
            <feOffset dx="0" dy="0" in="SourceAlpha" result="shadowOffsetOuter1"></feOffset>
            <feGaussianBlur stdDeviation="5.5" in="shadowOffsetOuter1" result="shadowBlurOuter1"></feGaussianBlur>
            <feColorMatrix values="0 0 0 0 0.738620924   0 0 0 0 0.193883973   0 0 0 0 0.0581551383  0 0 0 0.329955201 0" type="matrix" in="shadowBlurOuter1" result="shadowMatrixOuter1"></feColorMatrix>
            <feMerge>
                <feMergeNode in="shadowMatrixOuter1"></feMergeNode>
                <feMergeNode in="SourceGraphic"></feMergeNode>
            </feMerge>
        </filter>
        <linearGradient x1="30.7117718%" y1="-5.75928194e-14%" x2="76.330462%" y2="92.7437245%" id="linearGradient-2">
            <stop stop-color="#FF8758" offset="0%"></stop>
            <stop stop-color="#E01E1E" offset="100%"></stop>
        </linearGradient>
        <circle id="path-3" cx="48" cy="48" r="48"></circle>
        <filter x="-15.6%" y="-15.6%" width="131.2%" height="131.2%" filterUnits="objectBoundingBox" id="filter-5">
            <feGaussianBlur stdDeviation="9" in="SourceAlpha" result="shadowBlurInner1"></feGaussianBlur>
            <feOffset dx="0" dy="11" in="shadowBlurInner1" result="shadowOffsetInner1"></feOffset>
            <feComposite in="shadowOffsetInner1" in2="SourceAlpha" operator="arithmetic" k2="-1" k3="1" result="shadowInnerInner1"></feComposite>
            <feColorMatrix values="0 0 0 0 1   0 0 0 0 0.798208841   0 0 0 0 0.798208841  0 0 0 0.5 0" type="matrix" in="shadowInnerInner1" result="shadowMatrixInner1"></feColorMatrix>
            <feGaussianBlur stdDeviation="9" in="SourceAlpha" result="shadowBlurInner2"></feGaussianBlur>
            <feOffset dx="-12" dy="-9" in="shadowBlurInner2" result="shadowOffsetInner2"></feOffset>
            <feComposite in="shadowOffsetInner2" in2="SourceAlpha" operator="arithmetic" k2="-1" k3="1" result="shadowInnerInner2"></feComposite>
            <feColorMatrix values="0 0 0 0 0.967872509   0 0 0 0 0.246674238   0 0 0 0 0  0 0 0 0.673131556 0" type="matrix" in="shadowInnerInner2" result="shadowMatrixInner2"></feColorMatrix>
            <feMerge>
                <feMergeNode in="shadowMatrixInner1"></feMergeNode>
                <feMergeNode in="shadowMatrixInner2"></feMergeNode>
            </feMerge>
        </filter>
        <filter x="-154.9%" y="-247.2%" width="409.7%" height="594.4%" filterUnits="objectBoundingBox" id="filter-6">
            <feGaussianBlur stdDeviation="45.6648649" in="SourceGraphic"></feGaussianBlur>
        </filter>
        <filter x="-95.5%" y="-206.2%" width="291.1%" height="512.5%" filterUnits="objectBoundingBox" id="filter-7">
            <feGaussianBlur stdDeviation="29.2255135" in="SourceGraphic"></feGaussianBlur>
        </filter>
        <linearGradient x1="54.8656722%" y1="45.4141925%" x2="47.2735956%" y2="58.14703%" id="linearGradient-8">
            <stop stop-color="#FFF2B9" offset="0%"></stop>
            <stop stop-color="#FFB74E" stop-opacity="0.634751967" offset="100%"></stop>
        </linearGradient>
        <filter x="-73.8%" y="-206.7%" width="247.6%" height="513.3%" filterUnits="objectBoundingBox" id="filter-9">
            <feGaussianBlur stdDeviation="18.2659459" in="SourceGraphic"></feGaussianBlur>
        </filter>
        <path d="M54.6089225,32.2699431 L54.6089225,32.4085226 C52.7310247,30.7910222 50.2780788,29.9308879 47.75873,30.006478 C45.2171859,29.914378 42.7435558,30.8074795 40.8925325,32.4855113 C39.0754122,34.3738432 38.1337921,36.8914262 38.2836975,39.4606795 L38.2836975,56.2441968 C38.1238694,58.8036898 39.0409845,61.3174416 40.828512,63.219365 C44.8304695,66.3423183 50.5589495,66.3423183 54.5609071,63.219365 C56.4135265,61.3492995 57.3757641,58.8230868 57.2177574,56.2441968 L57.2177574,39.3067022 C57.4167022,36.7123699 56.4695247,34.1575665 54.6089225,32.2699431 L54.6089225,32.2699431 Z M50.6876674,39.2451113 L50.6876674,56.4443672 C50.7052083,57.2749548 50.4349241,58.0875385 49.9194216,58.7540256 C49.3592261,59.333801 48.5735283,59.6631787 47.7507275,59.6631787 C46.9279266,59.6631787 46.1422289,59.333801 45.5820334,58.7540256 C45.05886,58.0472277 44.8096795,57.1864005 44.877808,56.3211854 L44.877808,39.2451113 C44.8428615,38.4313025 45.1031345,37.6311255 45.6140436,36.9816462 C46.1552315,36.455049 46.8929601,36.1587046 47.6626993,36.1587046 C48.4324384,36.1587046 49.170167,36.455049 49.7113549,36.9816462 L49.9674369,37.2588052 C50.3715343,37.7274157 50.6221693,38.3007534 50.6876674,38.9063614 C50.7036809,39.0187526 50.7036809,39.1327202 50.6876674,39.2451113 L50.6876674,39.2451113 Z M30.2815204,46.5744832 C29.5292796,45.8353901 28.1528391,44.2340216 27.3845932,43.4949284 C26.8564242,43.0021996 26.2802398,42.3400953 25.784081,41.878162 C25.3533752,41.4505279 24.9772623,40.974966 24.6637224,40.4615668 C24.2834853,39.8952589 24.0679428,39.2412671 24.0395226,38.5676405 C24.0103925,37.8234592 24.2290848,37.0897789 24.6637224,36.4735432 C25.0296273,35.9675048 25.6237225,35.6588672 26.2642347,35.6420634 C27.1374027,35.5215997 27.9990124,35.9238668 28.4409313,36.6583165 C28.6754684,37.1134877 28.8682615,37.5874849 29.0171157,38.0749118 C29.3917936,39.3000116 30.5880623,40.1202476 31.9140429,40.0612247 C32.8176101,40.0394235 33.6607279,39.6196489 34.2010378,38.9225671 C34.7413477,38.2254853 34.9190005,37.3283108 34.6829291,36.488941 C34.2051767,34.9429745 33.3862831,33.5143961 32.2821608,32.3007463 C30.7933275,30.7565771 28.675643,29.9180099 26.4883064,30.006478 C24.1195807,29.9344247 21.8394897,30.8761365 20.2623138,32.5779063 C18.7266878,34.3786743 17.9245535,36.65545 18.0055914,38.9833805 C18.3681856,42.6021869 20.0725789,45.9745371 22.8071282,48.4838073 C23.6393946,49.2998893 25.0798556,51.1322245 25.8801117,51.9637043 C26.7328647,52.8180318 27.5091974,53.7400337 28.2008545,54.7199059 C28.6917026,55.4647197 28.9423142,56.3326856 28.921085,57.2143454 C28.921085,59.3392383 28.1208288,60.2939003 26.5363218,60.2939002 C26.0434134,60.2984583 25.5616311,60.1529408 25.1598812,59.8781604 C24.753536,59.599238 24.4462109,59.2068125 24.2795995,58.7541228 C24.197335,58.521711 24.1278828,58.2852827 24.0715329,58.0458252 C23.6295636,56.4768453 21.9491982,55.5496267 20.3183316,55.9748245 C18.6874651,56.4000223 17.7236734,58.0166228 18.1656427,59.5856027 C18.6004537,60.8793224 19.2607372,62.0925032 20.1182676,63.1732841 C21.571674,64.7890884 23.6330016,65.7829346 25.8483853,65.9359966 C28.0637691,66.0890586 30.25156,65.3887863 31.9300481,63.9893661 C32.2311926,63.7407106 32.5096334,63.4676843 32.7623144,63.1732841 C34.1081273,61.6950134 34.9563726,59.8588854 35.195093,57.9072452 C35.2271135,57.6206455 35.2271135,57.3315696 35.195093,57.0449699 C35.1508525,55.2183502 34.7490418,53.4161301 34.010714,51.7327377 C33.0618897,49.8213321 31.7849284,48.0774805 30.2335051,46.5744832 L30.2815204,46.5744832 Z M76.8876688,51.5633622 C75.902962,49.7193606 74.6229173,48.0358309 73.0944547,46.5744832 C72.3582191,45.8507878 70.1975276,43.6489061 70.1975276,43.6489061 C69.6533534,43.1253818 69.1091792,42.5556641 68.5970153,41.9705487 C68.1710734,41.4945549 67.795748,40.9787222 67.4766567,40.4307712 C67.1128337,39.8740562 66.8983531,39.2391587 66.852457,38.5830383 C66.8163627,37.8236479 67.0352143,37.0732374 67.4766567,36.4427477 C67.8628677,35.94935 68.4671652,35.658667 69.1091792,35.6574612 C69.9668587,35.6126138 70.768518,36.0680697 71.1418298,36.8122942 C71.3175495,37.2188381 71.467211,37.6353585 71.5899732,38.059514 C71.9437944,39.3566506 73.1731717,40.2532333 74.566926,40.2306002 C75.4678406,40.2051727 76.3082749,39.7884448 76.8525332,39.0972858 C77.3967915,38.4061269 77.5862671,37.5149622 77.3678224,36.6737143 C76.933033,35.0976714 76.146549,33.631683 75.0630848,32.3777352 C73.5618593,30.8415026 71.4434021,30.0049402 69.2532254,30.0834668 C66.8290902,29.9521581 64.4740799,30.8867365 62.8511764,32.6240996 C61.3264707,34.4375735 60.5210003,36.7131751 60.5784489,39.0449716 C60.9519018,42.6959071 62.7061618,46.0877274 65.5080267,48.5761939 C66.3242879,49.3460827 68.5810102,51.8097266 68.5810102,51.8097266 C69.4459493,52.6536402 70.2232143,53.5767495 70.901753,54.5659282 C71.381189,55.3106825 71.6360824,56.1689559 71.6379886,57.0449699 C71.6379886,59.1698628 70.8377324,60.1245248 69.2372202,60.1245247 C68.7440577,60.1156521 68.2648391,59.9655481 67.8607797,59.6933871 C67.4953635,59.4089006 67.2322014,59.0210568 67.1085389,58.5847473 C67.0511892,58.4518831 67.0134772,58.3119422 66.996503,58.1690074 C66.7746439,57.1370903 65.9845804,56.3041908 64.9366741,55.9974977 C63.8887677,55.6908046 62.7504219,55.9593122 61.9688141,56.6975424 C61.1872063,57.4357725 60.8871987,58.5257928 61.1866436,59.5394093 C61.6198066,60.8711688 62.2973827,62.1175329 63.1872839,63.2194774 C64.6240113,64.8266515 66.6656074,65.8188151 68.862816,65.9776412 C71.0600247,66.1364673 73.232805,65.4489416 74.9030336,64.066355 C75.2109317,63.8034236 75.4997029,63.5204658 75.7673102,63.2194774 C77.0881356,61.6099095 77.8595755,59.6469342 77.9760171,57.5992897 C78.0079943,57.3229834 78.0079943,57.0441162 77.9760171,56.7678099 C78.0385472,54.9702565 77.648698,53.1847808 76.8396534,51.5633622 L76.8876688,51.5633622 Z" id="path-10"></path>
        <filter x="-22.5%" y="-29.2%" width="145.0%" height="175.0%" filterUnits="objectBoundingBox" id="filter-11">
            <feOffset dx="0" dy="3" in="SourceAlpha" result="shadowOffsetOuter1"></feOffset>
            <feGaussianBlur stdDeviation="4" in="shadowOffsetOuter1" result="shadowBlurOuter1"></feGaussianBlur>
            <feColorMatrix values="0 0 0 0 1   0 0 0 0 0.250228659   0 0 0 0 0.447338563  0 0 0 1 0" type="matrix" in="shadowBlurOuter1"></feColorMatrix>
        </filter>
    </defs>
    <g id="页面-1" stroke="none" stroke-width="1" fill="none" fill-rule="evenodd">
        <g id="0.1已呼救已响应界面标注" transform="translate(-234, -2157)">
            <g id="呼救位置" transform="translate(222, 2145)">
                <g id="SOS" transform="translate(12, 12)" filter="url(#filter-1)">
                    <g id="椭圆形-+-椭圆形备份-2-蒙版">
                        <mask id="mask-4" fill="white">
                            <use xlink:href="#path-3"></use>
                        </mask>
                        <g id="蒙版">
                            <use fill="url(#linearGradient-2)" fill-rule="evenodd" xlink:href="#path-3"></use>
                            <use fill="black" fill-opacity="1" filter="url(#filter-5)" xlink:href="#path-3"></use>
                        </g>
                        <path d="M65.1043994,96 L28.6812344,103.2 L-13.8597484,92.6504312 L-23.3592909,79.4334277 L-4,47.78079 C6.56762514,63.0309198 15.349798,73.5817991 22.3465187,79.4334277 C29.3432393,85.2850564 43.5958662,90.8072472 65.1043994,96 Z" id="路径-3" fill="#FF0000" opacity="0.291027618" filter="url(#filter-6)" mask="url(#mask-4)"></path>
                        <path d="M62.6841961,98.8671979 C90.8507183,98.8671979 117.262857,79.1902601 117.262857,73.2255848 C117.262857,67.2609095 92.7743404,74.8092878 64.6078182,74.8092878 C36.441296,74.8092878 25.4992477,51.3593726 25.4992477,57.3240479 C25.4992477,63.2887232 34.5176738,98.8671979 62.6841961,98.8671979 Z" id="椭圆形" fill="#FFAD4B" filter="url(#filter-7)" mask="url(#mask-4)" transform="translate(71.3811, 77.6099) rotate(-39) translate(-71.3811, -77.6099)"></path>
                        <path d="M71.2961679,18.6312112 C88.6364415,21.1037 106.495018,28.7852779 106.495018,22.8206026 C106.495018,16.8559273 88.5946174,-1.47742595 72.0260749,-1.47742595 C55.4575325,-1.47742595 32.2264477,13.6523387 32.2264477,19.617014 C32.2264477,25.5816893 53.9558942,16.1587224 71.2961679,18.6312112 Z" id="椭圆形备份-2" fill="url(#linearGradient-8)" filter="url(#filter-9)" mask="url(#mask-4)" transform="translate(69.3607, 11.7807) rotate(-330) translate(-69.3607, -11.7807)"></path>
                    </g>
                    <g id="形状" fill-rule="nonzero">
                        <use fill="black" fill-opacity="1" filter="url(#filter-11)" xlink:href="#path-10"></use>
                        <use fill="#FFFFFF" xlink:href="#path-10"></use>
                    </g>
                </g>
            </g>
        </g>
    </g>
</svg>