<?xml version="1.0" encoding="UTF-8"?>
<svg width="48px" height="48px" viewBox="0 0 48 48" version="1.1" xmlns="http://www.w3.org/2000/svg" xmlns:xlink="http://www.w3.org/1999/xlink">
    <title>现场照片_icon</title>
    <g id="页面-1" stroke="none" stroke-width="1" fill="none" fill-rule="evenodd">
        <g id="0.1已呼救已响应界面标注" transform="translate(-999, -4506)" fill="#333333">
            <g id="按钮" transform="translate(222, 4476)">
                <g id="查看图片" transform="translate(732, 0)">
                    <g id="现场照片_icon" transform="translate(45, 30)">
                        <rect id="矩形" fill-opacity="0" x="0" y="0" width="48" height="48"></rect>
                        <path d="M39,6 C42.3137085,6 45,8.6862915 45,12 L45,36 C45,39.3137085 42.3137085,42 39,42 L9,42 C5.6862915,42 3,39.3137085 3,36 L3,12 C3,8.6862915 5.6862915,6 9,6 L39,6 Z M7.0000055,25.1823227 L7,36 C7,37.1045695 7.8954305,38 9,38 L26.9629282,38.0015177 C26.8422565,37.8112617 26.7141479,37.6159218 26.5784392,37.4159378 C25.2336549,35.434227 23.4540636,33.4421552 21.1857379,31.5759051 C20.3435474,30.8829984 19.4468765,30.2195069 18.4939207,29.5894642 C14.425932,26.8999307 10.5986063,25.4444775 7.0000055,25.1823227 Z M41,26.663 L41.1283179,26.6394926 C38.9129079,27.0321751 36.6200745,27.7400624 34.381793,28.8385489 C33.4124128,29.3142938 32.4829049,29.8393223 31.594712,30.4054315 C30.3265979,31.2136918 29.1941763,32.0704937 28.2051209,32.9317414 C28.8200568,33.6729388 29.3800171,34.4208503 29.888302,35.1698727 C30.6814236,36.3386383 31.2215261,37.3105115 31.5434908,38.0022659 L39,38 C40.1045695,38 41,37.1045695 41,36 L41,26.663 Z M39,10 L9,10 C7.8954305,10 7,10.8954305 7,12 L7.00087629,21.1734888 C11.4201683,21.4318969 15.9907115,23.1392909 20.6999518,26.2527852 C21.7697408,26.9600717 22.7782658,27.7063297 23.7271199,28.4869931 C24.3365566,28.9884031 24.9157115,29.4987098 25.4653607,30.0159447 C26.6245096,28.9942617 27.9532119,27.9830168 29.4447898,27.032327 C30.4555478,26.3880981 31.5140686,25.7901974 32.6194961,25.2476842 C35.2163037,23.973243 37.864385,23.1556768 40.4301978,22.7008852 C40.6263012,22.6661258 40.8168115,22.6342576 41.0014693,22.6051037 L41,12 C41,10.8954305 40.1045695,10 39,10 Z M33,15 C34.6568542,15 36,16.3431458 36,18 C36,19.6568542 34.6568542,21 33,21 C31.3431458,21 30,19.6568542 30,18 C30,16.3431458 31.3431458,15 33,15 Z" id="形状结合" fill-rule="nonzero"></path>
                    </g>
                </g>
            </g>
        </g>
    </g>
</svg>