<?xml version="1.0" encoding="UTF-8"?>
<svg width="60px" height="60px" viewBox="0 0 60 60" version="1.1" xmlns="http://www.w3.org/2000/svg" xmlns:xlink="http://www.w3.org/1999/xlink">
    <title>患者症状</title>
    <g id="页面-1" stroke="none" stroke-width="1" fill="none" fill-rule="evenodd">
        <g id="0.1已呼救已响应界面标注" transform="translate(-1328, -625)" fill="#15AD5E">
            <g id="患者症状" transform="translate(1328, 625)">
                <circle id="椭圆形" fill-opacity="0.1" cx="30" cy="30" r="30"></circle>
                <path d="M41.52986,34.0372716 C45.410453,37.3103104 47.9056928,42.202993 47.9973836,47.6868278 L48,48 L12,48 C12,42.3894761 14.5158254,37.3724901 18.4701176,34.0372716 C21.6608216,36.5220848 25.6595439,38 30,38 C34.3404561,38 38.3391784,36.5220848 41.52986,34.0372716 Z M40.0735973,13.8035754 C41.1068764,15.5655047 41.7,17.6218779 41.7,19.8181818 C41.7,24.5507521 38.9460601,28.6336082 34.968614,30.5208572 C36.471403,30.9547747 37.8932637,31.5819611 39.2069195,32.3733592 C36.5925908,34.2022107 33.4200615,35.2727273 30,35.2727273 C26.5799385,35.2727273 23.4074092,34.2022107 20.7929118,32.3748135 C22.1069415,31.5825304 23.5291839,30.9548779 25.0318743,30.5197522 C22.4037666,29.2744294 20.3093333,27.0684651 19.1909518,24.3497023 C27.4610279,24.0876381 34.8241042,20.1898156 39.7651799,14.1858971 L40.0735973,13.8035754 Z M36.2812927,9.8457781 C37.0444874,10.3372735 37.7474749,10.9157036 38.3765814,11.5672566 C33.855092,17.5788215 26.7485021,21.4970929 18.7304034,21.6327258 L18.4375839,21.6362144 C18.3469986,21.0435892 18.3,20.4364295 18.3,19.8181818 C18.3,19.5124319 18.3114946,19.2093938 18.334071,18.9094844 C25.5163716,18.8982506 31.9095796,15.4883871 36.0216957,10.1867806 L36.2812927,9.8457781 Z M30,8 C31.3275921,8 32.6035399,8.22334903 33.7930248,8.63487674 C30.2760685,13.0951884 24.9104774,16.0019839 18.8674489,16.1737627 C20.3881289,11.4298422 24.7975286,8 30,8 Z" id="形状结合" fill-rule="nonzero"></path>
            </g>
        </g>
    </g>
</svg>