<?xml version="1.0" encoding="UTF-8"?>
<svg width="60px" height="60px" viewBox="0 0 60 60" version="1.1" xmlns="http://www.w3.org/2000/svg" xmlns:xlink="http://www.w3.org/1999/xlink">
    <title>呼救位置_iocn</title>
    <g id="页面-1" stroke="none" stroke-width="1" fill="none" fill-rule="evenodd">
        <g id="0.1已呼救已响应界面标注" transform="translate(-880, -615)" fill="#FF7400">
            <g id="呼救位置_iocn" transform="translate(880, 615)">
                <circle id="椭圆形" fill-opacity="0.1" cx="30" cy="30" r="30"></circle>
                <path d="M30,8 C38.2842712,8 45,14.7157288 45,23 C45,28.275425 40.4379629,34.8986149 31.3138888,42.8695697 C30.5614137,43.5276698 29.4385863,43.5276698 28.685272,42.8705317 C19.5620371,34.8986149 15,28.275425 15,23 C15,14.7157288 21.7157288,8 30,8 Z M30,17 C26.6862915,17 24,19.6862915 24,23 C24,26.3137085 26.6862915,29 30,29 C33.3137085,29 36,26.3137085 36,23 C36,19.6862915 33.3137085,17 30,17 Z M16,45 L44,45 C45.1045695,45 46,45.8954305 46,47 C46,48.1045695 45.1045695,49 44,49 L16,49 C14.8954305,49 14,48.1045695 14,47 C14,45.8954305 14.8954305,45 16,45 Z" id="形状结合"></path>
            </g>
        </g>
    </g>
</svg>