<?xml version="1.0" encoding="UTF-8"?>
<svg width="120px" height="120px" viewBox="0 0 120 120" version="1.1" xmlns="http://www.w3.org/2000/svg" xmlns:xlink="http://www.w3.org/1999/xlink">
    <title>联系志愿者_icon</title>
    <defs>
        <linearGradient x1="93.9378269%" y1="-6.54923744e-14%" x2="45.6624477%" y2="88.0927235%" id="linearGradient-1">
            <stop stop-color="#FF9033" offset="0%"></stop>
            <stop stop-color="#FF7400" offset="100%"></stop>
        </linearGradient>
    </defs>
    <g id="页面-1" stroke="none" stroke-width="1" fill="none" fill-rule="evenodd">
        <g id="0.1已呼救已响应界面标注" transform="translate(-3354, -1768)" fill-rule="nonzero">
            <g id="志愿者" transform="translate(2436, 1689)">
                <g id="联系志愿者_icon" transform="translate(918, 79)">
                    <rect id="矩形备份-37" fill="url(#linearGradient-1)" x="0" y="0" width="120" height="120" rx="59.625"></rect>
                    <path d="M35.8401711,29.0166672 C39.145977,26.1244932 44.2492082,26.3726932 47.238557,29.5710374 C47.3807982,29.7232232 47.5167837,29.8807746 47.6461966,30.0433246 L54.4710529,38.6157348 C57.0492942,41.8541535 56.6093465,46.4683599 53.4622817,49.1958051 L50.8493167,51.4603652 C50.1780283,52.0416573 50.0082628,52.9932314 50.4395586,53.7594643 C52.2789276,57.0277325 54.5838435,60.1049352 57.3605227,62.9944585 C59.9696621,65.7096333 62.639294,67.9386428 65.3620574,69.6852297 C66.1441003,70.1854342 67.1815402,70.0772065 67.8361738,69.4251101 L69.3846398,67.887138 C72.4919963,64.7933625 77.6035995,64.7273183 80.7973559,67.7372014 C80.926205,67.8423157 81.0140566,67.9139845 81.0947647,68.0156352 L81.1120091,68.0385176 L89.0648142,75.5431047 C92.1844741,78.4870861 92.3146457,83.2784432 89.4097308,86.3755338 L89.2069648,86.5840321 C89.0963498,86.693751 88.9824196,86.8002949 88.8653222,86.9035252 L83.8361524,91.3371224 C80.0683489,94.6628782 74.5916305,95.4429688 69.9922193,93.3099292 C61.0989004,89.1857224 52.6684289,82.5762483 44.6865494,73.5172174 C36.6747312,64.4242074 31.0024918,55.2911567 27.6967938,46.1099184 C26.0419743,41.5117114 27.3932273,36.4020789 31.1280428,33.1392016 L35.8401711,29.0166672 Z M41.8720752,34.2660494 C41.5628322,33.9351863 41.0349118,33.9095104 40.6929318,34.2087008 L35.9789114,38.3328894 C34.4013454,39.7111124 33.8311617,41.8672071 34.5295052,43.8076775 C37.5218908,52.1187226 42.7339027,60.5107468 50.1926733,68.9760755 C57.5530531,77.3297357 65.2000925,83.3250004 73.1195952,86.9976075 C75.0603759,87.8976711 77.3705502,87.5686154 78.9613922,86.1644157 L83.9922232,81.7293531 L84.0275656,81.6963021 C84.3495021,81.3769732 84.3429184,80.8656086 84.0128603,80.5541372 L75.7471851,72.7539296 L75.7223265,72.7296114 L75.6961896,72.7084401 L75.6722365,72.6886882 L75.6543443,72.6745976 C75.3579948,72.4675134 74.9545557,72.4728457 74.6631452,72.6887327 L74.5704582,72.7684909 L73.0226285,74.3058293 C69.9473522,77.3692116 65.0540811,77.879687 61.3679204,75.5219684 C58.1475164,73.4561616 55.0465209,70.8669848 52.0616087,67.7607659 C48.8785473,64.448345 46.2176877,60.8959359 44.0853521,57.1071122 C42.0489378,53.4892522 42.8513072,48.9917901 46.0229062,46.2453918 L48.6347455,43.981807 C48.9603039,43.6996575 49.0058157,43.2223258 48.7391011,42.8873169 L41.9142448,34.3149067 L41.8720752,34.2660494 Z" id="路径-10" fill="#FFFFFF"></path>
                </g>
            </g>
        </g>
    </g>
</svg>