<?xml version="1.0" encoding="UTF-8"?>
<svg width="144px" height="158px" viewBox="0 0 144 158" version="1.1" xmlns="http://www.w3.org/2000/svg" xmlns:xlink="http://www.w3.org/1999/xlink">
    <title>响应位置M_icon</title>
    <defs>
        <path d="M72,0 C111.764502,-7.30462051e-15 144,32.235498 144,72 C144,105.43277 121.212955,133.54334 90.3227705,141.647806 L74.8284271,156.850344 C73.26633,158.383219 70.73367,158.383219 69.1715729,156.850344 L53.678227,141.648068 C22.7875352,133.543945 4.09437752e-15,105.43313 0,72 C-4.86974701e-15,32.235498 32.235498,7.30462051e-15 72,0 Z" id="path-1"></path>
        <filter x="-20.8%" y="-11.4%" width="141.7%" height="138.0%" filterUnits="objectBoundingBox" id="filter-2">
            <feOffset dx="0" dy="12" in="SourceAlpha" result="shadowOffsetOuter1"></feOffset>
            <feGaussianBlur stdDeviation="8" in="shadowOffsetOuter1" result="shadowBlurOuter1"></feGaussianBlur>
            <feColorMatrix values="0 0 0 0 0.2   0 0 0 0 0.2   0 0 0 0 0.2  0 0 0 0.2 0" type="matrix" in="shadowBlurOuter1"></feColorMatrix>
        </filter>
        <linearGradient x1="30.7117718%" y1="-5.75928194e-14%" x2="76.330462%" y2="92.7437245%" id="linearGradient-3">
            <stop stop-color="#9EFF00" offset="0%"></stop>
            <stop stop-color="#15A605" offset="100%"></stop>
        </linearGradient>
        <circle id="path-4" cx="60" cy="60" r="60"></circle>
        <filter x="-15.8%" y="-15.8%" width="131.7%" height="131.7%" filterUnits="objectBoundingBox" id="filter-6">
            <feGaussianBlur stdDeviation="11.5" in="SourceAlpha" result="shadowBlurInner1"></feGaussianBlur>
            <feOffset dx="0" dy="14" in="shadowBlurInner1" result="shadowOffsetInner1"></feOffset>
            <feComposite in="shadowOffsetInner1" in2="SourceAlpha" operator="arithmetic" k2="-1" k3="1" result="shadowInnerInner1"></feComposite>
            <feColorMatrix values="0 0 0 0 0.798208841   0 0 0 0 1   0 0 0 0 0.828085046  0 0 0 0.668433129 0" type="matrix" in="shadowInnerInner1" result="shadowMatrixInner1"></feColorMatrix>
            <feGaussianBlur stdDeviation="11.5" in="SourceAlpha" result="shadowBlurInner2"></feGaussianBlur>
            <feOffset dx="-15" dy="-11" in="shadowBlurInner2" result="shadowOffsetInner2"></feOffset>
            <feComposite in="shadowOffsetInner2" in2="SourceAlpha" operator="arithmetic" k2="-1" k3="1" result="shadowInnerInner2"></feComposite>
            <feColorMatrix values="0 0 0 0 0.00290099947   0 0 0 0 0.623952672   0 0 0 0 0.045788309  0 0 0 0.739319274 0" type="matrix" in="shadowInnerInner2" result="shadowMatrixInner2"></feColorMatrix>
            <feMerge>
                <feMergeNode in="shadowMatrixInner1"></feMergeNode>
                <feMergeNode in="shadowMatrixInner2"></feMergeNode>
            </feMerge>
        </filter>
        <filter x="-154.9%" y="-247.2%" width="409.7%" height="594.4%" filterUnits="objectBoundingBox" id="filter-7">
            <feGaussianBlur stdDeviation="57.0810811" in="SourceGraphic"></feGaussianBlur>
        </filter>
        <filter x="-95.5%" y="-206.2%" width="291.1%" height="512.5%" filterUnits="objectBoundingBox" id="filter-8">
            <feGaussianBlur stdDeviation="36.5318919" in="SourceGraphic"></feGaussianBlur>
        </filter>
        <linearGradient x1="36.1740657%" y1="151.332721%" x2="36.1740657%" y2="14.0247516%" id="linearGradient-9">
            <stop stop-color="#F9FC0F" offset="0%"></stop>
            <stop stop-color="#06F5E1" stop-opacity="0.634751967" offset="100%"></stop>
        </linearGradient>
        <filter x="-73.8%" y="-206.7%" width="247.6%" height="513.3%" filterUnits="objectBoundingBox" id="filter-10">
            <feGaussianBlur stdDeviation="22.8324324" in="SourceGraphic"></feGaussianBlur>
        </filter>
        <radialGradient cx="33.3757178%" cy="25.3533589%" fx="33.3757178%" fy="25.3533589%" r="70.1142476%" gradientTransform="translate(0.3338, 0.2535), scale(0.8043, 1), rotate(51.5639), translate(-0.3338, -0.2535)" id="radialGradient-11">
            <stop stop-color="#FFFFFF" stop-opacity="0.957823427" offset="0%"></stop>
            <stop stop-color="#FFFFFF" stop-opacity="0.875355114" offset="99.9006782%"></stop>
            <stop stop-color="#FFFFFF" stop-opacity="0.848311844" offset="100%"></stop>
        </radialGradient>
        <linearGradient x1="50%" y1="8.96680633%" x2="50%" y2="81.6139859%" id="linearGradient-12">
            <stop stop-color="#FFFFFF" stop-opacity="0.9" offset="0%"></stop>
            <stop stop-color="#FFFFFF" stop-opacity="0.800099322" offset="99.9006782%"></stop>
            <stop stop-color="#FFFFFF" stop-opacity="0.8" offset="100%"></stop>
        </linearGradient>
        <path d="M42.4807772,7.20491524 L46,10.6837561 L49.5192228,7.20491524 C59.2372883,-2.40163841 74.9933855,-2.40163841 84.7114509,7.20491524 C94.4295164,16.8114689 94.4295164,32.3867698 84.7114509,41.9933234 L51.6307565,71.6944271 C48.5209756,74.7685243 43.4790244,74.7685243 40.3692435,71.6944271 L7.28854909,41.9933234 C-2.42951636,32.3867698 -2.42951636,16.8114689 7.28854909,7.20491524 C17.0066145,-2.40163841 32.7627117,-2.40163841 42.4807772,7.20491524 Z" id="path-13"></path>
        <linearGradient x1="22.1967735%" y1="59.4917511%" x2="82.7282448%" y2="22.5341486%" id="linearGradient-15">
            <stop stop-color="#74E41A" stop-opacity="0.111177885" offset="1.53518357%"></stop>
            <stop stop-color="#A2F75D" stop-opacity="0.41796875" offset="100%"></stop>
        </linearGradient>
        <linearGradient x1="7.9286291%" y1="38.5027184%" x2="-5.42304494%" y2="42.4535638%" id="linearGradient-16">
            <stop stop-color="#A8FF60" stop-opacity="0" offset="0%"></stop>
            <stop stop-color="#78E530" offset="100%"></stop>
        </linearGradient>
        <path d="M32.8653085,15.0361149 C29.8312655,12.9359928 26.5603181,11.5666201 23.0524661,10.9279967 C17.2283228,9.8676799 12.7082459,12.6464851 9.49223525,19.2644123 C13.8038337,18.3921557 18.9687372,21.6226941 24.9869456,28.9560275 C28.25391,32.9369031 31.8114736,37.9756371 35.6596363,44.0722293 L35.6584424,44.0729827 C40.3738449,51.5462484 50.2547129,53.7819382 57.7279786,49.0665357 C58.7599157,48.4154148 59.7139836,47.6483864 60.5715771,46.7804082 C70.1239505,37.1125278 76.1523855,31.3484241 78.6574681,29.4886763 C88.3642315,22.2824738 96.4825081,20.152207 96.4825081,20.152207 C96.4825081,20.152207 80.1800087,-2.54000803 80.1800087,-2.54000803 C80.1800087,-2.54000803 64.4464461,-4.22347876 55.710368,1.98510117 C51.6117766,4.89789929 47.5672487,8.75990508 43.5767843,13.5711186 L43.5755191,13.5700687 C40.9259162,16.7630258 36.2749532,17.4003692 32.8640653,15.0379098 Z" id="path-17"></path>
        <linearGradient x1="32.7398707%" y1="3.99777644%" x2="50%" y2="43.6010911%" id="linearGradient-18">
            <stop stop-color="#FFFFFF" offset="0%"></stop>
            <stop stop-color="#FFFFFF" stop-opacity="0" offset="100%"></stop>
        </linearGradient>
        <linearGradient x1="40.9047041%" y1="19.6838181%" x2="58.392736%" y2="48.1744014%" id="linearGradient-19">
            <stop stop-color="#FFFFFF" offset="0%"></stop>
            <stop stop-color="#FFFFFF" stop-opacity="0" offset="100%"></stop>
        </linearGradient>
        <linearGradient x1="38.7552203%" y1="20.8774337%" x2="51.8016052%" y2="46.066825%" id="linearGradient-20">
            <stop stop-color="#FFFFFF" offset="0%"></stop>
            <stop stop-color="#FFFFFF" stop-opacity="0" offset="100%"></stop>
        </linearGradient>
        <linearGradient x1="18.0921742%" y1="1.95449668%" x2="61.7061917%" y2="93.6643512%" id="linearGradient-21">
            <stop stop-color="#9EFF00" offset="0%"></stop>
            <stop stop-color="#12BA00" offset="100%"></stop>
        </linearGradient>
        <path d="M14,0 C16.209139,-4.05812251e-16 18,1.790861 18,4 L18,10 L24,10 C26.209139,10 28,11.790861 28,14 C28,16.209139 26.209139,18 24,18 L18,18 L18,24 C18,26.209139 16.209139,28 14,28 C11.790861,28 10,26.209139 10,24 L10,18 L4,18 C1.790861,18 2.705415e-16,16.209139 0,14 C-2.705415e-16,11.790861 1.790861,10 4,10 L10,10 L10,4 C10,1.790861 11.790861,4.05812251e-16 14,0 Z" id="path-22"></path>
        <filter x="-25.0%" y="-17.9%" width="150.0%" height="150.0%" filterUnits="objectBoundingBox" id="filter-23">
            <feOffset dx="0" dy="2" in="SourceAlpha" result="shadowOffsetOuter1"></feOffset>
            <feGaussianBlur stdDeviation="2" in="shadowOffsetOuter1" result="shadowBlurOuter1"></feGaussianBlur>
            <feColorMatrix values="0 0 0 0 0.188327278   0 0 0 0 0.879387455   0 0 0 0 0.0302792136  0 0 0 0.5 0" type="matrix" in="shadowBlurOuter1"></feColorMatrix>
        </filter>
        <linearGradient x1="50%" y1="-11.4807201%" x2="50%" y2="87.4117544%" id="linearGradient-24">
            <stop stop-color="#FFFFFF" offset="0%"></stop>
            <stop stop-color="#FFFFFF" stop-opacity="0.498579545" offset="100%"></stop>
        </linearGradient>
        <linearGradient x1="100%" y1="50%" x2="8.87528906%" y2="50%" id="linearGradient-25">
            <stop stop-color="#FFFFFF" offset="0%"></stop>
            <stop stop-color="#FFFFFF" stop-opacity="0.213833042" offset="100%"></stop>
        </linearGradient>
    </defs>
    <g id="页面-1" stroke="none" stroke-width="1" fill="none" fill-rule="evenodd">
        <g id="0.1已呼救已响应界面标注" transform="translate(-246, -1703)">
            <g id="响应位置" transform="translate(246, 1703)">
                <g id="形状结合备份">
                    <use fill="black" fill-opacity="1" filter="url(#filter-2)" xlink:href="#path-1"></use>
                    <use fill="#FFFFFF" fill-rule="evenodd" xlink:href="#path-1"></use>
                </g>
                <g id="底" transform="translate(12, 12)">
                    <mask id="mask-5" fill="white">
                        <use xlink:href="#path-4"></use>
                    </mask>
                    <g id="蒙版">
                        <use fill="url(#linearGradient-3)" fill-rule="evenodd" xlink:href="#path-4"></use>
                        <use fill="black" fill-opacity="1" filter="url(#filter-6)" xlink:href="#path-4"></use>
                    </g>
                    <path d="M81.3804992,120 L35.851543,129 L-17.3246855,115.813039 L-29.1991136,99.2917847 L-5,59.7259875 C8.20953142,78.7886498 19.1872475,91.9772489 27.9331483,99.2917847 C36.6790491,106.606321 54.4948328,113.509059 81.3804992,120 Z" id="路径-3" fill="#00FF30" opacity="0.291027618" filter="url(#filter-7)" mask="url(#mask-5)"></path>
                    <path d="M78.3552451,123.583997 C113.563398,123.583997 146.578571,98.9878251 146.578571,91.531981 C146.578571,84.0761369 115.967926,93.5116098 80.7597727,93.5116098 C45.5516199,93.5116098 31.8740596,64.1992158 31.8740596,71.6550599 C31.8740596,79.110904 43.1470923,123.583997 78.3552451,123.583997 Z" id="椭圆形" fill="#05A959" filter="url(#filter-8)" mask="url(#mask-5)" transform="translate(89.2263, 97.0123) rotate(-39) translate(-89.2263, -97.0123)"></path>
                    <path d="M89.1202098,23.289014 C110.795552,26.3796251 133.118773,35.9815974 133.118773,28.5257533 C133.118773,21.0699091 110.743272,-1.84678243 90.0325937,-1.84678243 C69.3219156,-1.84678243 40.2830596,17.0654234 40.2830596,24.5212675 C40.2830596,31.9771116 67.4448678,20.198403 89.1202098,23.289014 Z" id="椭圆形备份-2" fill="url(#linearGradient-9)" filter="url(#filter-10)" mask="url(#mask-5)" transform="translate(86.7009, 14.7258) rotate(-330) translate(-86.7009, -14.7258)"></path>
                </g>
                <g id="xiang应人" transform="translate(26, 37)">
                    <path d="M42.4807772,7.20491524 L46,10.6837561 L49.5192228,7.20491524 C59.2372883,-2.40163841 74.9933855,-2.40163841 84.7114509,7.20491524 C94.4295164,16.8114689 94.4295164,32.3867698 84.7114509,41.9933234 L51.6307565,71.6944271 C48.5209756,74.7685243 43.4790244,74.7685243 40.3692435,71.6944271 L7.28854909,41.9933234 C-2.42951636,32.3867698 -2.42951636,16.8114689 7.28854909,7.20491524 C17.0066145,-2.40163841 32.7627117,-2.40163841 42.4807772,7.20491524 Z" id="bg" fill="url(#radialGradient-11)"></path>
                    <g id="蒙版">
                        <mask id="mask-14" fill="white">
                            <use xlink:href="#path-13"></use>
                        </mask>
                        <use fill="url(#linearGradient-12)" xlink:href="#path-13"></use>
                        <g id="路径-34" mask="url(#mask-14)">
                            <use fill="url(#linearGradient-15)" xlink:href="#path-17"></use>
                            <use fill="url(#linearGradient-16)" xlink:href="#path-17"></use>
                        </g>
                        <path d="M64.3382709,30.4886763 C64.3382709,30.4886763 70.7178892,22.5516342 78.3960676,18.7611857 C83.5148532,16.2342201 87.5165529,15.403598 90.4011667,16.2693193 C94.2907565,18.6396967 94.823701,20.4158853 92,21.5978853 C77.5069533,27.6646683 69.2660481,38.0453042 69.2660481,38.0453042 C69.2660481,38.0453042 64.3382709,30.4886763 64.3382709,30.4886763 Z" id="路径-5" fill="url(#linearGradient-18)" mask="url(#mask-14)"></path>
                        <path d="M56.6413426,26.1243474 C56.6413426,26.1243474 63.4156678,15.2186205 73.7026907,10.3001814 C80.5607059,7.021222 86.0339939,7.24387325 90.1225546,10.9681352 C91.8101703,14.5022579 92.2455971,16.2693193 91.428835,16.2693193 C86.6518096,16.2693193 82.9303767,17.5931569 80.0861502,18.8984821 C68.1488254,24.3769807 66.2505549,29.799632 66.2505549,29.799632 C66.2505549,29.799632 56.6413426,26.1243474 56.6413426,26.1243474 Z" id="路径-5备份" fill="url(#linearGradient-19)" mask="url(#mask-14)"></path>
                        <path d="M49.3111611,18.8984821 C49.3111611,18.8984821 57.9524422,6.3924339 67.3804992,3.08111115 C73.6658706,0.873562652 79.0128292,1.89446993 83.421375,6.14383298 C77.7924316,7.70606572 73.6652229,9.54484669 71.0397487,11.6601759 C61.5129501,19.3358617 56.4122179,24.1054748 56.4122179,24.1054748 C56.4122179,24.1054748 49.3111611,18.8984821 49.3111611,18.8984821 Z" id="路径-5备份-2" fill="url(#linearGradient-20)" mask="url(#mask-14)"></path>
                    </g>
                    <g id="+" transform="translate(32, 24)">
                        <g id="形状结合">
                            <use fill="black" fill-opacity="1" filter="url(#filter-23)" xlink:href="#path-22"></use>
                            <use fill="url(#linearGradient-21)" fill-rule="evenodd" xlink:href="#path-22"></use>
                        </g>
                        <rect id="矩形备份-12" fill="url(#linearGradient-24)" opacity="0.400000006" x="10" y="0" width="8" height="18" rx="4"></rect>
                        <rect id="矩形" fill="url(#linearGradient-25)" opacity="0.300000012" x="10" y="10" width="18" height="8" rx="4"></rect>
                    </g>
                </g>
            </g>
        </g>
    </g>
</svg>