<?xml version="1.0" encoding="UTF-8"?>
<svg width="48px" height="48px" viewBox="0 0 48 48" version="1.1" xmlns="http://www.w3.org/2000/svg" xmlns:xlink="http://www.w3.org/1999/xlink">
    <title>距离备份 4</title>
    <g id="页面-1" stroke="none" stroke-width="1" fill="none" fill-rule="evenodd">
        <g id="7.2.呼救通知滑动" transform="translate(-530, -853)">
            <g id="附近呼救信息" transform="translate(48, 322)">
                <g id="呼救信息-2" transform="translate(0, 107)">
                    <g id="编组-4" transform="translate(0, -224)">
                        <g id="呼救信息备份" transform="translate(0, 600)">
                            <g id="距离" transform="translate(482, 44)">
                                <g transform="translate(0, 4)">
                                    <rect id="矩形" x="0" y="0" width="48" height="48"></rect>
                                    <path d="M39.8951532,10.6746128 L29.9165941,40.6102902 C29.5617779,41.6747388 28.4112365,42.2500095 27.346788,41.8951933 C26.8027201,41.7138373 26.360646,41.3109779 26.1296763,40.7860466 L20.6680518,28.3732636 C20.4633895,27.908122 20.0918379,27.5365705 19.6266963,27.3319082 L7.21391339,21.8702837 C6.18690497,21.4184 5.72067426,20.219521 6.17255797,19.1925126 C6.40352774,18.6675813 6.84560177,18.2647218 7.38966971,18.0833659 L37.3253472,8.10480671 C38.3897957,7.74999053 39.5403371,8.32526122 39.8951532,9.38970975 C40.0341606,9.80673187 40.0341606,10.2575907 39.8951532,10.6746128 Z" id="三角形" fill="#FF7400"></path>
                                </g>
                            </g>
                        </g>
                    </g>
                </g>
            </g>
        </g>
    </g>
</svg>