<?xml version="1.0" encoding="UTF-8"?>
<svg width="48px" height="48px" viewBox="0 0 48 48" version="1.1" xmlns="http://www.w3.org/2000/svg" xmlns:xlink="http://www.w3.org/1999/xlink">
    <title>编辑</title>
    <g id="页面-1" stroke="none" stroke-width="1" fill="none" fill-rule="evenodd">
        <g id="6.2.我的异地呼救" transform="translate(-45, -30)">
            <g id="icon/line/编辑" transform="translate(45, 30)">
                <rect id="矩形" x="0" y="0" width="48" height="48"></rect>
                <g id="edit-line" transform="translate(6, 3)" fill="#333333" fill-rule="nonzero">
                    <path d="M2,37.0002 L34,37.0002 C35.1045695,37.0002 36,37.8956305 36,39.0002 C36,40.1047695 35.1045695,41.0002 34,41.0002 L2,41.0002 C0.8954305,41.0002 1.3527075e-16,40.1047695 0,39.0002 C-1.3527075e-16,37.8956305 0.8954305,37.0002 2,37.0002 Z M35.7057283,5.784527 C37.3083489,7.45292042 37.3083489,10.1573863 35.7057283,11.8257797 L14.3624652,34.0382783 C13.5869838,34.8456209 12.5333077,35.2964107 11.4364389,35.2901731 L6.09241254,35.2580645 C4.40555687,35.2481442 3.04044461,33.8274358 3.03091254,32.0718804 L3.00006041,26.5102109 C2.99406693,25.3686705 3.42721613,24.2720819 4.20296518,23.4650179 L25.545202,1.25145122 C26.3150943,0.450162684 27.3593161,0 28.4481362,0 C29.5369564,0 30.5811782,0.450162684 31.3510704,1.25145122 L35.7057283,5.78345889 L35.7057283,5.784527 Z M32.8012547,8.80515337 L28.4496757,4.27421382 L7.10538623,26.4856443 L7.13001781,30.9909491 L11.4600441,31.0176519 L32.8012547,8.80515337 Z" id="形状"></path>
                </g>
            </g>
        </g>
    </g>
</svg>