<?xml version="1.0" encoding="UTF-8"?>
<svg width="278px" height="278px" viewBox="0 0 278 278" version="1.1" xmlns="http://www.w3.org/2000/svg" xmlns:xlink="http://www.w3.org/1999/xlink">
    <title>首页-SOS</title>
    <defs>
        <filter x="-14.0%" y="-9.8%" width="127.9%" height="127.9%" filterUnits="objectBoundingBox" id="filter-1">
            <feOffset dx="0" dy="10" in="SourceAlpha" result="shadowOffsetOuter1"></feOffset>
            <feGaussianBlur stdDeviation="9.5" in="shadowOffsetOuter1" result="shadowBlurOuter1"></feGaussianBlur>
            <feColorMatrix values="0 0 0 0 0.738620924   0 0 0 0 0.193883973   0 0 0 0 0.0581551383  0 0 0 0.329955201 0" type="matrix" in="shadowBlurOuter1" result="shadowMatrixOuter1"></feColorMatrix>
            <feMerge>
                <feMergeNode in="shadowMatrixOuter1"></feMergeNode>
                <feMergeNode in="SourceGraphic"></feMergeNode>
            </feMerge>
        </filter>
        <linearGradient x1="30.7117718%" y1="-5.75928194e-14%" x2="76.330462%" y2="92.7437245%" id="linearGradient-2">
            <stop stop-color="#FF8758" offset="0%"></stop>
            <stop stop-color="#E01E1E" offset="100%"></stop>
        </linearGradient>
        <circle id="path-3" cx="120" cy="120" r="120"></circle>
        <filter x="-6.7%" y="-6.7%" width="113.3%" height="113.3%" filterUnits="objectBoundingBox" id="filter-5">
            <feGaussianBlur stdDeviation="9.5" in="SourceAlpha" result="shadowBlurInner1"></feGaussianBlur>
            <feOffset dx="0" dy="12" in="shadowBlurInner1" result="shadowOffsetInner1"></feOffset>
            <feComposite in="shadowOffsetInner1" in2="SourceAlpha" operator="arithmetic" k2="-1" k3="1" result="shadowInnerInner1"></feComposite>
            <feColorMatrix values="0 0 0 0 1   0 0 0 0 0.798208841   0 0 0 0 0.798208841  0 0 0 0.5 0" type="matrix" in="shadowInnerInner1" result="shadowMatrixInner1"></feColorMatrix>
            <feGaussianBlur stdDeviation="9.5" in="SourceAlpha" result="shadowBlurInner2"></feGaussianBlur>
            <feOffset dx="-13" dy="-10" in="shadowBlurInner2" result="shadowOffsetInner2"></feOffset>
            <feComposite in="shadowOffsetInner2" in2="SourceAlpha" operator="arithmetic" k2="-1" k3="1" result="shadowInnerInner2"></feComposite>
            <feColorMatrix values="0 0 0 0 0.967872509   0 0 0 0 0.246674238   0 0 0 0 0  0 0 0 0.673131556 0" type="matrix" in="shadowInnerInner2" result="shadowMatrixInner2"></feColorMatrix>
            <feMerge>
                <feMergeNode in="shadowMatrixInner1"></feMergeNode>
                <feMergeNode in="shadowMatrixInner2"></feMergeNode>
            </feMerge>
        </filter>
        <filter x="-65.8%" y="-105.1%" width="231.6%" height="310.1%" filterUnits="objectBoundingBox" id="filter-6">
            <feGaussianBlur stdDeviation="48.5189189" in="SourceGraphic"></feGaussianBlur>
        </filter>
        <filter x="-40.6%" y="-87.6%" width="181.2%" height="275.3%" filterUnits="objectBoundingBox" id="filter-7">
            <feGaussianBlur stdDeviation="31.0521081" in="SourceGraphic"></feGaussianBlur>
        </filter>
        <linearGradient x1="54.8656722%" y1="45.4141925%" x2="47.2735956%" y2="58.14703%" id="linearGradient-8">
            <stop stop-color="#FFF2B9" offset="0%"></stop>
            <stop stop-color="#FFB74E" stop-opacity="0.634751967" offset="100%"></stop>
        </linearGradient>
        <filter x="-31.4%" y="-87.8%" width="162.7%" height="275.7%" filterUnits="objectBoundingBox" id="filter-9">
            <feGaussianBlur stdDeviation="19.4075676" in="SourceGraphic"></feGaussianBlur>
        </filter>
        <path d="M136.522306,80.6748579 L136.522306,81.0213065 C131.827562,76.9775555 125.695197,74.8272197 119.396825,75.0161949 C113.042965,74.7859449 106.85889,77.0186987 102.231331,81.2137782 C97.6885305,85.934608 95.3344802,92.2285656 95.7092436,98.6516986 L95.7092436,140.610492 C95.3096734,147.009224 97.6024612,153.293604 102.07128,158.048413 C112.076174,165.855796 126.397374,165.855796 136.402268,158.048413 C141.033816,153.373249 143.43941,147.057717 143.044393,140.610492 L143.044393,98.2667555 C143.541756,91.7809247 141.173812,85.3939163 136.522306,80.6748579 L136.522306,80.6748579 Z M126.719169,98.1127783 L126.719169,141.110918 C126.763021,143.187387 126.08731,145.218846 124.798554,146.885064 C123.398065,148.334502 121.433821,149.157947 119.376819,149.157947 C117.319816,149.157947 115.355572,148.334502 113.955083,146.885064 C112.64715,145.118069 112.024199,142.966001 112.19452,140.802964 L112.19452,98.1127783 C112.107154,96.0782561 112.757836,94.0778137 114.035109,92.4541154 C115.388079,91.1376225 117.2324,90.3967616 119.156748,90.3967616 C121.081096,90.3967616 122.925418,91.1376225 124.278387,92.4541154 L124.918592,93.1470129 C125.928836,94.3185394 126.555423,95.7518836 126.719169,97.2659036 C126.759202,97.5468815 126.759202,97.8318004 126.719169,98.1127783 L126.719169,98.1127783 Z M75.703801,116.436208 C73.823199,114.588475 70.3820978,110.585054 68.4614831,108.737321 C67.1410605,107.505499 65.7005994,105.850238 64.4602025,104.695405 C63.383438,103.62632 62.4431556,102.437415 61.6593061,101.153917 C60.7087132,99.7381471 60.1698571,98.1031678 60.0988066,96.4191013 C60.0259812,94.5586481 60.5727121,92.7244473 61.6593061,91.183858 C62.5740684,89.9187619 64.0593063,89.1471681 65.6605867,89.1051586 C67.8435068,88.8039992 69.997531,89.809667 71.1023283,91.6457914 C71.688671,92.7837193 72.1706537,93.9687122 72.5427894,95.1872795 C73.479484,98.250029 76.4701558,100.300619 79.7851072,100.153062 C82.0440253,100.098559 84.1518197,99.0491223 85.5025944,97.3064177 C86.8533692,95.5637132 87.2975012,93.3207771 86.7073227,91.2223526 C85.5129418,87.3574363 83.4657078,83.7859902 80.7054019,80.7518658 C76.9833187,76.8914428 71.6891074,74.7950247 66.220766,75.016195 C60.2989517,74.8360618 54.5987243,77.1903412 50.6557844,81.4447657 C46.8167194,85.9466857 44.8113837,91.638625 45.0139786,97.4584512 C45.9204641,106.505467 50.1814472,114.936343 57.0178205,121.209518 C59.0984864,123.249723 62.699639,127.830561 64.7002792,129.909261 C66.8321618,132.045079 68.7729935,134.350084 70.5021362,136.799765 C71.7292566,138.661799 72.3557856,140.831714 72.3027125,143.035863 C72.3027125,148.348096 70.3020721,150.734751 66.3408044,150.734751 C65.1085335,150.746146 63.9040777,150.382352 62.899703,149.695401 C61.8838399,148.998095 61.1155272,148.017031 60.6989987,146.885307 C60.4933376,146.304278 60.3197071,145.713207 60.1788323,145.114563 C59.0739091,141.192113 54.8729955,138.874067 50.7958291,139.937061 C46.7186627,141.000056 44.3091835,145.041557 45.4141067,148.964007 C46.5011342,152.198306 48.1518431,155.231258 50.295669,157.93321 C53.929185,161.972721 59.082504,164.457336 64.6209634,164.839992 C70.1594228,165.222647 75.6288999,163.471966 79.8251202,159.973415 C80.5779814,159.351776 81.2740835,158.669211 81.9057861,157.93321 C85.2703183,154.237534 87.3909316,149.647214 87.9877325,144.768113 C88.0677837,144.051614 88.0677837,143.328924 87.9877325,142.612425 C87.8771313,138.045876 86.8726045,133.540325 85.0267849,129.331844 C82.6547243,124.55333 79.462321,120.193701 75.5837627,116.436208 L75.703801,116.436208 Z M192.219172,128.908405 C189.757405,124.298401 186.557293,120.089577 182.736137,116.436208 C180.895548,114.62697 175.493819,109.122265 175.493819,109.122265 C174.133384,107.813454 172.772948,106.38916 171.492538,104.926372 C170.427683,103.736387 169.48937,102.446806 168.691642,101.076928 C167.782084,99.6851404 167.245883,98.0978968 167.131142,96.4575959 C167.040907,94.5591197 167.588036,92.6830935 168.691642,91.1068692 C169.657169,89.8733751 171.167913,89.1466674 172.772948,89.143653 C174.917147,89.0315345 176.921295,90.1701743 177.854574,92.0307356 C178.293874,93.0470953 178.668028,94.0883961 178.974933,95.1487849 C179.859486,98.3916266 182.932929,100.633083 186.417315,100.5765 C188.669602,100.512932 190.770687,99.471112 192.131333,97.7432146 C193.491979,96.0153172 193.965668,93.7874054 193.419556,91.6842858 C192.332582,87.7441786 190.366372,84.0792074 187.657712,80.9443381 C183.904648,77.1037564 178.608505,75.0123506 173.133063,75.2086671 C167.072726,74.8803952 161.1852,77.2168411 157.127941,81.560249 C153.316177,86.0939339 151.302501,91.7829378 151.446122,97.6124289 C152.379755,106.739768 156.765404,115.219318 163.770067,121.440485 C165.81072,123.365207 171.452525,129.524316 171.452525,129.524316 C173.614873,131.634101 175.558036,133.941874 177.254382,136.41482 C178.452972,138.276706 179.090206,140.42239 179.094971,142.612425 C179.094971,147.924657 177.094331,150.311312 173.09305,150.311312 C171.860144,150.28913 170.662098,149.91387 169.651949,149.233468 C168.738409,148.522251 168.080503,147.552642 167.771347,146.461868 C167.627973,146.129708 167.533693,145.779855 167.491258,145.422519 C166.93661,142.842726 164.961451,140.760477 162.341685,139.993744 C159.721919,139.227012 156.876055,139.898281 154.922035,141.743856 C152.968016,143.589431 152.217997,146.314482 152.966609,148.848523 C154.049516,152.177922 155.743457,155.293832 157.96821,158.048693 C161.560028,162.066629 166.664018,164.547038 172.15704,164.944103 C177.650062,165.341168 183.082012,163.622354 187.257584,160.165887 C188.027329,159.508559 188.749257,158.801165 189.418276,158.048693 C192.720339,154.024774 194.648939,149.117336 194.940043,143.998224 C195.019986,143.307459 195.019986,142.61029 194.940043,141.919525 C195.096368,137.425641 194.121745,132.961952 192.099133,128.908405 L192.219172,128.908405 Z" id="path-10"></path>
        <filter x="-10.0%" y="-13.3%" width="120.0%" height="133.3%" filterUnits="objectBoundingBox" id="filter-11">
            <feOffset dx="0" dy="3" in="SourceAlpha" result="shadowOffsetOuter1"></feOffset>
            <feGaussianBlur stdDeviation="4.5" in="shadowOffsetOuter1" result="shadowBlurOuter1"></feGaussianBlur>
            <feColorMatrix values="0 0 0 0 1   0 0 0 0 0.250228659   0 0 0 0 0.447338563  0 0 0 1 0" type="matrix" in="shadowBlurOuter1"></feColorMatrix>
        </filter>
    </defs>
    <g id="页面-1" stroke="none" stroke-width="1" fill="none" fill-rule="evenodd">
        <g id="7.18.确认完成提示" transform="translate(-446, -1793)">
            <g id="首页-SOS" transform="translate(447, 1790)">
                <rect id="矩形" fill-opacity="0" fill="#FFFFFF" x="0" y="0" width="276" height="276"></rect>
                <g id="编组-2备份" filter="url(#filter-1)" transform="translate(18, 12)">
                    <g id="椭圆形-+-椭圆形备份-2-蒙版">
                        <mask id="mask-4" fill="white">
                            <use xlink:href="#path-3"></use>
                        </mask>
                        <g id="蒙版">
                            <use fill="url(#linearGradient-2)" fill-rule="evenodd" xlink:href="#path-3"></use>
                            <use fill="black" fill-opacity="1" filter="url(#filter-5)" xlink:href="#path-3"></use>
                        </g>
                        <path d="M162.760998,240 L71.703086,258 L-34.6493709,231.626078 L-58.3982271,198.583569 L-10,119.451975 C16.4190628,157.5773 38.3744951,183.954498 55.8662967,198.583569 C73.3580983,213.212641 108.989666,227.018118 162.760998,240 Z" id="路径-3" fill="#FF0000" opacity="0.291027618" filter="url(#filter-6)" mask="url(#mask-4)"></path>
                        <path d="M156.71049,247.167995 C227.126796,247.167995 293.157142,197.97565 293.157142,183.063962 C293.157142,168.152274 231.935851,187.02322 161.519545,187.02322 C91.1032399,187.02322 63.7481192,128.398432 63.7481192,143.31012 C63.7481192,158.221808 86.2941845,247.167995 156.71049,247.167995 Z" id="椭圆形" fill="#FFAD4B" filter="url(#filter-7)" mask="url(#mask-4)" transform="translate(178.4526, 194.0247) rotate(-39) translate(-178.4526, -194.0247)"></path>
                        <path d="M178.24042,46.5780281 C221.591104,52.7592501 266.237546,71.9631948 266.237546,57.0515065 C266.237546,42.1398183 221.486544,-3.69356487 180.065187,-3.69356487 C138.643831,-3.69356487 80.5661192,34.1308468 80.5661192,49.042535 C80.5661192,63.9542233 134.889736,40.396806 178.24042,46.5780281 Z" id="椭圆形备份-2" fill="url(#linearGradient-8)" filter="url(#filter-9)" mask="url(#mask-4)" transform="translate(173.4018, 29.4517) rotate(-330) translate(-173.4018, -29.4517)"></path>
                    </g>
                    <g id="形状" fill-rule="nonzero">
                        <use fill="black" fill-opacity="1" filter="url(#filter-11)" xlink:href="#path-10"></use>
                        <use fill="#FFFFFF" xlink:href="#path-10"></use>
                    </g>
                </g>
            </g>
        </g>
    </g>
</svg>